<?xml version="1.0" encoding="UTF-8"?>
<svg width="113px" height="37px" viewBox="0 0 113 37" version="1.1" xmlns="http://www.w3.org/2000/svg" xmlns:xlink="http://www.w3.org/1999/xlink">
    <!-- Generator: Sketch 54.1 (76490) - https://sketchapp.com -->
    <title>google</title>
    <desc>Created with Sketch.</desc>
    <defs>
        <polygon id="path-1" points="5.62723494e-05 0.0499698462 27.8791789 0.0499698462 27.8791789 28.6514943 5.62723494e-05 28.6514943"></polygon>
        <polygon id="path-3" points="0.0224526674 0.108560616 16.8817048 0.108560616 16.8817048 18.5128827 0.0224526674 18.5128827"></polygon>
        <polygon id="path-5" points="0 36.977236 112.432154 36.977236 112.432154 0.112544699 0 0.112544699"></polygon>
    </defs>
    <g id="revised-homepage" stroke="none" stroke-width="1" fill="none" fill-rule="evenodd">
        <g id="m-degree-hp" transform="translate(-519.000000, -2417.000000)">
            <g id="Group-8" transform="translate(16.000000, 2325.000000)">
                <g id="google" transform="translate(503.500000, 92.000000)">
                    <g id="Group-3" transform="translate(0.000000, 0.062575)">
                        <mask id="mask-2" fill="white">
                            <use xlink:href="#path-1"></use>
                        </mask>
                        <g id="Clip-2"></g>
                        <path d="M27.641597,13.0687805 L14.5220364,13.0687805 L14.5220364,16.9618141 L23.8264443,16.9618141 C23.3668117,22.4209073 18.8249579,24.7490069 14.5376801,24.7490069 C9.05270166,24.7490069 4.26651326,20.4334804 4.26651326,14.384428 C4.26651326,8.49203773 8.8289628,3.95401039 14.5498349,3.95401039 C18.9636129,3.95401039 21.5642958,6.76762786 21.5642958,6.76762786 L24.2901284,3.94489427 C24.2901284,3.94489427 20.7914514,0.0499473373 14.4105046,0.0499473373 C6.28601533,0.0499473373 5.62723494e-05,6.90774601 5.62723494e-05,14.3151004 C5.62723494e-05,21.5734457 5.9130422,28.6514943 14.618037,28.6514943 C22.2745654,28.6514943 27.8791789,23.4064612 27.8791789,15.6507809 C27.8791789,14.0144936 27.641597,13.0687805 27.641597,13.0687805" id="Fill-1" fill="#000000" mask="url(#mask-2)"></path>
                    </g>
                    <path d="M38.4423654,13.9231185 C41.0896418,13.9231185 43.5982632,16.0633811 43.5982632,19.5120883 C43.5982632,22.8876414 41.100221,25.0889032 38.4302106,25.0889032 C35.4962829,25.0889032 33.1819137,22.7390824 33.1819137,19.4853026 C33.1819137,16.301188 35.467584,13.9231185 38.4423654,13.9231185 M38.3887942,10.3123469 C33.0055561,10.3123469 29.1477489,14.5208434 29.1477489,19.4293679 C29.1477489,24.4103712 32.8896351,28.6971988 38.4520443,28.6971988 C43.4876317,28.6971988 47.6128451,24.8485077 47.6128451,19.5363979 C47.6128451,13.4479548 42.8141643,10.3123469 38.3887942,10.3123469" id="Fill-4" fill="#000000"></path>
                    <path d="M58.541273,13.9231185 C61.1885494,13.9231185 63.6972833,16.0633811 63.6972833,19.5120883 C63.6972833,22.8876414 61.1991286,25.0889032 58.5292307,25.0889032 C55.595303,25.0889032 53.2808212,22.7390824 53.2808212,19.4853026 C53.2808212,16.301188 55.5666041,13.9231185 58.541273,13.9231185 M58.4877017,10.3123469 C53.1045762,10.3123469 49.2466565,14.5208434 49.2466565,19.4293679 C49.2466565,24.4103712 52.9886552,28.6971988 58.5510644,28.6971988 C63.5865393,28.6971988 67.7118652,24.8485077 67.7118652,19.5363979 C67.7118652,13.4479548 62.9131844,10.3123469 58.4877017,10.3123469" id="Fill-6" fill="#000000"></path>
                    <path d="M78.5577416,13.9255382 C80.9802662,13.9255382 83.4678417,15.9939972 83.4678417,19.5266628 C83.4678417,23.1172889 80.9856684,25.0961623 78.5041703,25.0961623 C75.8699491,25.0961623 73.4189506,22.9571378 73.4189506,19.5606513 C73.4189506,16.0314746 75.9645992,13.9255382 78.5577416,13.9255382 M78.2000745,10.3219695 C73.2589121,10.3219695 69.3749945,14.6497634 69.3749945,19.5071926 C69.3749945,25.0402276 73.8777954,28.7092973 78.1148782,28.7092973 C80.7349188,28.7092973 82.1279971,27.6693843 83.1564305,26.4757352 L83.1564305,28.2883801 C83.1564305,31.4600023 81.2307907,33.3591941 78.3242113,33.3591941 C75.5163336,33.3591941 74.1079493,31.2712648 73.6184924,30.0866193 L70.0856017,31.5635434 C71.338787,34.2135209 73.861814,36.9771685 78.3534729,36.9771685 C83.2661616,36.9771685 87.0105237,33.882752 87.0105237,27.3929745 L87.0105237,10.8743389 L83.1564305,10.8743389 L83.1564305,12.4316199 C81.9722352,11.1546877 80.3515915,10.3219695 78.2000745,10.3219695" id="Fill-8" fill="#000000"></path>
                    <g id="Group-12" transform="translate(95.550449, 10.191598)">
                        <mask id="mask-4" fill="white">
                            <use xlink:href="#path-3"></use>
                        </mask>
                        <g id="Clip-11"></g>
                        <path d="M8.75738437,3.64392724 C10.4368889,3.64392724 11.645619,4.53685688 12.1590479,5.6074946 L3.92764117,9.04798604 C3.57278773,6.38427811 6.09615242,3.64392724 8.75738437,3.64392724 M8.59678308,0.108560616 C3.93585693,0.108560616 0.0224526674,3.81690844 0.0224526674,9.28883169 C0.0224526674,15.0789188 4.38457265,18.5128827 9.0444859,18.5128827 C12.9338056,18.5128827 15.3208787,16.3852251 16.7454695,14.4787179 L13.5676573,12.3643407 C12.7431549,13.6439739 11.3645949,14.8949082 9.06406867,14.8949082 C6.47970476,14.8949082 5.29145783,13.4797712 4.55530295,12.1088642 L16.8817611,6.99438292 L16.2417194,5.49551262 C15.0505463,2.56034688 12.2724929,0.108560616 8.59678308,0.108560616" id="Fill-10" fill="#000000" mask="url(#mask-4)"></path>
                    </g>
                    <mask id="mask-6" fill="white">
                        <use xlink:href="#path-5"></use>
                    </mask>
                    <g id="Clip-14"></g>
                    <polygon id="Fill-13" fill="#000000" mask="url(#mask-6)" points="89.6967744 28.1584585 93.7455699 28.1584585 93.7455699 1.06287213 89.6967744 1.06287213"></polygon>
                </g>
            </g>
        </g>
    </g>
</svg>
