<svg width="20px" height="20px" viewBox="0 0 20 20" version="1.1" xmlns="http://www.w3.org/2000/svg" xmlns:xlink="http://www.w3.org/1999/xlink">
    <!-- Generator: Sketch 43.2 (39069) - http://www.bohemiancoding.com/sketch -->
    <desc>Created with Sketch.</desc>
    <defs></defs>
    <g id="Page-1" stroke="none" stroke-width="1" fill="none" fill-rule="evenodd">
        <g id="icon-search" fill-rule="nonzero" fill="#202020">
            <path d="M19.6,17.8 L16,14.2 C17.2,12.8 17.8,10.8 17.8,8.8 C17.8,4 13.8,0 9,0 C4,0 0,4 0,9 C0,14 4,18 9,18 C11,18 13,17.2 14.4,16.2 L17.8,19.6 C18,19.6 18.4,19.8 18.8,19.8 C19.2,19.8 19.4,19.6 19.6,19.4 C20,19 20,18.2 19.6,17.8 Z M2.4,9 C2.4,5.4 5.4,2.4 9,2.4 C12.6,2.4 15.6,5.4 15.6,9 C15.6,12.6 12.6,15.4 9,15.4 C5.4,15.4 2.4,12.6 2.4,9 Z" id="Shape"></path>
        </g>
    </g>
</svg>
