<?xml version="1.0" encoding="UTF-8" standalone="no"?>
<svg width="14px" height="24px" viewBox="0 0 14 24" version="1.1" xmlns="http://www.w3.org/2000/svg" xmlns:xlink="http://www.w3.org/1999/xlink">
    <!-- Generator: Sketch 43.2 (39069) - http://www.bohemiancoding.com/sketch -->
    <title>icon-widget-updown</title>
    <desc>Created with Sketch.</desc>
    <defs></defs>
    <g id="Page-1" stroke="none" stroke-width="1" fill-rule="evenodd">
        <g id="icon-widget-updown" transform="translate(-1.000000, 0.000000)">
            <path d="M8,24 L1.2,17.2 C0.9,16.9 0.9,16.5 1.2,16.2 C1.5,15.9 1.9,15.9 2.2,16.2 L8,21.9 L13.8,16.2 C14.1,15.9 14.5,15.9 14.8,16.2 C15.1,16.5 15.1,16.9 14.8,17.2 L8,24 Z" id="Shape"></path>
            <path d="M8,0 L14.8,6.8 C15.1,7.1 15.1,7.5 14.8,7.8 C14.5,8.1 14.1,8.1 13.8,7.8 L8,2.1 L2.2,7.8 C1.9,8.1 1.5,8.1 1.2,7.8 C0.9,7.5 0.9,7.1 1.2,6.8 L8,0 Z" id="Shape"></path>
        </g>
    </g>
</svg>