
<svg width="16px" height="16px" viewBox="0 0 16 16" version="1.1" xmlns="http://www.w3.org/2000/svg" xmlns:xlink="http://www.w3.org/1999/xlink">
    <!-- Generator: Sketch 43.2 (39069) - http://www.bohemiancoding.com/sketch -->
    <desc>Created with Sketch.</desc>
    <defs></defs>
    <g id="Page-1" stroke="none" stroke-width="1" fill="none" fill-rule="evenodd">
        <g id="icon-search">
            <path d="M15.68,14.24 L12.8,11.36 C13.76,10.24 14.24,8.64 14.24,7.04 C14.24,3.2 11.04,0 7.2,0 C3.2,0 0,3.2 0,7.2 C0,11.2 3.2,14.4 7.2,14.4 C8.8,14.4 10.4,13.76 11.52,12.96 L14.24,15.68 C14.4,15.68 14.72,15.84 15.04,15.84 C15.36,15.84 15.52,15.68 15.68,15.52 C16,15.2 16,14.56 15.68,14.24 Z M1.92,7.2 C1.92,4.32 4.32,1.92 7.2,1.92 C10.08,1.92 12.48,4.32 12.48,7.2 C12.48,10.08 10.08,12.32 7.2,12.32 C4.32,12.32 1.92,10.08 1.92,7.2 Z" id="Shape"></path>
        </g>
    </g>
</svg>
