<?xml version="1.0" encoding="UTF-8" standalone="no"?>
<svg width="20px" height="20px" viewBox="0 0 20 20" version="1.1" xmlns="http://www.w3.org/2000/svg" xmlns:xlink="http://www.w3.org/1999/xlink">
    <!-- Generator: Sketch 43.2 (39069) - http://www.bohemiancoding.com/sketch -->
    <title>social-googleplus</title>
    <desc>Created with Sketch.</desc>
    <defs></defs>
    <g id="Page-1" stroke="none" stroke-width="1" fill-rule="evenodd">
        <g id="social-googleplus">
            <path d="M0,0 L0,20 L20,20 L20,0 L0,0 Z M10.9,13.3 C9.6,14.9 7.3,15.4 5.4,14.8 C3.4,14.1 2,12.1 2,10 C1.9,7.4 4.2,5 6.8,4.9 C8.1,4.8 9.4,5.3 10.5,6.2 C10.1,6.7 9.7,7.1 9.2,7.5 C8.3,7 7.2,6.5 6.2,6.9 C4.5,7.4 3.5,9.4 4.1,11 C4.6,12.7 6.7,13.7 8.3,12.9 C9.1,12.6 9.7,11.8 10,11 L7.1,11 L7.1,9.3 L12,9.3 C12,10.7 11.8,12.2 10.9,13.3 Z M18,10.7 L16.5,10.7 L16.5,12.2 L15.1,12.2 L15.1,10.7 L13.6,10.7 L13.6,9.3 L15.1,9.3 L15.1,7.8 L16.5,7.8 L16.5,9.3 L18,9.3 L18,10.7 Z" id="Shape"></path>
        </g>
    </g>
</svg>
