<?xml version="1.0" encoding="UTF-8" standalone="no"?>
<svg width="20px" height="20px" viewBox="0 0 20 20" version="1.1" xmlns="http://www.w3.org/2000/svg" xmlns:xlink="http://www.w3.org/1999/xlink">
    <!-- Generator: Sketch 43.2 (39069) - http://www.bohemiancoding.com/sketch -->
    <title>icon-degreeprogram-hover</title>
    <desc>Created with Sketch.</desc>
    <defs></defs>
    <g id="Page-1" stroke="none" stroke-width="1" fill="none" fill-rule="evenodd">
        <g id="icon-degreeprogram-hover" fill-rule="nonzero" fill="#202020">
            <path d="M10,0 C4.5,0 0,4.5 0,10 C0,15.5 4.5,20 10,20 C15.5,20 20,15.5 20,10 C20,4.5 15.5,0 10,0 Z M9.2,14.7 C9.1,14.8 8.9,14.9 8.7,14.9 C8.5,14.9 8.3,14.8 8.2,14.7 C7.9,14.4 7.9,14 8.2,13.7 L12,9.9 L8.2,6.1 C7.9,5.8 7.9,5.4 8.2,5.1 C8.5,4.8 8.9,4.8 9.2,5.1 L14,9.9 L9.2,14.7 Z" id="Shape"></path>
        </g>
    </g>
</svg>