<?xml version="1.0" encoding="UTF-8" standalone="no"?>
<svg width="10px" height="10px" viewBox="0 0 10 10" version="1.1" xmlns="http://www.w3.org/2000/svg" xmlns:xlink="http://www.w3.org/1999/xlink">
    <!-- Generator: Sketch 43.2 (39069) - http://www.bohemiancoding.com/sketch -->
    <title>icon-x-circle</title>
    <desc>Created with Sketch.</desc>
    <defs></defs>
    <g id="Page-1" stroke="none" stroke-width="1" fill="none" fill-rule="evenodd">
        <g id="icon-x-circle">
            <path d="M6.7,5.5 L9.8,2.4 C10.1,2.1 10.1,1.6 9.8,1.2 C9.5,0.8 9,0.9 8.6,1.2 L5.5,4.3 L2.4,1.2 C2.1,0.9 1.6,0.9 1.2,1.2 C0.8,1.5 0.9,2 1.2,2.4 L4.3,5.5 L1.2,8.6 C0.9,8.9 0.9,9.4 1.2,9.8 C1.4,9.9 1.6,10 1.8,10 C2,10 2.2,9.9 2.4,9.8 L5.5,6.7 L8.6,9.8 C8.7,9.9 9,10 9.2,10 C9.4,10 9.6,9.9 9.8,9.8 C10.1,9.5 10.1,9 9.8,8.6 L6.7,5.5 Z" id="Shape"></path>
        </g>
    </g>
</svg>