<?xml version="1.0" encoding="UTF-8" standalone="no"?>
<svg width="20px" height="20px" viewBox="0 0 20 20" version="1.1" xmlns="http://www.w3.org/2000/svg" xmlns:xlink="http://www.w3.org/1999/xlink">
    <!-- Generator: Sketch 43.2 (39069) - http://www.bohemiancoding.com/sketch -->
    <title>social-linkedin</title>
    <desc>Created with Sketch.</desc>
    <defs></defs>
    <g id="Page-1" stroke="none" stroke-width="1" fill-rule="evenodd">
        <g id="social-linkedin">
            <path d="M18.5,0 L1.5,0 C0.7,0 0,0.6 0,1.4 L0,18.5 C0,19.4 0.7,20 1.5,20 L18.5,20 C19.3,20 20,19.4 20,18.6 L20,1.4 C20,0.6 19.3,0 18.5,0 Z M6.1,16.7 L3,16.7 L3,7.7 L6,7.7 L6,16.7 L6.1,16.7 Z M4.6,6.5 L4.6,6.5 C3.6,6.5 2.9,5.8 2.9,4.9 C2.9,4 3.6,3.3 4.6,3.3 C5.6,3.3 6.3,4 6.3,4.9 C6.3,5.8 5.6,6.5 4.6,6.5 Z M17,16.7 L14,16.7 L14,11.9 C14,10.7 13.6,9.9 12.5,9.9 C11.7,9.9 11.2,10.5 11,11 C10.9,11.2 10.9,11.5 10.9,11.7 L10.9,16.7 L7.9,16.7 L7.9,7.7 L10.9,7.7 L10.9,9 C11.3,8.4 12,7.5 13.6,7.5 C15.6,7.5 17.1,8.8 17.1,11.6 L17.1,16.7 L17,16.7 Z" id="Shape"></path>
            <path d="M10.8,9 L10.8,9 C10.7,9 10.7,9 10.8,9 L10.8,9 Z" id="Shape"></path>
        </g>
    </g>
</svg>
