<svg xmlns="http://www.w3.org/2000/svg" width="24" height="20" viewBox="0 0 24 20">
  <metadata><?xpacket begin="﻿" id="W5M0MpCehiHzreSzNTczkc9d"?>
<x:xmpmeta xmlns:x="adobe:ns:meta/" x:xmptk="Adobe XMP Core 5.6-c138 79.159824, 2016/09/14-01:09:01        ">
   <rdf:RDF xmlns:rdf="http://www.w3.org/1999/02/22-rdf-syntax-ns#">
      <rdf:Description rdf:about=""/>
   </rdf:RDF>
</x:xmpmeta>
                                                                                                    
                                                                                                    
                                                                                                    
                                                                                                    
                                                                                                    
                                                                                                    
                                                                                                    
                                                                                                    
                                                                                                    
                                                                                                    
                                                                                                    
                                                                                                    
                                                                                                    
                                                                                                    
                                                                                                    
                                                                                                    
                                                                                                    
                                                                                                    
                                                                                                    
                                                                                                    
                           
<?xpacket end="w"?></metadata>
<defs>
    <style>
      .cls-1 {
        fill: #fff;
        fill-rule: evenodd;
      }
    </style>
  </defs>
  <path id="_200_icon-twitter-nomal-retina.svg_copy" data-name="200% icon-twitter-nomal-retina.svg copy" class="cls-1" d="M2324,6140.38a9.65,9.65,0,0,1-2.84.79,5.152,5.152,0,0,0,2.16-2.79,9.089,9.089,0,0,1-3.13,1.2,4.729,4.729,0,0,0-3.6-1.58,4.977,4.977,0,0,0-4.93,5.04,5.809,5.809,0,0,0,.12,1.17,13.748,13.748,0,0,1-10.14-5.29,5,5,0,0,0-.68,2.54,5.112,5.112,0,0,0,2.21,4.21,5.088,5.088,0,0,1-2.25-.63v0.09a4.987,4.987,0,0,0,3.97,4.95,4.168,4.168,0,0,1-1.28.17,6.851,6.851,0,0,1-.93-0.08,4.978,4.978,0,0,0,4.61,3.5,9.848,9.848,0,0,1-6.13,2.16,10.567,10.567,0,0,1-1.16-.08,13.522,13.522,0,0,0,7.53,2.25c9.06,0,14.03-7.71,14.03-14.37v-0.67A10.513,10.513,0,0,0,2324,6140.38Z" transform="translate(-2300 -6138)"/>
</svg>
