<?xml version="1.0" encoding="UTF-8" standalone="no"?>
<svg width="25px" height="20px" viewBox="0 0 25 20" version="1.1" xmlns="http://www.w3.org/2000/svg" xmlns:xlink="http://www.w3.org/1999/xlink">
    <!-- Generator: Sketch 43.2 (39069) - http://www.bohemiancoding.com/sketch -->
    <title>social-twitter</title>
    <desc>Created with Sketch.</desc>
    <defs></defs>
    <g id="Page-1" stroke="none" stroke-width="1" fill-rule="evenodd">
        <g id="social-twitter">
            <path d="M24.6,2.4 C23.7,2.8 22.7,3.1 21.7,3.2 C22.7,2.6 23.5,1.6 23.9,0.4 C22.9,1 21.8,1.4 20.7,1.6 C19.8,0.6 18.5,0 17,0 C14.2,0 12,2.3 12,5 C12,5.4 12,5.8 12.1,6.2 C7.9,6 4.2,4 1.7,0.9 C1.3,1.7 1,2.5 1,3.5 C1,5.3 1.9,6.8 3.2,7.7 C2.4,7.6 1.7,7.4 1,7 C1,7 1,7 1,7.1 C1,9.5 2.7,11.6 5.1,12.1 C4.7,12.2 4.2,12.3 3.8,12.3 C3.5,12.3 3.2,12.3 2.9,12.2 C3.5,14.2 5.4,15.7 7.6,15.7 C5.9,17.1 3.7,17.9 1.3,17.9 C0.9,17.9 0.5,17.9 0.1,17.8 C2.2,19.2 4.9,20 7.7,20 C17,20 22.1,12.3 22.1,5.6 L22.1,4.9 C23.1,4.3 23.9,3.4 24.6,2.4 Z" id="Shape"></path>
        </g>
    </g>
</svg>
