<?xml version="1.0" encoding="UTF-8" standalone="no"?>
<svg width="305px" height="58px" viewBox="0 0 305 58" version="1.1" xmlns="http://www.w3.org/2000/svg" xmlns:xlink="http://www.w3.org/1999/xlink">
    <!-- Generator: Sketch 46.2 (44496) - http://www.bohemiancoding.com/sketch -->
    <title>miis-logo</title>
    <desc>Created with Sketch.</desc>
    <defs>
        <polygon id="path-1" points="51.7759273 0.304262295 0 0.304262295 0 29.1521074 0 57.9999525 51.7759273 57.9999525 51.7759273 0.304262295"></polygon>
    </defs>
    <g id="Page-2" stroke="none" stroke-width="1" fill="none" fill-rule="evenodd">
        <g id="Desktop-HD-Copy-8" transform="translate(-54.000000, -23.000000)">
            <g id="miis-logo" transform="translate(54.000000, 23.000000)">
                <path d="M5.04434641,13.5089221 L7.16693754,13.5089221 C7.1943348,14.2272637 7.27838403,14.9112438 7.41258417,15.5487894 L5.59693522,15.5487894 C5.29928024,14.9200663 5.10564198,14.2337645 5.04434641,13.5089221 L5.04434641,13.5089221 Z M5.59693522,10.4512106 L7.41258417,10.4512106 C7.27838403,11.0882919 7.1943348,11.772272 7.16693754,12.4906136 L5.04434641,12.4906136 C5.10564198,11.7657711 5.29881588,11.0799337 5.59693522,10.4512106 L5.59693522,10.4512106 Z M8.58509403,7.53187396 C8.2224286,8.05658375 7.91734386,8.70063018 7.6814488,9.43290216 L6.20989088,9.43290216 C6.82284653,8.6119403 7.63779893,7.95210614 8.58509403,7.53187396 L8.58509403,7.53187396 Z M10.4908289,7.14553897 L10.4908289,9.43290216 L8.74994195,9.43290216 C9.18922684,8.2358209 9.82772231,7.42461028 10.4908289,7.14553897 L10.4908289,7.14553897 Z M10.4908289,12.4906136 L8.18481542,12.4906136 C8.21453448,11.7499834 8.30740655,11.0664677 8.44950081,10.4512106 L10.4908289,10.4512106 L10.4908289,12.4906136 Z M10.4908289,15.5487894 L8.44950081,15.5487894 C8.30740655,14.9335323 8.21453448,14.2500166 8.18481542,13.5089221 L10.4908289,13.5089221 L10.4908289,15.5487894 Z M10.4908289,18.8539967 C9.82772231,18.5753897 9.18922684,17.7641791 8.74994195,16.5670978 L10.4908289,16.5670978 L10.4908289,18.8539967 Z M6.21035524,16.5670978 L7.68191316,16.5670978 C7.91734386,17.2993698 8.2224286,17.9434163 8.58555839,18.4676617 C7.63826329,18.0478939 6.82331089,17.3880597 6.21035524,16.5670978 L6.21035524,16.5670978 Z M11.5091711,16.5670978 L13.2495937,16.5670978 C12.8107732,17.7637148 12.1722777,18.574461 11.5091711,18.8539967 L11.5091711,16.5670978 Z M11.5091711,13.5089221 L13.8151846,13.5089221 C13.7854655,14.2500166 13.6925935,14.9335323 13.5504992,15.5487894 L11.5091711,15.5487894 L11.5091711,13.5089221 Z M11.5091711,10.4512106 L13.5504992,10.4512106 C13.6930578,11.0664677 13.7854655,11.7499834 13.8151846,12.4906136 L11.5091711,12.4906136 L11.5091711,10.4512106 Z M11.5091711,7.14600332 C12.1722777,7.42507463 12.8107732,8.23628524 13.250058,9.43290216 L11.5091711,9.43290216 L11.5091711,7.14600332 Z M15.7905735,9.43290216 L14.3185512,9.43290216 C14.0826561,8.70016584 13.777107,8.0561194 13.4139772,7.53140962 C14.3617367,7.95117745 15.1771535,8.61147595 15.7905735,9.43290216 L15.7905735,9.43290216 Z M16.4035291,10.4512106 C16.7016485,11.0799337 16.894358,11.7657711 16.9556536,12.4906136 L14.8330625,12.4906136 C14.8056652,11.772272 14.721616,11.0882919 14.5874158,10.4512106 L16.4035291,10.4512106 Z M16.4035291,15.5487894 L14.5874158,15.5487894 C14.721616,14.9112438 14.8056652,14.2272637 14.8330625,13.5089221 L16.9556536,13.5089221 C16.894358,14.2337645 16.7011841,14.9200663 16.4035291,15.5487894 L16.4035291,15.5487894 Z M13.4139772,18.4685904 C13.777107,17.9438806 14.0821918,17.2993698 14.3180868,16.5670978 L15.7901091,16.5670978 C15.1771535,17.388524 14.3617367,18.0483582 13.4139772,18.4685904 L13.4139772,18.4685904 Z M11.0002322,20 C14.8599954,20 18,16.8596352 18,12.9995357 C18,9.1399005 14.8599954,6 11.0002322,6 C7.140469,6 4,9.1399005 4,12.9995357 C4,16.8596352 7.140469,20 11.0002322,20 L11.0002322,20 Z" id="Fill-1" fill="#FFFFFF"></path>
                <polygon id="Fill-3" fill="#FFFFFF" points="46 16.9053035 46 9 44.9076529 9 44.9076529 16.2814204 39.003024 19.7373796 33.0923471 16.2809562 33.0923471 9 32 9 32 16.9053035 39.003024 21"></polygon>
                <path d="M38,17 L38,9.51231434 C36.7655838,7.04831403 34.0175593,7.00023365 34.0175593,7.00023365 C33.9780509,6.95167723 34.0175593,14.4874433 34.0175593,14.4874433 C34.0175593,14.4874433 36.7655838,14.5359997 38,17" id="Fill-5" fill="#FFFFFF"></path>
                <path d="M43.9820472,14.4875629 C43.9820472,14.4875629 44.022441,6.95167951 43.9820472,7.00023362 C43.9820472,7.00023362 41.2343999,7.04831171 40,9.51219474 L40,17 C41.2343999,14.535641 43.9820472,14.4875629 43.9820472,14.4875629" id="Fill-7" fill="#FFFFFF"></path>
                <path d="M20.1412413,23.5624422 L20.1412413,23.0380804 L21.7166619,23.0380804 C21.9856478,20.9707466 23.8210246,19.3656353 26.0384944,19.3656353 C28.255489,19.3656353 30.0908659,20.9707466 30.3593765,23.0380804 L31.8715902,23.0380804 L31.8715902,23.5624422 C31.8715902,25.3238584 33.3719228,26.7568911 35.2153788,26.7568911 L35.7352913,26.7568911 L35.7400437,28.4332239 L38.7825302,28.4337019 L38.7825302,28.4427839 C39.3357095,28.4958414 39.8318601,28.8490807 40.0172037,29.3868264 C40.2182302,29.9699818 39.8860374,30.5990249 39.2758293,30.7926134 C38.7872826,30.9465282 38.2611919,30.6936681 38.0996103,30.2271438 C38.0055128,29.954208 38.0953331,29.6659762 38.3034883,29.4824257 L34.7006939,29.4819477 L34.6959415,27.7755011 C32.698983,27.5465409 31.1093052,26.0150409 30.8626556,24.0868041 L29.3509172,24.0868041 L29.3509172,23.5624422 C29.3509172,21.8263599 27.8648417,20.413881 26.0384944,20.413881 C24.2116719,20.413881 22.7255964,21.8263599 22.7255964,23.5624422 L22.7255964,24.0868041 L21.1501758,24.0868041 C20.903051,26.0236449 19.3043437,27.5623148 17.2964547,27.791753 L17.2969299,29.4542239 L13.5577417,29.4580479 C13.766372,29.6310825 13.8680734,29.9064083 13.792035,30.1783882 C13.6584925,30.6530385 13.1490353,30.9341003 12.6519342,30.8069533 C12.0307956,30.6477805 11.6615341,30.0378573 11.8273928,29.444186 C12.0027564,28.8194449 12.5972816,28.4141041 13.2450337,28.420318 L13.2450337,28.4102801 L16.2542534,28.4064561 L16.2537782,26.773143 L16.7751164,26.773143 C18.6309286,26.773143 20.1412413,25.3329403 20.1412413,23.5624422 M28.7155213,28.7539594 L28.7155213,30.199898 L27.2760194,30.199898 C27.1833476,30.8107772 26.663435,31.2806475 26.0299401,31.2806475 C25.3964452,31.2806475 24.8765326,30.8107772 24.7838608,30.199898 L23.3457846,30.199898 L23.3457846,28.7544374 C22.7322498,28.6664861 22.259386,28.1411682 22.259386,27.4996973 C22.259386,26.8582263 22.7322498,26.3329084 23.3457846,26.2449571 L23.3457846,24.7994965 L24.7824351,24.7994965 C24.8684536,24.1814474 25.3912176,23.7039291 26.0299401,23.7039291 C26.6686627,23.7039291 27.1914267,24.1814474 27.2779203,24.7994965 L28.7155213,24.7994965 L28.7155213,26.2449571 C29.3271552,26.3348204 29.7985933,26.8596603 29.7985933,27.4996973 C29.7985933,28.1397342 29.3271552,28.6640961 28.7155213,28.7539594 M18.7601939,23.5117746 C18.7601939,24.6436697 17.6262713,25.4352315 16.2285904,25.4352315 L14.9577987,25.4352315 L14.9592244,27.1703579 L10.750499,27.1665339 L10.7514495,31.7768076 L6,31.7768076 L6,33 L46,33 L46,31.7768076 L43.1157685,31.7768076 L43.1157685,31.7748956 L41.1577797,31.7748956 L41.152552,27.1340301 L37.0635871,27.1378541 L37.0588347,25.4352315 L35.7005988,25.4352315 C34.3019675,25.4352315 33.1685201,24.6436697 33.1685201,23.5117746 C33.1685201,23.465409 33.1699458,21.7054269 33.1699458,21.7054269 L31.2932231,21.7087728 C30.4815132,19.649087 28.3372303,18 26.0185344,18 C23.7036403,18 21.4980515,19.6443071 20.6839654,21.6992129 L18.7573425,21.6992129 C18.7573425,21.6992129 18.7601939,23.4553711 18.7601939,23.5117746" id="Fill-9" fill="#FFFFFF"></path>
                <path d="M7,33.5343891 L7.04799737,33.5343891 C7.83563426,33.7669683 7.88411161,34.6171946 7.88411161,34.6171946 L7.88411161,35 L8.91701507,35 L8.91701507,34.399095 C8.91701507,34.399095 8.96597239,33.5900452 9.75216935,33.3687783 L9.80160665,33.3687783 C10.5892435,33.5900452 10.6377209,34.399095 10.6377209,34.399095 L10.6377209,35 L11.8381352,35 L11.8381352,34.399095 C11.8381352,34.399095 11.8885324,33.5900452 12.6747294,33.3687783 L12.7251266,33.3687783 C13.5118036,33.5900452 13.5602809,34.399095 13.5602809,34.399095 L13.5602809,35 L14.7947733,35 L14.7947733,34.399095 C14.7947733,34.399095 14.8432507,33.5900452 15.6304076,33.3687783 L15.6808048,33.3687783 C16.4674818,33.5900452 16.5154792,34.399095 16.5154792,34.399095 L16.5154792,35 L17.7178133,35 L17.7178133,34.399095 C17.7178133,34.399095 17.7667707,33.5900452 18.5539276,33.3687783 L18.6028849,33.3687783 C19.3905218,33.5900452 19.4394791,34.399095 19.4394791,34.399095 L19.4394791,35 L20.6907706,35 L20.6907706,34.399095 C20.6907706,34.399095 20.739248,33.5900452 21.5264049,33.3687783 L21.5763221,33.3687783 C22.3629991,33.5900452 22.4119564,34.399095 22.4119564,34.399095 L22.4119564,35 L23.6128507,35 L23.6128507,34.399095 C23.6128507,34.399095 23.662288,33.5900452 24.4489649,33.3687783 L24.4979222,33.3687783 C25.2860391,33.5900452 25.3345164,34.399095 25.3345164,34.399095 L25.3345164,35 L26.5690089,35 L26.5690089,34.399095 C26.5690089,34.399095 26.6184461,33.5900452 27.4051231,33.3687783 L27.4540804,33.3687783 C28.2412373,33.5900452 28.2897147,34.399095 28.2897147,34.399095 L28.2897147,35 L29.4915689,35 L29.4915689,34.399095 C29.4915689,34.399095 29.5410062,33.5900452 30.3281631,33.3687783 L30.3776004,33.3687783 C31.1637974,33.5900452 31.2132346,34.399095 31.2132346,34.399095 L31.2132346,35 L32.430448,35 L32.430448,34.399095 C32.430448,34.399095 32.4803653,33.5900452 33.2670422,33.3687783 L33.3164795,33.3687783 C34.1036364,33.5900452 34.1535537,34.399095 34.1535537,34.399095 L34.1535537,35 L35.4029253,35 L35.4029253,34.399095 C35.4029253,34.399095 35.4523626,33.5900452 36.2395195,33.3687783 L36.2884768,33.3687783 C37.0751538,33.5900452 37.1241111,34.399095 37.1241111,34.399095 L37.1241111,35 L38.3264453,35 L38.3264453,34.399095 C38.3264453,34.399095 38.3754026,33.5900452 39.1625595,33.3687783 L39.2115168,33.3687783 C39.9986738,33.5900452 40.0481111,34.399095 40.0481111,34.399095 L40.0481111,35 L41.2811636,35 L41.2811636,34.399095 C41.2811636,34.399095 41.3310808,33.5900452 42.1172778,33.3687783 L42.1671951,33.3687783 C42.953872,33.5900452 43.0033093,34.399095 43.0033093,34.399095 L43.0033093,35 L44.0352528,35 L44.0352528,34.6171946 C44.0352528,34.6171946 44.0842101,33.7669683 44.871367,33.5343891 L44.9212843,33.5343891 C44.9491228,33.5425339 44.9740814,33.5533937 45,33.5628959 L45,33 L7,33 L7,33.5343891 Z" id="Fill-11" fill="#FFFFFF"></path>
                <g id="Group-15">
                    <mask id="mask-2" fill="white">
                        <use xlink:href="#path-1"></use>
                    </mask>
                    <g id="Clip-14"></g>
                    <path d="M50.2272727,26.1688869 C50.2272727,26.1688869 50.2249091,27.5661164 49.712,29.8295426 L49.7134182,29.8295426 C48.9806909,33.065182 47.2004,38.076477 42.8749455,43.3411656 L42.8806182,36.3350508 L8.74214545,36.3350508 L8.74214545,36.6473951 L8.74214545,43.1105918 C4.54952727,37.9310016 2.79901818,33.0181164 2.07007273,29.8295426 L2.07149091,29.8295426 C1.55385455,27.5661164 1.54818182,26.1688869 1.54818182,26.1688869 L1.54818182,1.81078852 L50.2272727,1.81078852 L50.2272727,26.1688869 Z M36.1943636,49.8152967 C33.3693455,52.0288049 29.9784727,54.1757557 25.9012,56.138723 C21.7672,54.1477066 18.3361455,51.9670016 15.4865455,49.7187885 C15.4870182,49.5362311 15.4870182,49.4368705 15.4874909,49.4363951 C15.4874909,43.6863131 20.1230545,39.0239689 25.8411636,39.0239689 C31.5588,39.0239689 36.1943636,43.6863131 36.1943636,49.4363951 C36.1943636,49.4349689 36.1943636,49.5704607 36.1943636,49.8152967 L36.1943636,49.8152967 Z M0,0.304214754 L0,26.7541164 C0.000472727273,26.7983295 0.0633454545,31.5234279 3.30483636,37.718018 C6.27876364,43.4015426 12.6104727,51.5144115 25.9026182,57.9999525 C39.2056364,51.5120344 45.5293091,43.399641 48.4937818,37.7170672 C51.7258182,31.5234279 51.7759273,26.8002311 51.7759273,26.7531656 L51.7759273,0.304214754 L0,0.304214754 Z" id="Fill-13" fill="#FFFFFF" mask="url(#mask-2)"></path>
                </g>
                <path d="M22.2490104,45 L21.6201697,45 L20,45.8529599 L20.2171536,46.2106938 C20.3138549,46.1865054 20.6124411,46.0897518 20.8301602,46.0099724 C21.0478794,45.9318905 21.2978322,45.8109484 21.3781338,45.774878 L21.3781338,48.4619139 L20.4427898,48.4619139 L20.4427898,49 L23,49 L23,48.4619139 L22.2490104,48.4619139 L22.2490104,45 Z" id="Fill-16" fill="#FFFFFF"></path>
                <path d="M25.15811,46.7411628 C24.9382099,46.9123044 24.7432985,46.9833881 24.4970468,46.9833881 C24.056338,46.9833881 23.784189,46.7025304 23.784189,46.2563261 C23.784189,45.7823064 24.0695139,45.4740197 24.4970468,45.4740197 C24.9382099,45.4740197 25.2226261,45.7996909 25.2226261,46.3223875 C25.2226261,46.4823257 25.2094502,46.581611 25.15811,46.7411628 M24.5229441,45 C23.6542481,45 23,45.5400811 23,46.2671431 C23,46.9509368 23.5833712,47.4577941 24.35393,47.4577941 C24.5806452,47.4577941 24.7887324,47.4137531 25.0022717,47.308673 C24.9572921,47.4021634 24.8986824,47.5014487 24.8464334,47.5729187 C24.568378,47.9584702 24.0826897,48.2841414 23.5765561,48.4823257 C23.3889141,48.5592042 23.2530668,48.5978366 23.052249,48.6306741 L23.4275329,49 C24.0045434,48.8953062 24.5942753,48.5978366 25.0218083,48.2567124 C25.6569741,47.7494688 26,47.1158972 26,46.4270813 C26,45.6505698 25.5011358,45 24.5229441,45" id="Fill-18" fill="#FFFFFF"></path>
                <path d="M27.4324843,46.4509924 C27.2765178,46.4509924 27.2163294,46.4570992 27.014829,46.4798982 L27.1346825,45.5398473 L28.6493371,45.5398473 L28.7759944,45 L26.3731682,45 L26.1339846,47.0958779 C26.4993022,46.9912468 26.8285066,46.9448346 27.1566643,46.9448346 C27.724529,46.9448346 28.104501,47.1768957 28.104501,47.6243257 C28.104501,48.1637659 27.4848221,48.559084 26.6416609,48.559084 C26.4030007,48.559084 26.2533147,48.5411705 26,48.477659 L26.1716678,48.9535878 C26.4030007,48.9943003 26.4993022,49 26.7316818,49 C27.1938241,49 27.6564899,48.9185751 28.0144801,48.7736387 C28.6116539,48.5354707 29,48.0766412 29,47.5656997 C29,46.8691094 28.2981507,46.4509924 27.4324843,46.4509924" id="Fill-20" fill="#FFFFFF"></path>
                <path d="M30.4327577,46.4509924 C30.2762951,46.4509924 30.2166405,46.4570992 30.0151753,46.4798982 L30.1350078,45.5398473 L31.6493982,45.5398473 L31.7760335,45 L29.3736264,45 L29.1344846,47.0958779 C29.4997384,46.9912468 29.8288854,46.9448346 30.1569859,46.9448346 C30.7247514,46.9448346 31.104134,47.1768957 31.104134,47.6243257 C31.104134,48.1637659 30.4845631,48.559084 29.6415489,48.559084 C29.4034537,48.559084 29.2537938,48.5411705 29,48.477659 L29.1716379,48.9535878 C29.4034537,48.9943003 29.4997384,49 29.7315542,49 C30.1941392,49 30.6567242,48.9185751 31.014652,48.7736387 C31.6117216,48.5354707 32,48.0766412 32,47.5656997 C32,46.8691094 31.2982732,46.4509924 30.4327577,46.4509924" id="Fill-22" fill="#FFFFFF"></path>
                <path d="M98.0419379,29.1935766 C96.9307343,29.1935766 96.0537472,29.8094544 95.2345193,31.1739333 C95.2323997,31.1529494 95.2281605,31.1324901 95.2271007,31.1115062 L95.2297502,30.8854045 C95.2366389,30.7867801 95.2477668,30.6881557 95.2588948,30.590056 C95.2838002,30.3744463 95.3087055,30.1593612 95.333081,29.9437515 C95.3691143,29.6289928 95.4056775,29.3142341 95.4417108,29 L92,29.3478083 L92,29.9479482 L93.5647994,30.1997552 L93.7794095,31.6901376 L93.7794095,35.6770809 L93.5647994,37.1485778 L92.1960636,37.3998601 L92.1960636,38 L97.2200606,38 L97.2200606,37.3998601 L95.656321,37.1485778 L95.4417108,35.6770809 L95.4417108,35.213861 L95.4417108,33.9553509 L95.4417108,32.5583469 L95.4417108,32.1748659 L95.4417108,32.0164374 C95.4417108,31.9912567 95.4433005,31.9650268 95.4454201,31.9382723 C96.0118849,31.2442294 96.7717638,30.9939963 97.3573051,30.9939963 C97.7685087,30.9939963 98.1786525,31.1293425 98.5109008,31.2840989 L99,29.3289228 C98.5893263,29.2129867 98.3937926,29.1935766 98.0419379,29.1935766" id="Fill-24" fill="#FFFFFF"></path>
                <path d="M288.041938,29.1935766 C286.930734,29.1935766 286.053747,29.8094544 285.234519,31.1739333 C285.2324,31.1529494 285.22816,31.1324901 285.227101,31.1115062 L285.22975,30.8854045 C285.236639,30.7867801 285.247767,30.6881557 285.258895,30.590056 C285.2838,30.3744463 285.308706,30.1593612 285.333081,29.9437515 C285.369114,29.6289928 285.405678,29.3142341 285.441711,29 L282,29.3478083 L282,29.9479482 L283.564799,30.1997552 L283.77941,31.6901376 L283.77941,35.6770809 L283.564799,37.1485778 L282.196064,37.3998601 L282.196064,38 L287.220061,38 L287.220061,37.3998601 L285.656321,37.1485778 L285.441711,35.6770809 L285.441711,35.213861 L285.441711,33.9553509 L285.441711,32.5583469 L285.441711,32.1748659 L285.441711,32.0164374 C285.441711,31.9912567 285.443301,31.9650268 285.44542,31.9382723 C286.011885,31.2442294 286.771764,30.9939963 287.357305,30.9939963 C287.768509,30.9939963 288.178653,31.1293425 288.510901,31.2840989 L289,29.3289228 C288.589326,29.2129867 288.393793,29.1935766 288.041938,29.1935766" id="Fill-26" fill="#FFFFFF"></path>
                <polygon id="Fill-28" fill="#FFFFFF" points="65 18.4307947 66.3567982 18.1372517 66.5240747 16.284106 66.5240747 9.69701987 66.3567982 7.84387417 65 7.55033113 65 7 68.6170709 7 69.4715863 9.69701987 72.0002267 16.907947 74.5955056 9.67864238 75.3829291 7 79 7 79 7.55033113 77.6599747 7.84387417 77.4759253 9.69701987 77.4759253 16.284106 77.6599747 18.1372517 79 18.4307947 79 19 74.3783635 19 74.3783635 18.4307947 75.7179354 18.1372517 75.9024382 16.284106 75.9024382 8.24768212 73.0215653 16.284106 72.1679565 19 71.079526 19 70.1751449 16.284106 67.2774989 8.24768212 67.2774989 16.284106 67.4615484 18.1372517 68.8015737 18.4307947 68.8015737 19 65 19"></polygon>
                <path d="M80.9690177,8.06809405 C80.9690177,7.49183712 81.4063657,7 81.9536851,7 C82.4845088,7 82.9379296,7.4748614 82.9379296,8.08506978 C82.9379296,8.62737526 82.5314582,9.13572931 81.9536851,9.13572931 C81.4220154,9.13572931 80.9690177,8.71179507 80.9690177,8.06809405 L80.9690177,8.06809405 Z M80.1569208,18.4746702 L81.2502908,18.2544447 L81.4063657,16.966125 L81.4063657,13.474632 L81.2502908,12.1697955 L80,11.9491111 L80,11.4237813 L82.90663,11.1191359 L82.7501322,13.474632 L82.7501322,16.966125 L82.90663,18.2544447 L84,18.4746702 L84,19 L80.1569208,19 L80.1569208,18.4746702 Z" id="Fill-30" fill="#FFFFFF"></path>
                <path d="M90.9689093,16.8642833 L90.9689093,12.0380669 C90.441896,11.8425466 90.0275229,11.7450072 89.4434251,11.7450072 C87.6732926,11.7450072 86.6946993,13.0165508 86.6946993,15.0216264 C86.6946993,16.7989628 87.4480122,17.8749862 88.9164118,17.8749862 C89.5759429,17.8749862 90.2721713,17.6141454 90.9689093,16.8642833 M85,15.3645592 C85,12.8205892 86.8455657,11.027364 89.5188583,11.027364 C90.0458716,11.027364 90.4602446,11.0763544 90.9689093,11.1738939 L90.9689093,9.26635772 L90.7614679,8.01070286 L89.2553517,7.79929383 L89.2553517,7.29350105 L92.7762487,7 L92.5688073,9.26635772 L92.5688073,16.700982 L92.7762487,17.9403067 L94,18.1521571 L94,18.6575086 L90.9689093,19 L91.2512742,17.4512854 C90.3848114,18.4619883 89.5005097,19 88.2573904,19 C86.3557594,19 85,17.5814852 85,15.3645592" id="Fill-32" fill="#FFFFFF"></path>
                <path d="M99.9689093,16.8642833 L99.9689093,12.0380669 C99.441896,11.8425466 99.0275229,11.7450072 98.4434251,11.7450072 C96.6732926,11.7450072 95.6946993,13.0165508 95.6946993,15.0216264 C95.6946993,16.7989628 96.4480122,17.8749862 97.9164118,17.8749862 C98.5759429,17.8749862 99.2721713,17.6141454 99.9689093,16.8642833 M94,15.3645592 C94,12.8205892 95.8455657,11.027364 98.5188583,11.027364 C99.0458716,11.027364 99.4602446,11.0763544 99.9689093,11.1738939 L99.9689093,9.26635772 L99.7614679,8.01070286 L98.2553517,7.79929383 L98.2553517,7.29350105 L101.776249,7 L101.568807,9.26635772 L101.568807,16.700982 L101.776249,17.9403067 L103,18.1521571 L103,18.6575086 L99.9689093,19 L100.251274,17.4512854 C99.3848114,18.4619883 98.5005097,19 97.2573904,19 C95.3557594,19 94,17.5814852 94,15.3645592" id="Fill-34" fill="#FFFFFF"></path>
                <polygon id="Fill-36" fill="#FFFFFF" points="103.156075 18.479367 104.249445 18.2613008 104.422015 16.9856137 104.422015 9.33285379 104.249445 8.04035739 103 7.82274551 103 7.30211252 105.906207 7 105.749709 9.33285379 105.749709 16.9856137 105.921857 18.2613008 107 18.479367 107 19 103.156075 19"></polygon>
                <path d="M113.057196,13.1292001 L114.32211,12.9448658 C114.32211,11.4911154 113.633485,10.7368392 112.609867,10.7368392 C111.568113,10.7368392 110.842715,11.5095489 110.637689,13.1292001 L113.057196,13.1292001 Z M109,14.5829505 C109,11.7855522 110.433166,10 112.758976,10 C114.71302,10 116.071631,11.251979 115.997076,13.8650429 L110.61905,13.8650429 C110.61905,13.8650429 110.600915,14.1226128 110.600915,14.2700803 C110.600915,16.349571 111.62403,17.822253 113.596711,17.822253 C114.192143,17.822253 114.862129,17.6752837 115.512973,17.1965126 L115.885748,17.6932189 C114.824348,18.6502629 114.024394,19 112.684422,19 C110.46994,19 109,17.4172156 109,14.5829505 L109,14.5829505 Z" id="Fill-38" fill="#FFFFFF"></path>
                <path d="M122.387275,14.9567472 C122.387275,13.2773916 121.580416,12.1360477 120.35276,12.1360477 C119.600981,12.1360477 118.885924,12.4132186 118.225947,13.0982015 L118.225947,16.700982 L118.409053,18.1199382 C118.8497,18.2501379 119.160831,18.3154585 119.637206,18.3154585 C121.525831,18.3154585 122.387275,16.8152929 122.387275,14.9567472 M116.649446,18.6575086 L116.649446,9.26635772 L116.465843,8.01070286 L115,7.79929383 L115,7.29350105 L118.409053,7 L118.225947,9.26635772 L118.225947,12.3315679 C118.903788,11.5327154 119.894249,11.027364 121.012736,11.027364 C122.772344,11.027364 124,12.3642282 124,14.4350657 C124,16.9622642 122.295473,19 118.995589,19 C118.225947,19 117.694492,19 116.649446,18.6575086" id="Fill-40" fill="#FFFFFF"></path>
                <path d="M125.621715,16.1109564 L125.621715,12.5737203 L125.421034,11.1479975 L124,10.9068679 L124,10.3328692 L127.370149,10 L127.187713,12.5737203 L127.187713,15.6848438 C127.187713,16.9626803 127.770524,17.7402105 128.918397,17.7402105 C129.701888,17.7402105 130.411913,17.2589539 130.921749,16.6293099 L130.921749,12.5737203 L130.739806,11.1479975 L129.319264,10.9068679 L129.319264,10.3328692 L132.688428,10 L132.48824,12.5737203 L132.48824,16.3886816 L132.688428,17.7963572 L134,18.0369855 L134,18.6109842 L130.921749,18.9443547 L131.12243,17.2780037 C130.265963,18.4816465 129.501208,19 128.208372,19 C126.604901,19 125.621715,17.9627917 125.621715,16.1109564" id="Fill-42" fill="#FFFFFF"></path>
                <polygon id="Fill-44" fill="#FFFFFF" points="142.731844 21.776302 142.731844 21.1909589 144.56096 20.9155307 145.347271 19.7103577 146.134573 17.9715717 143.573118 12.0831877 142.823449 10.7405336 142 10.534079 142 10 146.005832 10 146.005832 10.534079 144.835277 10.7405336 145.274978 12.0831877 146.92039 16.0603519 148.457361 12.0831877 148.85943 10.7405336 147.707691 10.534079 147.707691 10 151 10 151 10.534079 150.067121 10.7405336 149.372414 12.0831877 145.384408 22"></polygon>
                <path d="M140.041938,10.1935766 C138.930734,10.1935766 138.053747,10.8094544 137.234519,12.1739333 C137.2324,12.1529494 137.22816,12.1324901 137.227101,12.1115062 L137.22975,11.8854045 C137.236639,11.7867801 137.247767,11.6881557 137.258895,11.590056 C137.2838,11.3744463 137.308706,11.1593612 137.333081,10.9437515 C137.369114,10.6289928 137.405678,10.3142341 137.441711,10 L134,10.3478083 L134,10.9479482 L135.564799,11.1997552 L135.77941,12.6901376 L135.77941,16.6770809 L135.564799,18.1485778 L134.196064,18.3998601 L134.196064,19 L139.220061,19 L139.220061,18.3998601 L137.656321,18.1485778 L137.441711,16.6770809 L137.441711,16.213861 L137.441711,14.9553509 L137.441711,13.5583469 L137.441711,13.1748659 L137.441711,13.0164374 C137.441711,12.9912567 137.443301,12.9650268 137.44542,12.9382723 C138.011885,12.2442294 138.771764,11.9939963 139.357305,11.9939963 C139.768509,11.9939963 140.178653,12.1293425 140.510901,12.2840989 L141,10.3289228 C140.589326,10.2129867 140.393793,10.1935766 140.041938,10.1935766" id="Fill-46" fill="#FFFFFF"></path>
                <polygon id="Fill-48" fill="#FFFFFF" points="154 18.4307947 155.173516 18.1372517 155.319078 16.284106 155.319078 9.69701987 155.173516 7.84387417 154 7.55033113 154 7 158 7 158 7.55033113 156.826091 7.84387417 156.680922 9.69701987 156.680922 16.284106 156.826091 18.1372517 158 18.4307947 158 19 154 19"></polygon>
                <path d="M160.181944,18.4034357 L161.456536,18.1535659 L161.657709,16.6923477 L161.657709,12.7303488 L161.456536,11.2498699 L160,11 L160,10.4034357 L163.205463,10.0577824 L163.005276,11.7881312 C163.75228,10.5767829 164.698979,10 165.937577,10 C167.504561,10 168.524235,11.0957834 168.524235,13 L168.524235,16.6923477 L168.707164,18.1535659 L170,18.4034357 L170,19 L165.719639,19 L165.719639,18.4034357 L166.757556,18.1535659 L166.9395,16.6923477 L166.9395,13.4612181 C166.9395,12.1728267 166.356689,11.3076523 165.209802,11.3076523 C164.517036,11.3076523 164.007199,11.5190005 163.205463,12.4612181 L163.205463,16.6923477 L163.406144,18.1535659 L164.444061,18.4034357 L164.444061,19 L160.181944,19 L160.181944,18.4034357 Z" id="Fill-50" fill="#FFFFFF"></path>
                <path d="M171.189668,18.4745098 L171.038551,16.3558824 L171.873297,16.3558824 L172.196094,17.7504902 C172.785145,18.0039216 173.240555,18.1490196 173.962221,18.1490196 C174.987664,18.1490196 175.632742,17.6598039 175.632742,16.8269608 C175.632742,15.7764706 174.588281,15.4686275 173.601388,15.1245098 C172.40478,14.6539216 171,14.2553922 171,12.6254902 C171,11.2495098 172.177589,10 174.189925,10 C175.044719,10 175.879979,10.1627451 176.71524,10.525 L176.905423,12.6436275 L176.069648,12.6436275 L175.652274,11.2132353 C175.119764,10.977451 174.569776,10.8509804 173.962221,10.8509804 C172.956309,10.8509804 172.386276,11.2495098 172.386276,12.0642157 C172.386276,13.0602941 173.449242,13.3681373 174.380108,13.7117647 C175.727833,14.2009804 177,14.5995098 177,16.2833333 C177,17.8044118 175.708815,19 173.791056,19 C173.164482,19 172.101516,18.8186275 171.189668,18.4745098" id="Fill-52" fill="#FFFFFF"></path>
                <path d="M178.539133,17.226509 L178.539133,12.005156 L177,12.005156 L177,11.4139924 L178.539133,11.1513023 L178.539133,9.26269002 L180.236399,9 L180.236399,11.3153169 L182.644733,11.3153169 L182.644733,12.005156 L180.236399,12.005156 L180.236399,16.6846831 C180.236399,17.5220909 180.591666,17.8999022 181.321966,17.8999022 C181.638233,17.8999022 182.170866,17.8176727 182.624967,17.5714286 L183,18.0968086 C182.012733,18.7537559 181.362034,19 180.4736,19 C179.506633,19 178.539133,18.5892968 178.539133,17.226509" id="Fill-54" fill="#FFFFFF"></path>
                <path d="M183.969018,8.06809405 C183.969018,7.49183712 184.406366,7 184.953685,7 C185.484509,7 185.937507,7.4748614 185.937507,8.08506978 C185.937507,8.62737526 185.531458,9.13572931 184.953685,9.13572931 C184.422015,9.13572931 183.969018,8.71179507 183.969018,8.06809405 L183.969018,8.06809405 Z M183.156075,18.4746702 L184.250291,18.2544447 L184.406366,16.9665838 L184.406366,13.474632 L184.250291,12.1697955 L183,11.9491111 L183,11.4237813 L185.90663,11.1191359 L185.750132,13.474632 L185.750132,16.9665838 L185.90663,18.2544447 L187,18.4746702 L187,19 L183.156075,19 L183.156075,18.4746702 Z" id="Fill-56" fill="#FFFFFF"></path>
                <path d="M189.539133,17.226509 L189.539133,12.005156 L188,12.005156 L188,11.4139924 L189.539133,11.1513023 L189.539133,9.26269002 L191.236399,9 L191.236399,11.3153169 L193.644733,11.3153169 L193.644733,12.005156 L191.236399,12.005156 L191.236399,16.6846831 C191.236399,17.5220909 191.591666,17.8999022 192.321966,17.8999022 C192.638233,17.8999022 193.170866,17.8176727 193.624967,17.5714286 L194,18.0968086 C193.012733,18.7537559 192.362034,19 191.4736,19 C190.506633,19 189.539133,18.5892968 189.539133,17.226509" id="Fill-58" fill="#FFFFFF"></path>
                <path d="M195.620729,16.1109564 L195.620729,12.5737203 L195.420541,11.1479975 L194,10.9068679 L194,10.3328692 L197.369163,10 L197.18722,12.5737203 L197.18722,15.6848438 C197.18722,16.9626803 197.770031,17.7402105 198.917903,17.7402105 C199.700902,17.7402105 200.41142,17.2589539 200.921256,16.6293099 L200.921256,12.5737203 L200.739313,11.1479975 L199.318771,10.9068679 L199.318771,10.3328692 L202.687935,10 L202.48824,12.5737203 L202.48824,16.3886816 L202.687935,17.7963572 L204,18.0369855 L204,18.6109842 L200.921256,18.9443547 L201.121444,17.2775024 C200.26547,18.4816465 199.500715,19 198.207386,19 C196.604408,19 195.620729,17.9627917 195.620729,16.1109564" id="Fill-60" fill="#FFFFFF"></path>
                <path d="M204.539133,17.226509 L204.539133,12.005156 L203,12.005156 L203,11.4139924 L204.539133,11.1513023 L204.539133,9.26269002 L206.236399,9 L206.236399,11.3153169 L208.644733,11.3153169 L208.644733,12.005156 L206.236399,12.005156 L206.236399,16.6846831 C206.236399,17.5220909 206.591666,17.8999022 207.321966,17.8999022 C207.638233,17.8999022 208.170866,17.8176727 208.624967,17.5714286 L209,18.0968086 C208.012733,18.7537559 207.362034,19 206.4736,19 C205.506633,19 204.539133,18.5892968 204.539133,17.226509" id="Fill-62" fill="#FFFFFF"></path>
                <path d="M214.057196,13.1292001 L215.322614,12.9448658 C215.322614,11.4911154 214.634493,10.7368392 213.610874,10.7368392 C212.568113,10.7368392 211.842715,11.5095489 211.637689,13.1292001 L214.057196,13.1292001 Z M210,14.5829505 C210,11.7855522 211.433166,10 213.758976,10 C215.71302,10 217.071631,11.251979 216.997076,13.8650429 L211.61905,13.8650429 C211.61905,13.8650429 211.600915,14.1226128 211.600915,14.2700803 C211.600915,16.349571 212.62403,17.822253 214.596711,17.822253 C215.192143,17.822253 215.862129,17.6752837 216.513477,17.1965126 L216.885748,17.6932189 C215.825356,18.6502629 215.024394,19 213.684422,19 C211.46994,19 210,17.4172156 210,14.5829505 L210,14.5829505 Z" id="Fill-64" fill="#FFFFFF"></path>
                <path d="M225.487076,16.7820046 C226.101447,15.8655309 226.454748,14.6374462 226.454748,13.2074099 C226.454748,11.9242474 226.176039,11.1179292 225.337893,11.1179292 C224.70437,11.1179292 224.183239,11.4111809 223.643459,12.1445584 C222.973144,13.0243136 222.582043,14.619087 222.582043,15.956831 C222.582043,17.1849156 222.955,17.9182931 223.71805,17.9182931 C224.388365,17.9182931 224.984088,17.5337413 225.487076,16.7820046 M221,16.3235197 C221,14.1238836 221.744906,12.3276546 223.494276,10.9710552 C224.201886,10.4212703 225.22651,10 225.990064,10 C227.255094,10 228,10.9343368 228,12.8223619 C228,14.5089315 227.460724,16.1404234 226.362013,17.2583526 C225.337893,18.3584188 224.127799,19 222.955,19 C221.76305,19 221,18.1013893 221,16.3235197" id="Fill-66" fill="#FFFFFF"></path>
                <path d="M225,23.8758459 L225.306002,22.3529213 C225.805109,22.5657568 226.3526,22.7249041 226.819886,22.7249041 C227.238786,22.7249041 227.560481,22.5475412 227.80197,22.1583014 C228.027331,21.7863185 228.204743,21.2729247 228.332897,20.5821678 L229.81496,12.5068802 L228.381718,12.5068802 L228.381718,11.7456576 L229.960115,11.7456576 L230.008064,11.5155651 C230.346323,9.83301376 230.716839,8.85943492 231.521948,8.04452402 C232.19803,7.35424656 233.051959,7 233.711477,7 C234.11425,7 234.435944,7.05272953 235,7.17736296 L234.678305,8.80622603 C234.001351,8.46971577 233.309141,8.27509587 232.858419,8.27509587 C232.552417,8.27509587 232.214158,8.38103429 231.892463,8.77075344 C231.538076,9.19546582 231.312279,10.04537 231.232074,11.7456576 L232.906804,11.7456576 L232.906804,12.5068802 L231.119175,12.5068802 L229.798396,19.8564178 C229.573035,21.0778254 229.041672,22.1583014 228.269256,22.9017877 C227.527789,23.6280171 226.771065,24 225.965956,24 C225.773288,24 225.289874,23.9645274 225,23.8758459" id="Fill-68" fill="#FFFFFF"></path>
                <polygon id="Fill-70" fill="#FFFFFF" points="65 37.4307947 66.1743011 37.1372517 66.319078 35.284106 66.319078 28.6970199 66.1743011 26.8438742 65 26.5503311 65 26 69 26 69 26.5503311 67.8264836 26.8438742 67.6817067 28.6970199 67.6817067 35.284106 67.8264836 37.1372517 69 37.4307947 69 38 65 38"></polygon>
                <path d="M70.1829118,37.4034357 L71.4573781,37.1535659 L71.6575457,35.6923477 L71.6575457,31.7303488 L71.4573781,30.2498699 L70,30 L70,29.4034357 L73.2061332,29.0577824 L73.0059656,30.7881312 C73.7528965,29.5767829 74.699502,29 75.9379776,29 C77.504807,29 78.52438,30.0957834 78.52438,32 L78.52438,35.6923477 L78.7063058,37.1535659 L80,37.4034357 L80,38 L75.7190751,38 L75.7190751,37.4034357 L76.7578761,37.1535659 L76.9398018,35.6923477 L76.9398018,32.4612181 C76.9398018,31.1728267 76.3570478,30.3076523 75.2092886,30.3076523 C74.5175763,30.3076523 74.0077898,30.5190005 73.2061332,31.4612181 L73.2061332,35.6923477 L73.4063008,37.1535659 L74.4446088,37.4034357 L74.4446088,38 L70.1829118,38 L70.1829118,37.4034357 Z" id="Fill-72" fill="#FFFFFF"></path>
                <path d="M80.5394069,36.226509 L80.5394069,31.005156 L79,31.005156 L79,30.4139924 L80.5394069,30.1513023 L80.5394069,28.26269 L82.2369757,28 L82.2369757,30.3153169 L84.6457387,30.3153169 L84.6457387,31.005156 L82.2369757,31.005156 L82.2369757,35.6846831 C82.2369757,36.5220909 82.5923056,36.8999022 83.3227358,36.8999022 C83.6379909,36.8999022 84.171253,36.8176727 84.6248998,36.5714286 L85,37.0968086 C84.0136254,37.7537559 83.3617419,38 82.4736842,38 C81.5070799,38 80.5394069,37.5892968 80.5394069,36.226509" id="Fill-74" fill="#FFFFFF"></path>
                <path d="M89.0569034,32.1292001 L90.3222302,31.9448658 C90.3222302,30.4911154 89.6341584,29.7368392 88.6106138,29.7368392 C87.5684319,29.7368392 86.8425817,30.5095489 86.6380742,32.1292001 L89.0569034,32.1292001 Z M85,33.5829505 C85,30.7855522 86.4330631,29 88.7597129,29 C90.7136151,29 92.071625,30.251979 91.9970755,32.8650429 L86.6189332,32.8650429 C86.6189332,32.8650429 86.6007995,33.1226128 86.6007995,33.2700803 C86.6007995,35.349571 87.6238403,36.822253 89.5963799,36.822253 C90.1917685,36.822253 90.8617067,36.6752837 91.5130074,36.1965126 L91.8852512,36.6932189 C90.8249356,37.6502629 90.0240322,38 88.6851633,38 C86.4708416,38 85,36.4172156 85,33.5829505 L85,33.5829505 Z" id="Fill-76" fill="#FFFFFF"></path>
                <path d="M99.1819437,37.4034357 L100.456536,37.1535659 L100.657709,35.6923477 L100.657709,31.7303488 L100.456536,30.2498699 L99,30 L99,29.4034357 L102.205463,29.0577824 L102.005276,30.7881312 C102.75228,29.5767829 103.698979,29 104.937577,29 C106.504561,29 107.524235,30.0957834 107.524235,32 L107.524235,35.6923477 L107.707164,37.1535659 L109,37.4034357 L109,38 L104.719639,38 L104.719639,37.4034357 L105.757556,37.1535659 L105.9395,35.6923477 L105.9395,32.4612181 C105.9395,31.1728267 105.356689,30.3076523 104.209802,30.3076523 C103.517036,30.3076523 103.007199,30.5190005 102.205463,31.4612181 L102.205463,35.6923477 L102.406144,37.1535659 L103.444061,37.4034357 L103.444061,38 L99.1819437,38 L99.1819437,37.4034357 Z" id="Fill-78" fill="#FFFFFF"></path>
                <path d="M113.267302,35.4492849 L113.267302,33.6822292 C112.271933,33.6822292 111.56376,33.8277166 111.108082,34.1374322 C110.65286,34.4106526 110.416803,34.8481013 110.416803,35.4127897 C110.416803,36.1234588 110.872024,36.7063949 111.530429,36.7063949 C112.087013,36.7063949 112.761855,36.2506987 113.267302,35.4492849 M109,35.7954956 C109,34.9935887 109.320527,34.3199079 109.995369,33.7912214 C110.65286,33.2630281 111.732242,32.9898077 113.267302,32.9898077 L113.267302,32.0059181 C113.267302,30.8582936 112.626704,30.1841197 111.598004,30.1841197 C110.973844,30.1841197 110.349227,30.4573401 109.792642,31.003781 L109.371209,30.5120829 C110.13052,29.5829361 111.15922,29 112.356859,29 C113.706086,29 114.684561,29.7831662 114.684561,31.5867171 L114.684561,35.4310373 L114.869937,36.8158803 L116,37.0521124 L116,37.6172941 L113.23397,37.9452573 L113.537604,35.9414762 C112.913443,37.1803386 112.103451,38 110.956493,38 C109.843324,38 109,37.1803386 109,35.7954956" id="Fill-80" fill="#FFFFFF"></path>
                <path d="M118.540201,36.226509 L118.540201,31.005156 L117,31.005156 L117,30.4139924 L118.540201,30.1513023 L118.540201,28.26269 L120.236933,28 L120.236933,30.3153169 L122.644733,30.3153169 L122.644733,31.005156 L120.236933,31.005156 L120.236933,35.6846831 C120.236933,36.5220909 120.5922,36.8999022 121.3225,36.8999022 C121.638233,36.8999022 122.171401,36.8176727 122.624967,36.5714286 L123,37.0968086 C122.013267,37.7537559 121.362034,38 120.474134,38 C119.506633,38 118.540201,37.5892968 118.540201,36.226509" id="Fill-82" fill="#FFFFFF"></path>
                <path d="M122.969018,27.0680941 C122.969018,26.4918371 123.406366,26 123.953685,26 C124.484509,26 124.93793,26.4748614 124.93793,27.0850698 C124.93793,27.6273753 124.531458,28.1357293 123.953685,28.1357293 C123.422015,28.1357293 122.969018,27.7117951 122.969018,27.0680941 L122.969018,27.0680941 Z M122.156921,37.4746702 L123.250291,37.2544447 L123.406366,35.9665838 L123.406366,32.474632 L123.250291,31.1697955 L122,30.9491111 L122,30.4237813 L124.90663,30.1191359 L124.750132,32.474632 L124.750132,35.9665838 L124.90663,37.2544447 L126,37.4746702 L126,38 L122.156921,38 L122.156921,37.4746702 Z" id="Fill-84" fill="#FFFFFF"></path>
                <path d="M133.469384,33.4541044 C133.469384,31.0164287 132.78393,29.7700535 131.523956,29.7700535 C130.248443,29.7700535 129.546587,30.9246375 129.546587,33.4724626 C129.546587,35.9652131 130.232472,37.2115883 131.476475,37.2115883 C132.751557,37.2115883 133.469384,36.0019295 133.469384,33.4541044 M128,33.6009703 C128,30.961354 129.243572,29 131.603379,29 C133.644632,29 135,30.5763273 135,33.4357462 C135,36.2217322 133.549238,38 131.428131,38 C129.38731,38 128,36.3318816 128,33.6009703" id="Fill-86" fill="#FFFFFF"></path>
                <path d="M136.181944,37.4034357 L137.456536,37.1535659 L137.657709,35.6923477 L137.657709,31.7303488 L137.456536,30.2498699 L136,30 L136,29.4034357 L139.205463,29.0577824 L139.005276,30.7881312 C139.75228,29.5767829 140.698979,29 141.937577,29 C143.504561,29 144.524235,30.0957834 144.524235,32 L144.524235,35.6923477 L144.707164,37.1535659 L146,37.4034357 L146,38 L141.719639,38 L141.719639,37.4034357 L142.757556,37.1535659 L142.9395,35.6923477 L142.9395,32.4612181 C142.9395,31.1728267 142.356689,30.3076523 141.209802,30.3076523 C140.517036,30.3076523 140.007199,30.5190005 139.205463,31.4612181 L139.205463,35.6923477 L139.406144,37.1535659 L140.444061,37.4034357 L140.444061,38 L136.181944,38 L136.181944,37.4034357 Z" id="Fill-88" fill="#FFFFFF"></path>
                <path d="M151.267758,35.4492849 L151.267758,33.6822292 C150.272389,33.6822292 149.564216,33.8277166 149.108538,34.1374322 C148.653317,34.4106526 148.417259,34.8481013 148.417259,35.4127897 C148.417259,36.1234588 148.872481,36.7063949 149.529972,36.7063949 C150.08747,36.7063949 150.761398,36.2506987 151.267758,35.4492849 M147,35.7954956 C147,34.9935887 147.320984,34.3199079 147.995369,33.7912214 C148.653317,33.2630281 149.732698,32.9898077 151.267758,32.9898077 L151.267758,32.0059181 C151.267758,30.8582936 150.627161,30.1841197 149.597547,30.1841197 C148.973844,30.1841197 148.349684,30.4573401 147.793099,31.003781 L147.371209,30.5120829 C148.130063,29.5829361 149.158763,29 150.356859,29 C151.706542,29 152.684561,29.7831662 152.684561,31.5867171 L152.684561,35.4310373 L152.870393,36.8158803 L154,37.0521124 L154,37.6172941 L151.233514,37.9452573 L151.537147,35.9414762 C150.913443,37.1803386 150.103907,38 148.95695,38 C147.843324,38 147,37.1803386 147,35.7954956" id="Fill-90" fill="#FFFFFF"></path>
                <polygon id="Fill-92" fill="#FFFFFF" points="155.156921 37.479367 156.250291 37.2613008 156.422015 35.986068 156.422015 28.3328538 156.250291 27.0403574 155 26.8227455 155 26.3021125 157.90663 26 157.750555 28.3328538 157.750555 35.986068 157.92228 37.2613008 159 37.479367 159 38 155.156921 38"></polygon>
                <path d="M163.203204,37.4310606 L163.034325,34.8103924 L163.896568,34.8103924 L164.234325,36.6208238 C164.809611,36.896659 165.333181,37.1211544 166.026087,37.1211544 C167.56476,37.1211544 168.681007,36.3622574 168.681007,35.0694255 C168.681007,33.6207071 167.328146,33.0863055 166.026087,32.5859749 C164.420595,31.9656956 163,31.3104119 163,29.3277585 C163,27.5864027 164.302059,26 166.82151,26 C167.683753,26 168.748741,26.2417642 169.661327,26.5862082 L169.847597,29.1896076 L169.002288,29.1896076 L168.630206,27.3451052 C168.105721,27.0174633 167.294737,26.8275057 166.787185,26.8275057 C165.113959,26.8275057 164.285126,27.7758936 164.285126,28.7583525 C164.285126,30.1552643 165.46865,30.5519816 166.652632,31.0345766 C168.376659,31.741667 170,32.4828284 170,34.6036327 C170,36.6553615 168.376659,38 165.941876,38 C165.113959,38 164.403204,37.9141224 163.203204,37.4310606" id="Fill-94" fill="#FFFFFF"></path>
                <path d="M172.539407,36.226509 L172.539407,31.005156 L171,31.005156 L171,30.4139924 L172.539407,30.1513023 L172.539407,28.26269 L174.236976,28 L174.236976,30.3153169 L176.64467,30.3153169 L176.64467,31.005156 L174.236976,31.005156 L174.236976,35.6846831 C174.236976,36.5220909 174.592306,36.8999022 175.322736,36.8999022 C175.637991,36.8999022 176.171253,36.8176727 176.6249,36.5714286 L177,37.0968086 C176.013091,37.7537559 175.361742,38 174.473684,38 C173.50708,38 172.539407,37.5892968 172.539407,36.226509" id="Fill-96" fill="#FFFFFF"></path>
                <path d="M178.620729,35.1109564 L178.620729,31.5737203 L178.420541,30.1479975 L177,29.9068679 L177,29.3328692 L180.369163,29 L180.18722,31.5737203 L180.18722,34.6848438 C180.18722,35.9626803 180.770031,36.7402105 181.917903,36.7402105 C182.700902,36.7402105 183.41142,36.2589539 183.921256,35.6293099 L183.921256,31.5737203 L183.739313,30.1479975 L182.318771,29.9068679 L182.318771,29.3328692 L185.687935,29 L185.48824,31.5737203 L185.48824,35.3886816 L185.687935,36.7963572 L187,37.0369855 L187,37.6109842 L183.921256,37.9443547 L184.121444,36.2775024 C183.26547,37.4816465 182.500715,38 181.207386,38 C179.604408,38 178.620729,36.9627917 178.620729,35.1109564" id="Fill-98" fill="#FFFFFF"></path>
                <path d="M192.968909,35.8642833 L192.968909,31.0380669 C192.440877,30.8425466 192.027523,30.7445658 191.443425,30.7445658 C189.673293,30.7445658 188.694699,32.0165508 188.694699,34.0216264 C188.694699,35.7989628 189.448012,36.8749862 190.916412,36.8749862 C191.574924,36.8749862 192.271662,36.6141454 192.968909,35.8642833 M187,34.3645592 C187,31.8205892 188.845566,30.027364 191.518858,30.027364 C192.045872,30.027364 192.460245,30.0763544 192.968909,30.1738939 L192.968909,28.2663577 L192.761468,27.0107029 L191.255352,26.7992938 L191.255352,26.293501 L194.776249,26 L194.568807,28.2663577 L194.568807,35.7014234 L194.776249,36.9403067 L196,37.1521571 L196,37.6575086 L192.968909,38 L193.251274,36.4512854 C192.384811,37.4619883 191.49949,38 190.25739,38 C188.355759,38 187,36.5814852 187,34.3645592" id="Fill-100" fill="#FFFFFF"></path>
                <path d="M196.969018,27.0680941 C196.969018,26.4918371 197.406366,26 197.953685,26 C198.484509,26 198.937507,26.4748614 198.937507,27.0850698 C198.937507,27.6273753 198.531458,28.1357293 197.953685,28.1357293 C197.422015,28.1357293 196.969018,27.7117951 196.969018,27.0680941 L196.969018,27.0680941 Z M196.156075,37.4746702 L197.250291,37.2544447 L197.406366,35.9665838 L197.406366,32.474632 L197.250291,31.1697955 L196,30.9491111 L196,30.4237813 L198.90663,30.1191359 L198.750132,32.474632 L198.750132,35.9665838 L198.90663,37.2544447 L200,37.4746702 L200,38 L196.156075,38 L196.156075,37.4746702 Z" id="Fill-102" fill="#FFFFFF"></path>
                <path d="M205.057196,32.1292001 L206.322614,31.9448658 C206.322614,30.4911154 205.634493,29.7368392 204.610874,29.7368392 C203.568113,29.7368392 202.842715,30.5095489 202.637689,32.1292001 L205.057196,32.1292001 Z M201,33.5829505 C201,30.7855522 202.433166,29 204.758976,29 C206.71302,29 208.071631,30.251979 207.997076,32.8650429 L202.61905,32.8650429 C202.61905,32.8650429 202.600915,33.1226128 202.600915,33.2700803 C202.600915,35.349571 203.62403,36.822253 205.596711,36.822253 C206.192143,36.822253 206.862129,36.6752837 207.513477,36.1965126 L207.885748,36.6932189 C206.825356,37.6502629 206.024394,38 204.685429,38 C202.46994,38 201,36.4172156 201,33.5829505 L201,33.5829505 Z" id="Fill-104" fill="#FFFFFF"></path>
                <path d="M209.189668,37.4745098 L209.037522,35.3558824 L209.873297,35.3558824 L210.196094,36.7504902 C210.785145,37.0039216 211.240555,37.1490196 211.962221,37.1490196 C212.987664,37.1490196 213.632742,36.6598039 213.632742,35.8269608 C213.632742,34.7764706 212.588281,34.4686275 211.601388,34.1245098 C210.40478,33.6539216 209,33.2553922 209,31.6254902 C209,30.2495098 210.177589,29 212.189925,29 C213.044719,29 213.879979,29.1627451 214.71524,29.525 L214.905423,31.6436275 L214.069648,31.6436275 L213.652274,30.2132353 C213.119764,29.977451 212.569776,29.8509804 211.962221,29.8509804 C210.955281,29.8509804 210.386276,30.2495098 210.386276,31.0642157 C210.386276,32.0602941 211.449242,32.3681373 212.380108,32.7117647 C213.727833,33.2009804 215,33.5995098 215,35.2833333 C215,36.8044118 213.708815,38 211.791056,38 C211.164482,38 210.101516,37.8186275 209.189668,37.4745098" id="Fill-106" fill="#FFFFFF"></path>
                <path d="M223.267302,35.4492849 L223.267302,33.6822292 C222.271933,33.6822292 221.56376,33.8277166 221.108082,34.1374322 C220.65286,34.4106526 220.416803,34.8481013 220.416803,35.4127897 C220.416803,36.1234588 220.872024,36.7063949 221.530429,36.7063949 C222.087013,36.7063949 222.761855,36.2506987 223.267302,35.4492849 M219,35.7954956 C219,34.9935887 219.320527,34.3199079 219.995369,33.7912214 C220.65286,33.2630281 221.732242,32.9898077 223.267302,32.9898077 L223.267302,32.0059181 C223.267302,30.8582936 222.626704,30.1841197 221.597091,30.1841197 C220.973387,30.1841197 220.349227,30.4573401 219.792642,31.003781 L219.371209,30.5120829 C220.129607,29.5829361 221.15922,29 222.356402,29 C223.706086,29 224.684104,29.7831662 224.684104,31.5867171 L224.684104,35.4310373 L224.869937,36.8158803 L226,37.0521124 L226,37.6172941 L223.23397,37.9452573 L223.537604,35.9414762 C222.913443,37.1803386 222.103451,38 220.956493,38 C219.843324,38 219,37.1803386 219,35.7954956" id="Fill-108" fill="#FFFFFF"></path>
                <path d="M228.539133,36.226509 L228.539133,31.005156 L227,31.005156 L227,30.4139924 L228.539133,30.1513023 L228.539133,28.26269 L230.236399,28 L230.236399,30.3153169 L232.644733,30.3153169 L232.644733,31.005156 L230.236399,31.005156 L230.236399,35.6846831 C230.236399,36.5220909 230.591666,36.8999022 231.321966,36.8999022 C231.638233,36.8999022 232.170866,36.8176727 232.624967,36.5714286 L233,37.0968086 C232.012733,37.7537559 231.362034,38 230.4736,38 C229.506633,38 228.539133,37.5892968 228.539133,36.226509" id="Fill-110" fill="#FFFFFF"></path>
                <polygon id="Fill-112" fill="#FFFFFF" points="236 37.4307947 237.356798 37.1372517 237.524075 35.284106 237.524075 28.6970199 237.356798 26.8438742 236 26.5503311 236 26 239.617071 26 240.471133 28.6970199 242.999773 35.907947 245.595506 28.6786424 246.382929 26 250 26 250 26.5503311 248.659975 26.8438742 248.476379 28.6970199 248.476379 35.284106 248.659975 37.1372517 250 37.4307947 250 38 245.37791 38 245.37791 37.4307947 246.717935 37.1372517 246.901532 35.284106 246.901532 27.2476821 244.021565 35.284106 243.167956 38 242.078619 38 241.174238 35.284106 238.277499 27.2476821 238.277499 35.284106 238.461548 37.1372517 239.801574 37.4307947 239.801574 38 236 38"></polygon>
                <path d="M256.469384,33.4541044 C256.469384,31.0164287 255.78393,29.7700535 254.524388,29.7700535 C253.248443,29.7700535 252.546587,30.9246375 252.546587,33.4724626 C252.546587,35.9652131 253.232472,37.2115883 254.476475,37.2115883 C255.751557,37.2115883 256.469384,36.0019295 256.469384,33.4541044 M251,33.6009703 C251,30.961354 252.243572,29 254.604242,29 C256.645064,29 258,30.5763273 258,33.4357462 C258,36.2217322 256.549238,38 254.428131,38 C252.38731,38 251,36.3318816 251,33.6009703" id="Fill-114" fill="#FFFFFF"></path>
                <path d="M260.181944,37.4034357 L261.457522,37.1535659 L261.657709,35.6923477 L261.657709,31.7303488 L261.457522,30.2498699 L260,30 L260,29.4034357 L263.205956,29.0577824 L263.005276,30.7881312 C263.75228,29.5767829 264.699965,29 265.938563,29 C267.504561,29 268.524728,30.0957834 268.524728,32 L268.524728,35.6923477 L268.707164,37.1535659 L270,37.4034357 L270,38 L265.719639,38 L265.719639,37.4034357 L266.757556,37.1535659 L266.940486,35.6923477 L266.940486,32.4612181 C266.940486,31.1728267 266.357182,30.3076523 265.209802,30.3076523 C264.517036,30.3076523 264.007199,30.5190005 263.205956,31.4612181 L263.205956,35.6923477 L263.406144,37.1535659 L264.445047,37.4034357 L264.445047,38 L260.181944,38 L260.181944,37.4034357 Z" id="Fill-116" fill="#FFFFFF"></path>
                <path d="M270.539133,36.226509 L270.539133,31.005156 L269,31.005156 L269,30.4139924 L270.539133,30.1513023 L270.539133,28.26269 L272.236399,28 L272.236399,30.3153169 L274.644733,30.3153169 L274.644733,31.005156 L272.236399,31.005156 L272.236399,35.6846831 C272.236399,36.5220909 272.591666,36.8999022 273.321966,36.8999022 C273.638233,36.8999022 274.170866,36.8176727 274.624967,36.5714286 L275,37.0968086 C274.012733,37.7537559 273.362034,38 272.4736,38 C271.506633,38 270.539133,37.5892968 270.539133,36.226509" id="Fill-118" fill="#FFFFFF"></path>
                <path d="M279.057196,32.1292001 L280.322614,31.9448658 C280.322614,30.4911154 279.634493,29.7368392 278.610874,29.7368392 C277.568113,29.7368392 276.842715,30.5095489 276.637689,32.1292001 L279.057196,32.1292001 Z M275,33.5829505 C275,30.7855522 276.433166,29 278.758976,29 C280.71302,29 282.071631,30.251979 281.997076,32.8650429 L276.61905,32.8650429 C276.61905,32.8650429 276.600915,33.1226128 276.600915,33.2700803 C276.600915,35.349571 277.62403,36.822253 279.596711,36.822253 C280.192143,36.822253 280.862129,36.6752837 281.513477,36.1965126 L281.885748,36.6932189 C280.825356,37.6502629 280.024394,38 278.684422,38 C276.46994,38 275,36.4172156 275,33.5829505 L275,33.5829505 Z" id="Fill-120" fill="#FFFFFF"></path>
                <path d="M293.057196,32.1292001 L294.322614,31.9448658 C294.322614,30.4911154 293.634493,29.7368392 292.610874,29.7368392 C291.568113,29.7368392 290.842715,30.5095489 290.637689,32.1292001 L293.057196,32.1292001 Z M289,33.5829505 C289,30.7855522 290.433166,29 292.758976,29 C294.71302,29 296.071631,30.251979 295.997076,32.8650429 L290.61905,32.8650429 C290.61905,32.8650429 290.600915,33.1226128 290.600915,33.2700803 C290.600915,35.349571 291.62403,36.822253 293.596711,36.822253 C294.192143,36.822253 294.862129,36.6752837 295.513477,36.1965126 L295.885748,36.6932189 C294.825356,37.6502629 294.024394,38 292.684422,38 C290.46994,38 289,36.4172156 289,33.5829505 L289,33.5829505 Z" id="Fill-122" fill="#FFFFFF"></path>
                <polygon id="Fill-124" fill="#FFFFFF" points="296.731844 41.776302 296.731844 41.1909589 298.56096 40.9155307 299.347271 39.7103577 300.134573 37.9715717 297.573118 32.0831877 296.823449 30.7405336 296 30.534079 296 30 300.005832 30 300.005832 30.534079 298.835277 30.7405336 299.273988 32.0831877 300.92039 36.0603519 302.456866 32.0831877 302.85943 30.7405336 301.706701 30.534079 301.706701 30 305 30 305 30.534079 304.067121 30.7405336 303.371424 32.0831877 299.384408 42"></polygon>
            </g>
        </g>
    </g>
</svg>