<?xml version="1.0" encoding="UTF-8" standalone="no"?>
<svg width="306px" height="58px" viewBox="0 0 306 58" version="1.1" xmlns="http://www.w3.org/2000/svg" xmlns:xlink="http://www.w3.org/1999/xlink">
    <!-- Generator: Sketch 47.1 (45422) - http://www.bohemiancoding.com/sketch -->
    <title>miis-logo</title>
    <desc>Created with Sketch.</desc>
    <defs></defs>
    <g id="Page-1" stroke="none" stroke-width="1" fill="none" fill-rule="evenodd">
        <g id="miis-logo" fill="#FFFFFF">
            <g>
                <g id="Group">
                    <path d="M6.38801626,13.2914309 L8.5439187,13.2914309 C8.57126829,14.0209106 8.65708943,14.7154959 8.79336585,15.3629268 L6.94915447,15.3629268 C6.64689431,14.7244553 6.45073171,14.0275122 6.38801626,13.2914309 Z M6.94915447,10.1863089 L8.79289431,10.1863089 C8.65708943,10.8332683 8.57126829,11.5278537 8.5439187,12.2573333 L6.38801626,12.2573333 C6.45073171,11.521252 6.64689431,10.8247805 6.94915447,10.1863089 Z M9.98401626,7.22170732 C9.61573984,7.75455285 9.30546341,8.40858537 9.06639024,9.15221138 L7.5715935,9.15221138 C8.19403252,8.31852033 9.02206504,7.64845528 9.98401626,7.22170732 Z M11.9187642,6.82938211 L11.9187642,9.15221138 L10.1509431,9.15221138 C10.5970244,7.93656911 11.2453984,7.11278049 11.9187642,6.82938211 Z M11.9187642,12.2573333 L9.57707317,12.2573333 C9.60725203,11.5052195 9.70156098,10.8111057 9.84585366,10.1863089 L11.9187642,10.1863089 L11.9187642,12.2573333 Z M11.9187642,15.3629268 L9.8463252,15.3629268 C9.70156098,14.7381301 9.60725203,14.0440163 9.57707317,13.2914309 L11.9187642,13.2914309 L11.9187642,15.3629268 Z M11.9187642,18.7193821 C11.2453984,18.4364553 10.5970244,17.6126667 10.1514146,16.3970244 L11.9187642,16.3970244 L11.9187642,18.7193821 Z M7.57206504,16.3970244 L9.06639024,16.3970244 C9.30546341,17.1406504 9.61573984,17.7946829 9.98401626,18.3270569 C9.02206504,17.9007805 8.19450407,17.2307154 7.57206504,16.3970244 Z M12.9533333,16.3970244 L14.7206829,16.3970244 C14.2746016,17.6121951 13.6262276,18.4355122 12.9533333,18.7193821 L12.9533333,16.3970244 Z M12.9533333,13.2914309 L15.2950244,13.2914309 C15.2648455,14.0440163 15.170065,14.7381301 15.0257724,15.3629268 L12.9533333,15.3629268 L12.9533333,13.2914309 Z M12.9533333,10.1863089 L15.0262439,10.1863089 C15.1705366,10.8111057 15.2648455,11.5052195 15.2950244,12.2573333 L12.9533333,12.2573333 L12.9533333,10.1863089 Z M12.9533333,6.82985366 C13.6266992,7.11325203 14.2746016,7.93704065 14.7206829,9.15221138 L12.9533333,9.15221138 L12.9533333,6.82985366 Z M17.3005041,9.15221138 L15.8057073,9.15221138 C15.5661626,8.40811382 15.2558862,7.7540813 14.8871382,7.22123577 C15.849561,7.6475122 16.678065,8.31804878 17.3005041,9.15221138 Z M17.9234146,10.1863089 C18.2256748,10.8247805 18.4213659,11.521252 18.4840813,12.2573333 L16.3286504,12.2573333 C16.3008293,11.5278537 16.2150081,10.8332683 16.0787317,10.1863089 L17.9234146,10.1863089 Z M17.9229431,15.3629268 L16.0787317,15.3629268 C16.2150081,14.7154959 16.3008293,14.0209106 16.3286504,13.2914309 L18.4840813,13.2914309 C18.4213659,14.0275122 18.2252033,14.7244553 17.9229431,15.3629268 Z M14.8871382,18.328 C15.2558862,17.7951545 15.5661626,17.1406504 15.8057073,16.3970244 L17.3000325,16.3970244 C16.6775935,17.231187 15.849561,17.901252 14.8871382,18.328 Z M12.4365203,19.8831545 C16.3555285,19.8831545 19.5445854,16.6940976 19.5445854,12.7741463 C19.5445854,8.85466667 16.3555285,5.6660813 12.4365203,5.6660813 C8.51656911,5.6660813 5.3275122,8.85466667 5.3275122,12.7741463 C5.3275122,16.6940976 8.51656911,19.8831545 12.4365203,19.8831545 L12.4365203,19.8831545 Z" id="Fill-3"></path>
                    <polyline id="Fill-4" points="46.8314634 16.086748 46.8314634 8.05681301 45.7242764 8.05681301 45.7242764 15.4529919 39.7394309 18.9641138 33.7484553 15.4529919 33.7484553 8.05681301 32.6412683 8.05681301 32.6412683 16.0872195 39.7394309 20.2467154 46.8314634 16.086748"></polyline>
                    <path d="M39.1419837,17.2604228 L39.1419837,9.84349593 C37.816,7.40278049 34.8641301,7.35515447 34.8641301,7.35515447 C34.8216911,7.30658537 34.8641301,14.7716098 34.8641301,14.7716098 C34.8641301,14.7716098 37.816,14.8197073 39.1419837,17.2604228" id="Fill-5"></path>
                    <path d="M44.5638049,14.8357398 C44.5638049,14.8357398 44.6076585,7.37071545 44.5638049,7.41881301 C44.5638049,7.41881301 41.5812846,7.46643902 40.2406829,9.90668293 L40.2406829,17.3245528 C41.5812846,14.8833659 44.5638049,14.8357398 44.5638049,14.8357398" id="Fill-6"></path>
                    <path d="M20.378748,23.0094959 L20.378748,22.4922114 L21.9419187,22.4922114 C22.2083415,20.4523089 24.0294472,18.8693333 26.2296748,18.8693333 C28.4299024,18.8693333 30.2510081,20.4523089 30.5174309,22.4922114 L32.0178862,22.4922114 L32.0178862,23.0094959 C32.0178862,24.7466667 33.5060813,26.1603577 35.3356748,26.1603577 L35.8515447,26.1603577 L35.8562602,27.8145366 L38.8746179,27.8150081 L38.8746179,27.8234959 C39.4239675,27.8763089 39.9157886,28.2247805 40.0996911,28.7547967 C40.299626,29.3300813 39.9700163,29.9511057 39.3645528,30.1416098 C38.8798049,30.2939187 38.3573333,30.044 38.1974797,29.5842439 C38.1036423,29.3145203 38.1932358,29.0306504 38.3997724,28.8491057 L34.8245203,28.8486341 L34.8198049,27.1656911 C32.8388455,26.9393496 31.2615285,25.4289919 31.0163252,23.5263089 L29.516813,23.5263089 L29.516813,23.0094959 C29.516813,21.2968455 28.0422927,19.9034309 26.2296748,19.9034309 C24.4170569,19.9034309 22.9425366,21.2968455 22.9425366,23.0094959 L22.9425366,23.5263089 L21.3798374,23.5263089 C21.1346341,25.4374797 19.5483577,26.9553821 17.5556098,27.1817236 L17.5565528,28.8212846 L13.8459675,28.8255285 C14.0534472,28.9957561 14.1538862,29.2678374 14.0789106,29.5361463 C13.945935,30.0039187 13.440439,30.2816585 12.9476748,30.1562276 C12.3313659,29.9992033 11.9649756,29.3975122 12.1295447,28.8113821 C12.3030732,28.1950732 12.8934472,27.7952033 13.5356911,27.8013333 L13.5356911,27.7914309 L16.5219837,27.7881301 L16.5210407,26.1768618 L17.0383252,26.1768618 C18.8801789,26.1768618 20.378748,24.755626 20.378748,23.0094959 Z M28.8858862,28.1304715 L28.8858862,29.5573659 L27.4580488,29.5573659 C27.3660976,30.16 26.8497561,30.6235285 26.221187,30.6235285 C25.5926179,30.6235285 25.0772195,30.16 24.9852683,29.5573659 L23.558374,29.5573659 L23.558374,28.1309431 C22.9496098,28.0441789 22.4799512,27.5264228 22.4799512,26.8936098 C22.4799512,26.2603252 22.9496098,25.7420976 23.558374,25.6553333 L23.558374,24.2298537 L24.9833821,24.2298537 C25.0692033,23.6196748 25.5874309,23.1486016 26.221187,23.1486016 C26.8549431,23.1486016 27.3741138,23.6196748 27.4594634,24.2298537 L28.8858862,24.2298537 L28.8858862,25.6558049 C29.4932358,25.7444553 29.9605366,26.2617398 29.9605366,26.8936098 C29.9605366,27.5250081 29.4932358,28.0422927 28.8858862,28.1304715 Z M19.008439,22.9595122 C19.008439,24.0761301 17.8833333,24.8570081 16.4960488,24.8570081 C16.4201301,24.8570081 15.2356098,24.8570081 15.2356098,24.8570081 L15.2365528,26.5682439 L11.0610244,26.5649431 L11.0619675,31.1129919 L6.34746341,31.1129919 L6.34746341,32.3196748 L46.036439,32.3196748 L46.036439,31.1129919 L43.1741626,31.1129919 L43.1741626,31.1111057 L41.2318699,31.1111057 L41.2262114,26.5324065 L37.1695122,26.5366504 L37.1647967,24.8570081 C37.1647967,24.8570081 35.886439,24.8570081 35.8166504,24.8570081 C34.4293659,24.8570081 33.3047317,24.0761301 33.3047317,22.9595122 C33.3047317,22.9133008 33.3061463,21.1775447 33.3061463,21.1775447 L31.4435447,21.180374 C30.6381463,19.1489593 28.5110081,17.5221301 26.2098699,17.5221301 C23.9134472,17.5221301 21.7250081,19.1442439 20.917252,21.1709431 L19.0056098,21.1709431 C19.0056098,21.1709431 19.008439,22.9038699 19.008439,22.9595122 L19.008439,22.9595122 Z" id="Fill-7"></path>
                    <path d="M7.52538211,33.8517236 L7.57253659,33.8517236 C8.34634146,34.0940976 8.39443902,34.9801301 8.39443902,34.9801301 L8.39443902,35.3785854 L9.40873171,35.3785854 L9.40873171,34.7528455 C9.40873171,34.7528455 9.45682927,33.9097236 10.2296911,33.6791382 L10.2782602,33.6791382 C11.052065,33.9097236 11.0992195,34.7528455 11.0992195,34.7528455 L11.0992195,35.3785854 L12.2790244,35.3785854 L12.2790244,34.7528455 C12.2790244,34.7528455 12.328065,33.9097236 13.1004553,33.6791382 L13.1499675,33.6791382 C13.9228293,33.9097236 13.9704553,34.7528455 13.9704553,34.7528455 L13.9704553,35.3785854 L15.1832683,35.3785854 L15.1832683,34.7528455 C15.1832683,34.7528455 15.2308943,33.9097236 16.0046992,33.6791382 L16.0542114,33.6791382 C16.8266016,33.9097236 16.8742276,34.7528455 16.8742276,34.7528455 L16.8742276,35.3785854 L18.0549756,35.3785854 L18.0549756,34.7528455 C18.0549756,34.7528455 18.1035447,33.9097236 18.8764065,33.6791382 L18.9249756,33.6791382 C19.6983089,33.9097236 19.746878,34.7528455 19.746878,34.7528455 L19.746878,35.3785854 L20.9757236,35.3785854 L20.9757236,34.7528455 C20.9757236,34.7528455 21.0233496,33.9097236 21.7971545,33.6791382 L21.8457236,33.6791382 C22.6185854,33.9097236 22.6671545,34.7528455 22.6671545,34.7528455 L22.6671545,35.3785854 L23.8464878,35.3785854 L23.8464878,34.7528455 C23.8464878,34.7528455 23.8950569,33.9097236 24.6679187,33.6791382 L24.7164878,33.6791382 C25.4907642,33.9097236 25.5379187,34.7528455 25.5379187,34.7528455 L25.5379187,35.3785854 L26.7507317,35.3785854 L26.7507317,34.7528455 C26.7507317,34.7528455 26.7993008,33.9097236 27.5721626,33.6791382 L27.6202602,33.6791382 C28.3935935,33.9097236 28.4412195,34.7528455 28.4412195,34.7528455 L28.4412195,35.3785854 L29.6219675,35.3785854 L29.6219675,34.7528455 C29.6219675,34.7528455 29.6705366,33.9097236 30.4443415,33.6791382 L30.4929106,33.6791382 C31.2648293,33.9097236 31.3133984,34.7528455 31.3133984,34.7528455 L31.3133984,35.3785854 L32.5097073,35.3785854 L32.5097073,34.7528455 C32.5097073,34.7528455 32.5582764,33.9097236 33.3311382,33.6791382 L33.3801789,33.6791382 C34.1530407,33.9097236 34.2020813,34.7528455 34.2020813,34.7528455 L34.2020813,35.3785854 L35.4299837,35.3785854 L35.4299837,34.7528455 C35.4299837,34.7528455 35.4785528,33.9097236 36.2518862,33.6791382 L36.2995122,33.6791382 C37.072374,33.9097236 37.1204715,34.7528455 37.1204715,34.7528455 L37.1204715,35.3785854 L38.3021626,35.3785854 L38.3021626,34.7528455 C38.3021626,34.7528455 38.3497886,33.9097236 39.1235935,33.6791382 L39.1712195,33.6791382 C39.9445528,33.9097236 39.9935935,34.7528455 39.9935935,34.7528455 L39.9935935,35.3785854 L41.2045203,35.3785854 L41.2045203,34.7528455 C41.2045203,34.7528455 41.253561,33.9097236 42.0259512,33.6791382 L42.0754634,33.6791382 C42.8478537,33.9097236 42.8968943,34.7528455 42.8968943,34.7528455 L42.8968943,35.3785854 L43.9102439,35.3785854 L43.9102439,34.9801301 C43.9102439,34.9801301 43.9583415,34.0940976 44.7316748,33.8517236 L44.7807154,33.8517236 C44.808065,33.8602114 44.8325854,33.8715285 44.8580488,33.8814309 L44.8580488,33.2948293 L7.52538211,33.2948293 L7.52538211,33.8517236" id="Fill-8"></path>
                    <path d="M50.4981951,25.9849431 C50.4981951,25.9849431 50.4958374,27.370813 49.9842114,29.6158374 L49.9851545,29.6158374 C49.2542602,32.8251707 47.4788943,37.7957236 43.1642602,43.0176098 L43.1699187,36.0684553 L9.11684553,36.0684553 L9.11684553,42.7889106 C4.9342439,37.6514309 3.18858537,32.7784878 2.46146341,29.6158374 L2.46287805,29.6158374 C1.94653659,27.370813 1.9404065,25.9849431 1.9404065,25.9849431 L1.9404065,1.82487805 L50.4981951,1.82487805 L50.4981951,25.9849431 Z M36.4999187,49.4391057 C33.682439,51.6346179 30.3000488,53.7641138 26.2329756,55.711122 C22.1093171,53.7362927 18.6868455,51.5733171 15.844374,49.3433821 C15.8448455,49.1623089 15.8448455,49.0637561 15.8453171,49.0632846 C15.8453171,43.3599512 20.4692846,38.7355122 26.1730894,38.7355122 C31.8764228,38.7355122 36.4999187,43.3599512 36.4999187,49.0632846 C36.5003902,49.0618699 36.5003902,49.1962602 36.4999187,49.4391057 Z M0.396569106,0.330552846 L0.396569106,26.5654146 C0.39704065,26.6092683 0.459756098,31.2959512 3.69313821,37.4401789 C6.65962602,43.0774959 12.9754959,51.1244065 26.2343902,57.5572195 C39.5041301,51.1220488 45.8115122,43.0756098 48.7690407,37.4392358 C51.9929919,31.2959512 52.0425041,26.6111545 52.0425041,26.5644715 L52.0425041,0.330552846 L0.396569106,0.330552846 L0.396569106,0.330552846 Z" id="Fill-9"></path>
                    <path d="M21.6830407,44.692065 L21.1586829,44.692065 L19.8077073,45.6398699 L19.9887805,46.0373821 C20.0694146,46.0105041 20.3183902,45.9025203 20.499935,45.8143415 C20.6814797,45.7275772 20.8899024,45.5927154 20.9568618,45.5531057 L20.9568618,48.5389268 L20.1773984,48.5389268 L20.1773984,49.1368455 L22.309252,49.1368455 L22.309252,48.5389268 L21.6830407,48.5389268 L21.6830407,44.692065" id="Fill-10"></path>
                    <path d="M25.050813,46.7362114 C24.8225854,46.9451057 24.6207642,47.0318699 24.365187,47.0318699 C23.9073171,47.0318699 23.6253333,46.6890569 23.6253333,46.1444228 C23.6253333,45.5658374 23.9209919,45.1895447 24.365187,45.1895447 C24.8225854,45.1895447 25.1177724,45.5870569 25.1177724,46.2250569 C25.1177724,46.4202764 25.1040976,46.5414634 25.050813,46.7362114 Z M24.392065,44.6114309 C23.4904715,44.6114309 22.8114472,45.2701789 22.8114472,46.1580976 C22.8114472,46.9922602 23.416439,47.6109268 24.2161789,47.6109268 C24.4519512,47.6109268 24.6674472,47.5571707 24.8895447,47.4289106 C24.8423902,47.5430244 24.781561,47.6642114 24.7278049,47.7514472 C24.438748,48.2225203 23.9346667,48.619561 23.4098374,48.8614634 C23.2150894,48.9553008 23.073626,49.0024553 22.8652033,49.0425366 L23.2546992,49.4933333 C23.853561,49.3655447 24.4660976,49.0024553 24.9093496,48.5860813 C25.5685691,47.9669431 25.9250569,47.1936098 25.9250569,46.3528455 C25.9250569,45.4050407 25.4068293,44.6114309 24.392065,44.6114309 L24.392065,44.6114309 Z" id="Fill-11"></path>
                    <path d="M27.6843902,46.4 C27.5433984,46.4 27.4896423,46.4070732 27.307626,46.4334797 L27.4160813,45.3446829 L28.7807317,45.3446829 L28.8948455,44.7194146 L26.7299837,44.7194146 L26.5144878,47.1464553 C26.843626,47.0257398 27.1402276,46.9719837 27.4358862,46.9719837 C27.9470407,46.9719837 28.2893821,47.2407642 28.2893821,47.7589919 C28.2893821,48.3837886 27.7315447,48.8416585 26.9714146,48.8416585 C26.7568618,48.8416585 26.6215285,48.8209106 26.3933008,48.7473496 L26.548439,49.2981138 C26.7568618,49.3452683 26.843626,49.3523415 27.0525203,49.3523415 C27.4693659,49.3523415 27.8862114,49.2580325 28.208748,49.0896911 C28.7467805,48.8143089 29.0966667,48.282878 29.0966667,47.6910894 C29.0966667,46.8842764 28.4643252,46.4 27.6843902,46.4" id="Fill-12"></path>
                    <path d="M30.9097561,46.4 C30.7687642,46.4 30.7150081,46.4070732 30.5334634,46.4334797 L30.6414472,45.3446829 L32.0060976,45.3446829 L32.1202114,44.7194146 L29.9553496,44.7194146 L29.7398537,47.1464553 C30.0689919,47.0257398 30.3655935,46.9719837 30.661252,46.9719837 C31.172878,46.9719837 31.514748,47.2407642 31.514748,47.7589919 C31.514748,48.3837886 30.956439,48.8416585 30.197252,48.8416585 C29.9822276,48.8416585 29.8473659,48.8209106 29.6186667,48.7473496 L29.7733333,49.2981138 C29.9822276,49.3452683 30.0689919,49.3523415 30.2778862,49.3523415 C30.6952033,49.3523415 31.1115772,49.2580325 31.4341138,49.0896911 C31.9721463,48.8143089 32.3220325,48.282878 32.3220325,47.6910894 C32.3220325,46.8842764 31.6896911,46.4 30.9097561,46.4" id="Fill-13"></path>
                </g>
                <path d="M98.3005691,29.7407967 C97.3117398,29.7407967 96.5313333,30.2943902 95.8018537,31.5213496 C95.7999675,31.5024878 95.7966667,31.483626 95.7957236,31.4652358 L95.7980813,31.2615285 C95.8042114,31.172878 95.8141138,31.0846992 95.8240163,30.9960488 C95.8461789,30.8027154 95.8678699,30.6089106 95.8900325,30.4155772 C95.9220976,30.1326504 95.9541626,29.8497236 95.9866992,29.5667967 L92.9240163,29.8799024 L92.9240163,30.4193496 L94.3160163,30.6456911 L94.5074634,31.984878 L94.5074634,35.5690894 L94.3160163,36.8913008 L93.0984878,37.1176423 L93.0984878,37.6570894 L97.5692033,37.6570894 L97.5692033,37.1176423 L96.1776748,36.8913008 L95.9866992,35.5690894 C95.9866992,35.4299837 95.9866992,35.2913496 95.9866992,35.1527154 C95.9866992,34.7754797 95.9866992,34.3982439 95.9866992,34.0210081 C95.9866992,33.602748 95.9866992,33.1840163 95.9866992,32.7657561 C95.9866992,32.6506992 95.9866992,32.5356423 95.9866992,32.4205854 C95.9866992,32.3734309 95.9866992,32.3258049 95.9866992,32.2781789 C95.9866992,32.2560163 95.9881138,32.2319675 95.9895285,32.2079187 C96.4936098,31.5845366 97.1702764,31.3591382 97.6913333,31.3591382 C98.0567805,31.3591382 98.4217561,31.4807967 98.7178862,31.6199024 L99.153122,29.8629268 C98.7876748,29.7582439 98.6136748,29.7407967 98.3005691,29.7407967" id="Fill-14"></path>
                <path d="M288.160976,29.7407967 C287.172618,29.7407967 286.39174,30.2943902 285.662732,31.5213496 C285.660846,31.5024878 285.657545,31.483626 285.65613,31.4652358 L285.658959,31.2615285 C285.664618,31.172878 285.67452,31.0846992 285.684894,30.9960488 C285.706585,30.8027154 285.728748,30.6089106 285.750911,30.4155772 C285.782976,30.1326504 285.815041,29.8497236 285.847106,29.5667967 L282.784894,29.8799024 L282.784894,30.4193496 L284.176894,30.6456911 L284.36787,31.984878 L284.36787,35.5690894 L284.176894,36.8913008 L282.959366,37.1176423 L282.959366,37.6570894 L287.430081,37.6570894 L287.430081,37.1176423 L286.038553,36.8913008 L285.847106,35.5690894 C285.847106,35.4299837 285.847106,35.2913496 285.847106,35.1527154 C285.847106,34.7754797 285.847106,34.3982439 285.847106,34.0210081 C285.847106,33.602748 285.847106,33.1840163 285.847106,32.7657561 C285.847106,32.6506992 285.847106,32.5356423 285.847106,32.4205854 C285.847106,32.3734309 285.847106,32.3258049 285.847106,32.2781789 C285.847106,32.2560163 285.848992,32.2319675 285.850407,32.2079187 C286.354488,31.5845366 287.030683,31.3591382 287.552211,31.3591382 C287.917659,31.3591382 288.282634,31.4807967 288.578764,31.6199024 L289.014,29.8629268 C288.648081,29.7582439 288.474553,29.7407967 288.160976,29.7407967" id="Fill-15"></path>
                <polyline id="Fill-16" points="64.4936423 18.0266829 65.9045041 17.748 66.0785041 15.9886667 66.0785041 9.73504065 65.9045041 7.97570732 64.4936423 7.69702439 64.4936423 7.17455285 68.2560976 7.17455285 69.1449593 9.73504065 71.7752358 16.5809268 74.4748293 9.71806504 75.2939024 7.17455285 79.0563577 7.17455285 79.0563577 7.69702439 77.6624715 7.97570732 77.4710244 9.73504065 77.4710244 15.9886667 77.6624715 17.748 79.0563577 18.0266829 79.0563577 18.5670732 74.2484878 18.5670732 74.2484878 18.0266829 75.6419024 17.748 75.8338211 15.9886667 75.8338211 8.35907317 72.837626 15.9886667 71.9492358 18.5670732 70.8170569 18.5670732 69.8763252 15.9886667 66.8626829 8.35907317 66.8626829 15.9886667 67.0541301 17.748 68.4480163 18.0266829 68.4480163 18.5670732 64.4936423 18.5670732 64.4936423 18.0266829"></polyline>
                <path d="M81.2985528,7.33157724 C81.2985528,6.73931707 81.7861301,6.23382114 82.3958374,6.23382114 C82.9880976,6.23382114 83.4935935,6.72186992 83.4935935,7.34855285 C83.4935935,7.9059187 83.040439,8.42886179 82.3958374,8.42886179 C81.8031057,8.42886179 81.2985528,7.99315447 81.2985528,7.33157724 Z M80.3927154,18.0266829 L81.6121301,17.800813 L81.7861301,16.4767154 L81.7861301,12.8882602 L81.6121301,11.547187 L80.2182439,11.320374 L80.2182439,10.7804553 L83.4582276,10.466878 L83.2842276,12.8882602 L83.2842276,16.4767154 L83.4582276,17.800813 L84.6776423,18.0266829 L84.6776423,18.5670732 L80.3927154,18.5670732 L80.3927154,18.0266829 L80.3927154,18.0266829 Z" id="Fill-17"></path>
                <path d="M90.8874146,16.6507154 L90.8874146,11.494374 C90.3993659,11.2854797 90.016,11.1812683 89.4760813,11.1812683 C87.8384065,11.1812683 86.9325691,12.5397886 86.9325691,14.6824878 C86.9325691,16.5809268 87.6295122,17.7310244 88.9885041,17.7310244 C89.5982114,17.7310244 90.242813,17.4523415 90.8874146,16.6507154 Z M85.3646829,15.0484065 C85.3646829,12.3308943 87.0721463,10.4145366 89.5458699,10.4145366 C90.0334472,10.4145366 90.416813,10.466878 90.8874146,10.571561 L90.8874146,8.53354472 L90.6950244,7.192 L89.3020813,6.96565854 L89.3020813,6.42573984 L92.5595122,6.1121626 L92.3675935,8.53354472 L92.3675935,16.4767154 L92.5595122,17.800813 L93.6916911,18.0266829 L93.6916911,18.5670732 L90.8874146,18.9329919 L91.1481789,17.2778699 C90.3470244,18.3581789 89.5284228,18.9329919 88.3783252,18.9329919 C86.6189919,18.9329919 85.3646829,17.4174472 85.3646829,15.0484065 L85.3646829,15.0484065 Z" id="Fill-18"></path>
                <path d="M99.8425203,16.6507154 L99.8425203,11.494374 C99.3549431,11.2854797 98.9715772,11.1812683 98.4316585,11.1812683 C96.7939837,11.1812683 95.8881463,12.5397886 95.8881463,14.6824878 C95.8881463,16.5809268 96.5850894,17.7310244 97.9436098,17.7310244 C98.5537886,17.7310244 99.1983902,17.4523415 99.8425203,16.6507154 Z M94.3202602,15.0484065 C94.3202602,12.3308943 96.0277236,10.4145366 98.5014472,10.4145366 C98.9890244,10.4145366 99.3723902,10.466878 99.8425203,10.571561 L99.8425203,8.53354472 L99.6506016,7.192 L98.2576585,6.96565854 L98.2576585,6.42573984 L101.515089,6.1121626 L101.323171,8.53354472 L101.323171,16.4767154 L101.515089,17.800813 L102.647268,18.0266829 L102.647268,18.5670732 L99.8425203,18.9329919 L100.103756,17.2778699 C99.3026016,18.3581789 98.484,18.9329919 97.3339024,18.9329919 C95.5745691,18.9329919 94.3202602,17.4174472 94.3202602,15.0484065 L94.3202602,15.0484065 Z" id="Fill-19"></path>
                <polyline id="Fill-20" points="103.746911 18.0266829 104.965854 17.800813 105.157772 16.4767154 105.157772 8.53354472 104.965854 7.192 103.572911 6.96565854 103.572911 6.42573984 106.812894 6.1121626 106.637951 8.53354472 106.637951 16.4767154 106.830341 17.800813 108.032309 18.0266829 108.032309 18.5670732 103.746911 18.5670732 103.746911 18.0266829"></polyline>
                <path d="M112.453984,13.3763089 L113.638033,13.2018374 C113.638033,11.8258699 112.993902,11.1114797 112.035724,11.1114797 C111.060098,11.1114797 110.381073,11.8428455 110.189154,13.3763089 L112.453984,13.3763089 Z M108.656634,14.7522764 C108.656634,12.1045528 109.997707,10.4145366 112.175301,10.4145366 C114.004423,10.4145366 115.275707,11.5990569 115.205919,14.0727805 L110.172179,14.0727805 C110.172179,14.0727805 110.154732,14.3165691 110.154732,14.4561463 C110.154732,16.424374 111.112911,17.8177886 112.959008,17.8177886 C113.516374,17.8177886 114.143528,17.6786829 114.752764,17.2255285 L115.101707,17.6961301 C114.108634,18.6019675 113.359821,18.9329919 112.105512,18.9329919 C110.032602,18.9329919 108.656634,17.4348943 108.656634,14.7522764 L108.656634,14.7522764 Z" id="Fill-21"></path>
                <path d="M122.35548,14.6126992 C122.35548,12.8184715 121.588748,11.5990569 120.421675,11.5990569 C119.707756,11.5990569 119.027789,11.895187 118.400634,12.6270244 L118.400634,16.4767154 L118.574634,17.9922602 C118.993366,18.1313659 119.289024,18.2011545 119.742179,18.2011545 C121.536878,18.2011545 122.35548,16.5988455 122.35548,14.6126992 Z M116.902537,18.5670732 L116.902537,8.53354472 L116.728537,7.192 L115.335122,6.96565854 L115.335122,6.42573984 L118.574634,6.1121626 L118.400634,8.53354472 L118.400634,11.8079512 C119.045236,10.9549268 119.985967,10.4145366 121.049301,10.4145366 C122.721398,10.4145366 123.888,11.8428455 123.888,14.0553333 C123.888,16.7553984 122.268244,18.9329919 119.132472,18.9329919 C118.400634,18.9329919 117.896081,18.9329919 116.902537,18.5670732 L116.902537,18.5670732 Z" id="Fill-22"></path>
                <path d="M125.909041,16.2154797 L125.909041,12.8882602 L125.717122,11.547187 L124.358602,11.320374 L124.358602,10.7804553 L127.58161,10.466878 L127.406667,12.8882602 L127.406667,15.8146667 C127.406667,17.0166341 127.964033,17.748 129.061789,17.748 C129.811073,17.748 130.490098,17.2953171 130.977675,16.7030569 L130.977675,12.8882602 L130.803675,11.547187 L129.445154,11.320374 L129.445154,10.7804553 L132.66722,10.466878 L132.475772,12.8882602 L132.475772,16.4767154 L132.66722,17.800813 L133.921528,18.0266829 L133.921528,18.5670732 L130.977675,18.8806504 L131.169593,17.3127642 C130.35052,18.4449431 129.619154,18.9329919 128.382764,18.9329919 C126.849301,18.9329919 125.909041,17.9573659 125.909041,16.2154797" id="Fill-23"></path>
                <polyline id="Fill-24" points="142.555041 22.6954472 142.555041 22.103187 144.297398 21.8245041 145.046211 20.6050894 145.795496 18.8457561 143.356667 12.8882602 142.642276 11.5292683 141.858098 11.320374 141.858098 10.7804553 145.673366 10.7804553 145.673366 11.320374 144.558163 11.5292683 144.976894 12.8882602 146.544309 16.9119512 148.007984 12.8882602 148.390407 11.5292683 147.293593 11.320374 147.293593 10.7804553 150.428894 10.7804553 150.428894 11.320374 149.540504 11.5292683 148.878927 12.8882602 145.081106 22.9217886 142.555041 22.6954472"></polyline>
                <path d="M140.230797,10.6484228 C139.241967,10.6484228 138.461561,11.2020163 137.732081,12.4285041 C137.730195,12.4096423 137.726894,12.391252 137.725951,12.3723902 L137.728309,12.1691545 C137.733967,12.0805041 137.744341,11.9918537 137.754244,11.9036748 C137.776407,11.7098699 137.798098,11.5165366 137.82026,11.3227317 C137.852325,11.0398049 137.88439,10.756878 137.916455,10.4739512 L134.854244,10.7870569 L134.854244,11.3265041 L136.246244,11.5528455 L136.437691,12.8925041 L136.437691,16.4762439 L136.246244,17.7989268 L135.028715,18.0247967 L135.028715,18.5642439 L139.499431,18.5642439 L139.499431,18.0247967 L138.107902,17.7989268 L137.916455,16.4762439 C137.916455,16.3376098 137.916455,16.1985041 137.916455,16.0598699 C137.916455,15.6826341 137.916455,15.3058699 137.916455,14.9286341 C137.916455,14.5099024 137.916455,14.0916423 137.916455,13.6729106 C137.916455,13.5578537 137.916455,13.4427967 137.916455,13.3282114 C137.916455,13.2805854 137.916455,13.2329593 137.916455,13.1858049 C137.916455,13.1631707 137.918341,13.1395935 137.919756,13.1155447 C138.423837,12.4916911 139.100033,12.2667642 139.621561,12.2667642 C139.987008,12.2667642 140.351984,12.3884228 140.648114,12.5275285 L141.08335,10.7700813 C140.717902,10.6653984 140.543902,10.6484228 140.230797,10.6484228" id="Fill-25"></path>
                <polyline id="Fill-26" points="154.717122 18.0266829 156.127512 17.748 156.302455 15.9886667 156.302455 9.73504065 156.127512 7.97570732 154.717122 7.69702439 154.717122 7.17455285 159.52452 7.17455285 159.52452 7.69702439 158.113659 7.97570732 157.939187 9.73504065 157.939187 15.9886667 158.113659 17.748 159.52452 18.0266829 159.52452 18.5670732 154.717122 18.5670732 154.717122 18.0266829"></polyline>
                <path d="M160.631707,18.0266829 L161.851122,17.800813 L162.043041,16.4767154 L162.043041,12.8882602 L161.851122,11.547187 L160.457707,11.320374 L160.457707,10.7804553 L163.52322,10.466878 L163.331772,12.0347642 C164.046163,10.9370081 164.952,10.4145366 166.13652,10.4145366 C167.634618,10.4145366 168.609772,11.4076098 168.609772,13.1320488 L168.609772,16.4767154 L168.784715,17.800813 L170.021106,18.0266829 L170.021106,18.5670732 L165.927626,18.5670732 L165.927626,18.0266829 L166.920228,17.800813 L167.094228,16.4767154 L167.094228,13.5503089 C167.094228,12.3832358 166.536862,11.5990569 165.440049,11.5990569 C164.777528,11.5990569 164.289951,11.7909756 163.52322,12.6444715 L163.52322,16.4767154 L163.715138,17.800813 L164.70774,18.0266829 L164.70774,18.5670732 L160.631707,18.5670732 L160.631707,18.0266829" id="Fill-27"></path>
                <path d="M171.16413,18.4623902 L171.025496,16.424374 L171.791285,16.424374 L172.087886,17.7659187 C172.627805,18.0097073 173.046065,18.1492846 173.707642,18.1492846 C174.648374,18.1492846 175.240163,17.6786829 175.240163,16.8775285 C175.240163,15.8670081 174.282455,15.570878 173.376618,15.2398537 C172.279333,14.7871707 170.99013,14.4038049 170.99013,12.8359187 C170.99013,11.5122927 172.070439,10.3103252 173.917008,10.3103252 C174.700715,10.3103252 175.466976,10.466878 176.233707,10.8153496 L176.407707,12.8533659 L175.640976,12.8533659 L175.258081,11.4773984 C174.770033,11.2505854 174.265008,11.1289268 173.707642,11.1289268 C172.784829,11.1289268 172.261886,11.5122927 172.261886,12.296 C172.261886,13.2541789 173.237041,13.5503089 174.091008,13.8808618 C175.327398,14.3514634 176.494943,14.7348293 176.494943,16.3545854 C176.494943,17.8177886 175.309951,18.9674146 173.550618,18.9674146 C172.976276,18.9674146 172.00065,18.7934146 171.16413,18.4623902" id="Fill-28"></path>
                <path d="M178.725821,17.0515285 L178.725821,11.5122927 L177.367301,11.5122927 L177.367301,10.8851382 L178.725821,10.6064553 L178.725821,8.60333333 L180.223919,8.32417886 L180.223919,10.7804553 L182.349642,10.7804553 L182.349642,11.5122927 L180.223919,11.5122927 L180.223919,16.4767154 C180.223919,17.3651057 180.537496,17.7659187 181.182098,17.7659187 C181.461252,17.7659187 181.931382,17.6786829 182.332195,17.4174472 L182.66322,17.974813 C181.791805,18.6717561 181.217463,18.9329919 180.433285,18.9329919 C179.579789,18.9329919 178.725821,18.4972846 178.725821,17.0515285" id="Fill-29"></path>
                <path d="M184.484325,7.33157724 C184.484325,6.73931707 184.972374,6.23382114 185.582081,6.23382114 C186.17387,6.23382114 186.678894,6.72139837 186.678894,7.34855285 C186.678894,7.9059187 186.226683,8.42886179 185.582081,8.42886179 C184.98935,8.42886179 184.484325,7.99315447 184.484325,7.33157724 Z M183.578488,18.0266829 L184.797902,17.800813 L184.972374,16.4767154 L184.972374,12.8882602 L184.797902,11.547187 L183.404016,11.320374 L183.404016,10.7804553 L186.644472,10.466878 L186.470472,12.8882602 L186.470472,16.4767154 L186.644472,17.800813 L187.863415,18.0266829 L187.863415,18.5670732 L183.578488,18.5670732 L183.578488,18.0266829 L183.578488,18.0266829 Z" id="Fill-30"></path>
                <path d="M189.402537,17.0515285 L189.402537,11.5122927 L188.044016,11.5122927 L188.044016,10.8851382 L189.402537,10.6064553 L189.402537,8.60333333 L190.900634,8.32417886 L190.900634,10.7804553 L193.026358,10.7804553 L193.026358,11.5122927 L190.900634,11.5122927 L190.900634,16.4767154 C190.900634,17.3651057 191.214211,17.7659187 191.858813,17.7659187 C192.137967,17.7659187 192.608098,17.6786829 193.008911,17.4174472 L193.339935,17.974813 C192.468992,18.6717561 191.894179,18.9329919 191.11,18.9329919 C190.256504,18.9329919 189.402537,18.4972846 189.402537,17.0515285" id="Fill-31"></path>
                <path d="M195.54252,16.2154797 L195.54252,12.8882602 L195.351073,11.547187 L193.992553,11.320374 L193.992553,10.7804553 L197.214618,10.466878 L197.040618,12.8882602 L197.040618,15.8146667 C197.040618,17.0166341 197.597984,17.748 198.69574,17.748 C199.444553,17.748 200.124049,17.2953171 200.612098,16.7030569 L200.612098,12.8882602 L200.437626,11.547187 L199.079106,11.320374 L199.079106,10.7804553 L202.301642,10.466878 L202.110195,12.8882602 L202.110195,16.4767154 L202.301642,17.800813 L203.555951,18.0266829 L203.555951,18.5670732 L200.612098,18.8806504 L200.803073,17.3127642 C199.984472,18.4449431 199.253106,18.9329919 198.016244,18.9329919 C196.483252,18.9329919 195.54252,17.9573659 195.54252,16.2154797" id="Fill-32"></path>
                <path d="M205.113463,17.0515285 L205.113463,11.5122927 L203.754943,11.5122927 L203.754943,10.8851382 L205.113463,10.6064553 L205.113463,8.60333333 L206.611561,8.32417886 L206.611561,10.7804553 L208.737285,10.7804553 L208.737285,11.5122927 L206.611561,11.5122927 L206.611561,16.4767154 C206.611561,17.3651057 206.925138,17.7659187 207.56974,17.7659187 C207.848894,17.7659187 208.319024,17.6786829 208.719837,17.4174472 L209.050862,17.974813 C208.179447,18.6717561 207.605106,18.9329919 206.820927,18.9329919 C205.966959,18.9329919 205.113463,18.4972846 205.113463,17.0515285" id="Fill-33"></path>
                <path d="M213.439528,13.3763089 L214.624049,13.2018374 C214.624049,11.8258699 213.979919,11.1114797 213.02174,11.1114797 C212.045642,11.1114797 211.366618,11.8428455 211.174699,13.3763089 L213.439528,13.3763089 Z M209.641707,14.7522764 C209.641707,12.1045528 210.983252,10.4145366 213.160374,10.4145366 C214.989496,10.4145366 216.261252,11.5990569 216.191463,14.0727805 L211.157252,14.0727805 C211.157252,14.0727805 211.140276,14.3165691 211.140276,14.4561463 C211.140276,16.424374 212.097984,17.8177886 213.944553,17.8177886 C214.501919,17.8177886 215.129073,17.6786829 215.739252,17.2255285 L216.087252,17.6961301 C215.09465,18.6019675 214.345366,18.9329919 213.090585,18.9329919 C211.017675,18.9329919 209.641707,17.4348943 209.641707,14.7522764 L209.641707,14.7522764 Z" id="Fill-34"></path>
                <path d="M225.392244,16.8077398 C225.967057,15.9367967 226.29761,14.7697236 226.29761,13.4107317 C226.29761,12.1913171 226.036846,11.4250569 225.252667,11.4250569 C224.659935,11.4250569 224.172358,11.7037398 223.667333,12.4002114 C223.040179,13.2367317 222.67426,14.7522764 222.67426,16.023561 C222.67426,17.1906341 223.022732,17.8875772 223.737122,17.8875772 C224.364276,17.8875772 224.921642,17.5221301 225.392244,16.8077398 Z M221.19361,16.3720325 C221.19361,14.2816748 221.891024,12.5746829 223.527756,11.2854797 C224.189805,10.7630081 225.148455,10.3621951 225.862374,10.3621951 C227.046423,10.3621951 227.743366,11.2505854 227.743366,13.044813 C227.743366,14.6475935 227.238341,16.197561 226.210846,17.2604228 C225.252667,18.3053659 224.120488,18.9155447 223.022732,18.9155447 C221.908,18.9155447 221.19361,18.0615772 221.19361,16.3720325 L221.19361,16.3720325 Z" id="Fill-35"></path>
                <path d="M224.809886,22.7128943 L225.140911,21.2147967 C225.680829,21.4236911 226.272618,21.5807154 226.778585,21.5807154 C227.23174,21.5807154 227.57974,21.4062439 227.840976,21.0233496 C228.084764,20.6569593 228.276683,20.1524065 228.415317,19.4729106 L230.018569,11.5292683 L228.46813,11.5292683 L228.46813,10.7804553 L230.175593,10.7804553 L230.227463,10.5541138 C230.593382,8.89899187 230.994195,7.94081301 231.865138,7.13965854 C232.596504,6.46063415 233.52026,6.1121626 234.233707,6.1121626 C234.669415,6.1121626 235.017415,6.16403252 235.627593,6.2861626 L235.279593,7.88894309 C234.547285,7.5579187 233.798472,7.36647154 233.310894,7.36647154 C232.97987,7.36647154 232.613951,7.47068293 232.26548,7.85404878 C231.882114,8.2718374 231.638325,9.10788618 231.551561,10.7804553 L233.363236,10.7804553 L233.363236,11.5292683 L231.429431,11.5292683 L230.00065,18.7585203 C229.756862,19.9604878 229.182049,21.0233496 228.346472,21.7547154 C227.544374,22.4691057 226.725772,22.8345528 225.854829,22.8345528 C225.646407,22.8345528 225.123463,22.7996585 224.809886,22.7128943" id="Fill-36"></path>
                <polyline id="Fill-37" points="64.4832683 37.1166992 65.8946016 36.8380163 66.0686016 35.0786829 66.0686016 28.8250569 65.8946016 27.0657236 64.4832683 26.7870407 64.4832683 26.2645691 69.2911382 26.2645691 69.2911382 26.7870407 67.880748 27.0657236 67.7062764 28.8250569 67.7062764 35.0786829 67.880748 36.8380163 69.2911382 37.1166992 69.2911382 37.6570894 64.4832683 37.6570894 64.4832683 37.1166992"></polyline>
                <path d="M70.3987967,37.1166992 L71.6182114,36.8908293 L71.8096585,35.5667317 L71.8096585,31.9782764 L71.6182114,30.6372033 L70.2243252,30.4103902 L70.2243252,29.8704715 L73.2903089,29.5568943 L73.0988618,31.1247805 C73.813252,30.0270244 74.7190894,29.5045528 75.9036098,29.5045528 C77.4017073,29.5045528 78.3768618,30.497626 78.3768618,32.222065 L78.3768618,35.5667317 L78.5508618,36.8908293 L79.7881951,37.1166992 L79.7881951,37.6570894 L75.6942439,37.6570894 L75.6942439,37.1166992 L76.6873171,36.8908293 L76.8613171,35.5667317 L76.8613171,32.6403252 C76.8613171,31.473252 76.3039512,30.6890732 75.2066667,30.6890732 C74.5446179,30.6890732 74.0570407,30.8809919 73.2903089,31.7340163 L73.2903089,35.5667317 L73.4817561,36.8908293 L74.4748293,37.1166992 L74.4748293,37.6570894 L70.3987967,37.6570894 L70.3987967,37.1166992" id="Fill-38"></path>
                <path d="M81.1259675,36.1415447 L81.1259675,30.6023089 L79.7674472,30.6023089 L79.7674472,29.9751545 L81.1259675,29.696 L81.1259675,27.692878 L82.6245366,27.4141951 L82.6245366,29.8704715 L84.7497886,29.8704715 L84.7497886,30.6023089 L82.6245366,30.6023089 L82.6245366,35.5667317 C82.6245366,36.455122 82.9381138,36.855935 83.5822439,36.855935 C83.8609268,36.855935 84.3310569,36.7686992 84.7318699,36.5074634 L85.0628943,37.0648293 C84.1924228,37.7617724 83.6171382,38.0225366 82.8329593,38.0225366 C81.979935,38.0225366 81.1259675,37.5873008 81.1259675,36.1415447" id="Fill-39"></path>
                <path d="M89.4525041,32.4658537 L90.6370244,32.2918537 C90.6370244,30.9158862 89.9924228,30.2014959 89.0342439,30.2014959 C88.0590894,30.2014959 87.3795935,30.9328618 87.1881463,32.4658537 L89.4525041,32.4658537 Z M85.6546829,33.8418211 C85.6546829,31.1945691 86.9962276,29.5045528 89.1738211,29.5045528 C91.0029431,29.5045528 92.2746992,30.6890732 92.2049106,33.1627967 L87.1702276,33.1627967 C87.1702276,33.1627967 87.1527805,33.4065854 87.1527805,33.5461626 C87.1527805,35.5143902 88.1109593,36.9078049 89.9570569,36.9078049 C90.5148943,36.9078049 91.1420488,36.7686992 91.7517561,36.3155447 L92.0997561,36.7861463 C91.1071545,37.6919837 90.3578699,38.0225366 89.1040325,38.0225366 C87.031122,38.0225366 85.6546829,36.5249106 85.6546829,33.8418211 L85.6546829,33.8418211 Z" id="Fill-40"></path>
                <path d="M100.053301,37.1166992 L101.272244,36.8908293 L101.464163,35.5667317 L101.464163,31.9782764 L101.272244,30.6372033 L99.8788293,30.4103902 L99.8788293,29.8704715 L102.944341,29.5568943 L102.753366,31.1247805 C103.467285,30.0270244 104.373122,29.5045528 105.557642,29.5045528 C107.05574,29.5045528 108.031366,30.497626 108.031366,32.222065 L108.031366,35.5667317 L108.205837,36.8908293 L109.442228,37.1166992 L109.442228,37.6570894 L105.34922,37.6570894 L105.34922,37.1166992 L106.341821,36.8908293 L106.515821,35.5667317 L106.515821,32.6403252 C106.515821,31.473252 105.958455,30.6890732 104.861171,30.6890732 C104.199122,30.6890732 103.711073,30.8809919 102.944341,31.7340163 L102.944341,35.5667317 L103.136732,36.8908293 L104.129333,37.1166992 L104.129333,37.6570894 L100.053301,37.6570894 L100.053301,37.1166992" id="Fill-41"></path>
                <path d="M114.623561,35.5841789 L114.623561,33.8946341 C113.595593,33.8946341 112.864228,34.0337398 112.394098,34.3298699 C111.923496,34.5911057 111.679707,35.0093659 111.679707,35.5492846 C111.679707,36.2283089 112.149837,36.7861463 112.829805,36.7861463 C113.404618,36.7861463 114.101561,36.350439 114.623561,35.5841789 Z M110.216504,35.9147317 C110.216504,35.1484715 110.547528,34.5038699 111.244472,33.9988455 C111.923496,33.4933496 113.038228,33.2325854 114.623561,33.2325854 L114.623561,32.2918537 C114.623561,31.1945691 113.961984,30.5499675 112.899593,30.5499675 C112.254992,30.5499675 111.609919,30.8112033 111.035106,31.3336748 L110.59987,30.8630732 C111.384049,29.9751545 112.446439,29.4173171 113.683301,29.4173171 C115.076715,29.4173171 116.087236,30.1666016 116.087236,31.8910407 L116.087236,35.5667317 L116.278683,36.8908293 L117.445756,37.1166992 L117.445756,37.6570894 L114.589138,37.9706667 L114.902715,36.0543089 C114.258114,37.2393008 113.421593,38.0225366 112.237073,38.0225366 C111.087447,38.0225366 110.216504,37.2393008 110.216504,35.9147317 L110.216504,35.9147317 Z" id="Fill-42"></path>
                <path d="M118.914618,36.1415447 L118.914618,30.6023089 L117.555154,30.6023089 L117.555154,29.9751545 L118.914618,29.696 L118.914618,27.692878 L120.411772,27.4141951 L120.411772,29.8704715 L122.537496,29.8704715 L122.537496,30.6023089 L120.411772,30.6023089 L120.411772,35.5667317 C120.411772,36.455122 120.72535,36.855935 121.369951,36.855935 C121.649106,36.855935 122.119236,36.7686992 122.520049,36.5074634 L122.851073,37.0648293 C121.98013,37.7617724 121.405317,38.0225366 120.621138,38.0225366 C119.767642,38.0225366 118.914618,37.5873008 118.914618,36.1415447" id="Fill-43"></path>
                <path d="M124.67265,26.4215935 C124.67265,25.8293333 125.160228,25.3238374 125.769935,25.3238374 C126.362195,25.3238374 126.867691,25.8114146 126.867691,26.4385691 C126.867691,26.995935 126.414537,27.518878 125.769935,27.518878 C125.177203,27.518878 124.67265,27.0831707 124.67265,26.4215935 Z M123.766813,37.1166992 L124.986228,36.8908293 L125.160228,35.5667317 L125.160228,31.9782764 L124.986228,30.6372033 L123.592341,30.4103902 L123.592341,29.8704715 L126.832325,29.5568943 L126.658325,31.9782764 L126.658325,35.5667317 L126.832325,36.8908293 L128.05174,37.1166992 L128.05174,37.6570894 L123.766813,37.6570894 L123.766813,37.1166992 L123.766813,37.1166992 Z" id="Fill-44"></path>
                <path d="M134.518976,33.7201626 C134.518976,31.4034634 133.770163,30.2189431 132.393724,30.2189431 C131.000309,30.2189431 130.233577,31.3162276 130.233577,33.7376098 C130.233577,36.1066504 130.982862,37.2911707 132.341854,37.2911707 C133.734797,37.2911707 134.518976,36.1415447 134.518976,33.7201626 Z M128.544033,33.8597398 C128.544033,31.351122 129.902553,29.4871057 132.480488,29.4871057 C134.710423,29.4871057 136.191073,30.9852033 136.191073,33.7027154 C136.191073,36.350439 134.60574,38.0404553 132.289041,38.0404553 C130.059577,38.0404553 128.544033,36.455122 128.544033,33.8597398 L128.544033,33.8597398 Z" id="Fill-45"></path>
                <path d="M136.807854,37.1166992 L138.027268,36.8908293 L138.219187,35.5667317 L138.219187,31.9782764 L138.027268,30.6372033 L136.633854,30.4103902 L136.633854,29.8704715 L139.699366,29.5568943 L139.507919,31.1247805 C140.222309,30.0270244 141.128146,29.5045528 142.312667,29.5045528 C143.810764,29.5045528 144.785919,30.497626 144.785919,32.222065 L144.785919,35.5667317 L144.960862,36.8908293 L146.197252,37.1166992 L146.197252,37.6570894 L142.103772,37.6570894 L142.103772,37.1166992 L143.096374,36.8908293 L143.270374,35.5667317 L143.270374,32.6403252 C143.270374,31.473252 142.713008,30.6890732 141.616195,30.6890732 C140.953675,30.6890732 140.466098,30.8809919 139.699366,31.7340163 L139.699366,35.5667317 L139.891285,36.8908293 L140.883886,37.1166992 L140.883886,37.6570894 L136.807854,37.6570894 L136.807854,37.1166992" id="Fill-46"></path>
                <path d="M151.378585,35.5841789 L151.378585,33.8946341 C150.350618,33.8946341 149.619252,34.0337398 149.14865,34.3298699 C148.67852,34.5911057 148.434732,35.0093659 148.434732,35.5492846 C148.434732,36.2283089 148.904862,36.7861463 149.583886,36.7861463 C150.159171,36.7861463 150.855642,36.350439 151.378585,35.5841789 Z M146.971057,35.9147317 C146.971057,35.1484715 147.302553,34.5038699 147.998553,33.9988455 C148.67852,33.4933496 149.793252,33.2325854 151.378585,33.2325854 L151.378585,32.2918537 C151.378585,31.1945691 150.716537,30.5499675 149.653675,30.5499675 C149.009073,30.5499675 148.364943,30.8112033 147.79013,31.3336748 L147.354423,30.8630732 C148.13813,29.9751545 149.20052,29.4173171 150.437854,29.4173171 C151.83174,29.4173171 152.841317,30.1666016 152.841317,31.8910407 L152.841317,35.5667317 L153.033707,36.8908293 L154.200309,37.1166992 L154.200309,37.6570894 L151.34322,37.9706667 L151.656797,36.0543089 C151.012195,37.2393008 150.176618,38.0225366 148.992098,38.0225366 C147.842,38.0225366 146.971057,37.2393008 146.971057,35.9147317 L146.971057,35.9147317 Z" id="Fill-47"></path>
                <polyline id="Fill-48" points="155.125951 37.1166992 156.344894 36.8908293 156.536341 35.5667317 156.536341 27.6230894 156.344894 26.2820163 154.951008 26.0556748 154.951008 25.5152846 158.191463 25.2017073 158.016992 27.6230894 158.016992 35.5667317 158.208439 36.8908293 159.410407 37.1166992 159.410407 37.6570894 155.125951 37.6570894 155.125951 37.1166992"></polyline>
                <path d="M163.976374,37.3953821 L163.801902,34.7481301 L164.690293,34.7481301 L165.038764,36.5767805 C165.631024,36.855935 166.170472,37.0822764 166.884862,37.0822764 C168.470195,37.0822764 169.620293,36.3155447 169.620293,35.0093659 C169.620293,33.5461626 168.226407,33.0057724 166.884862,32.500748 C165.230683,31.8735935 163.767008,31.2115447 163.767008,29.2084228 C163.767008,27.4490894 165.108081,25.8463089 167.703935,25.8463089 C168.592325,25.8463089 169.690081,26.0905691 170.62987,26.4385691 L170.82226,29.0688455 L169.951317,29.0688455 L169.567951,27.2053008 C169.027561,26.8742764 168.191984,26.6823577 167.669041,26.6823577 C165.944602,26.6823577 165.091106,27.6405366 165.091106,28.6336098 C165.091106,30.0444715 166.310049,30.4452846 167.529935,30.9328618 C169.306715,31.647252 170.978813,32.3965366 170.978813,34.5387642 C170.978813,36.6116748 169.306715,37.9706667 166.798098,37.9706667 C165.944602,37.9706667 165.212764,37.8834309 163.976374,37.3953821" id="Fill-49"></path>
                <path d="M173.071057,36.1415447 L173.071057,30.6023089 L171.712537,30.6023089 L171.712537,29.9751545 L173.071057,29.696 L173.071057,27.692878 L174.569154,27.4141951 L174.569154,29.8704715 L176.693935,29.8704715 L176.693935,30.6023089 L174.569154,30.6023089 L174.569154,35.5667317 C174.569154,36.455122 174.882732,36.855935 175.527333,36.855935 C175.806016,36.855935 176.276146,36.7686992 176.676959,36.5074634 L177.007512,37.0648293 C176.136569,37.7617724 175.561756,38.0225366 174.778049,38.0225366 C173.925024,38.0225366 173.071057,37.5873008 173.071057,36.1415447" id="Fill-50"></path>
                <path d="M179.158699,35.3054959 L179.158699,31.9782764 L178.967252,30.6372033 L177.608732,30.4103902 L177.608732,29.8704715 L180.830797,29.5568943 L180.656797,31.9782764 L180.656797,34.9046829 C180.656797,36.1066504 181.214163,36.8380163 182.311919,36.8380163 C183.060732,36.8380163 183.740228,36.3853333 184.227805,35.7930732 L184.227805,31.9782764 L184.053805,30.6372033 L182.695285,30.4103902 L182.695285,29.8704715 L185.91735,29.5568943 L185.726374,31.9782764 L185.726374,35.5667317 L185.91735,36.8908293 L187.17213,37.1166992 L187.17213,37.6570894 L184.227805,37.9706667 L184.419252,36.4027805 C183.60065,37.5349593 182.869285,38.0225366 181.631951,38.0225366 C180.099431,38.0225366 179.158699,37.0473821 179.158699,35.3054959" id="Fill-51"></path>
                <path d="M193.166878,35.7407317 L193.166878,30.5843902 C192.678358,30.3754959 192.295935,30.270813 191.755545,30.270813 C190.11787,30.270813 189.212504,31.6298049 189.212504,33.7720325 C189.212504,35.6709431 189.909447,36.8210407 191.267967,36.8210407 C191.877203,36.8210407 192.521805,36.5423577 193.166878,35.7407317 Z M187.644146,34.1384228 C187.644146,31.420439 189.352081,29.5045528 191.825333,29.5045528 C192.312911,29.5045528 192.696276,29.5568943 193.166878,29.6611057 L193.166878,27.6230894 L192.974959,26.2820163 L191.581545,26.0556748 L191.581545,25.5152846 L194.838976,25.2017073 L194.647057,27.6230894 L194.647057,35.5667317 L194.838976,36.8908293 L195.971154,37.1166992 L195.971154,37.6570894 L193.166878,38.0225366 L193.428114,36.3678862 C192.626488,37.4481951 191.807415,38.0225366 190.65826,38.0225366 C188.898927,38.0225366 187.644146,36.5074634 187.644146,34.1384228 L187.644146,34.1384228 Z" id="Fill-52"></path>
                <path d="M197.801691,26.4215935 C197.801691,25.8293333 198.289268,25.3238374 198.899447,25.3238374 C199.491236,25.3238374 199.99626,25.8114146 199.99626,26.4385691 C199.99626,26.995935 199.543577,27.518878 198.899447,27.518878 C198.306715,27.518878 197.801691,27.0831707 197.801691,26.4215935 Z M196.895382,37.1166992 L198.115268,36.8908293 L198.289268,35.5667317 L198.289268,31.9782764 L198.115268,30.6372033 L196.721382,30.4103902 L196.721382,29.8704715 L199.961837,29.5568943 L199.787366,31.9782764 L199.787366,35.5667317 L199.961837,36.8908293 L201.18078,37.1166992 L201.18078,37.6570894 L196.895382,37.6570894 L196.895382,37.1166992 L196.895382,37.1166992 Z" id="Fill-53"></path>
                <path d="M205.516634,32.4658537 L206.701154,32.2918537 C206.701154,30.9158862 206.056553,30.2014959 205.098846,30.2014959 C204.122748,30.2014959 203.443724,30.9328618 203.251805,32.4658537 L205.516634,32.4658537 Z M201.718813,33.8418211 C201.718813,31.1945691 203.060358,29.5045528 205.23748,29.5045528 C207.066602,29.5045528 208.338358,30.6890732 208.268569,33.1627967 L203.234358,33.1627967 C203.234358,33.1627967 203.216911,33.4065854 203.216911,33.5461626 C203.216911,35.5143902 204.175089,36.9078049 206.021659,36.9078049 C206.579024,36.9078049 207.206179,36.7686992 207.815886,36.3155447 L208.164358,36.7861463 C207.171756,37.6919837 206.422,38.0225366 205.168634,38.0225366 C203.09478,38.0225366 201.718813,36.5249106 201.718813,33.8418211 L201.718813,33.8418211 Z" id="Fill-54"></path>
                <path d="M209.613415,37.5524065 L209.473837,35.5143902 L210.240569,35.5143902 L210.536699,36.855935 C211.077089,37.0997236 211.494878,37.2393008 212.156455,37.2393008 C213.097659,37.2393008 213.689447,36.7686992 213.689447,35.9675447 C213.689447,34.9570244 212.731268,34.6608943 211.825902,34.3298699 C210.728146,33.8767154 209.439415,33.4933496 209.439415,31.925935 C209.439415,30.6023089 210.519724,29.4003415 212.365821,29.4003415 C213.15,29.4003415 213.915789,29.5568943 214.68252,29.9053659 L214.85652,31.9433821 L214.089789,31.9433821 L213.707366,30.5674146 C213.218846,30.3406016 212.714293,30.2189431 212.156455,30.2189431 C211.233171,30.2189431 210.710699,30.6023089 210.710699,31.3855447 C210.710699,32.3441951 211.686325,32.6403252 212.539821,32.970878 C213.776211,33.4414797 214.943756,33.8248455 214.943756,35.4446016 C214.943756,36.9078049 213.759236,38.0574309 211.999902,38.0574309 C211.425089,38.0574309 210.449935,37.8834309 209.613415,37.5524065" id="Fill-55"></path>
                <path d="M223.899333,35.5841789 L223.899333,33.8946341 C222.871366,33.8946341 222.14,34.0337398 221.669398,34.3298699 C221.199268,34.5911057 220.95548,35.0093659 220.95548,35.5492846 C220.95548,36.2283089 221.42561,36.7861463 222.105577,36.7861463 C222.679919,36.7861463 223.376862,36.350439 223.899333,35.5841789 Z M219.492276,35.9147317 C219.492276,35.1484715 219.823301,34.5038699 220.520244,33.9988455 C221.199268,33.4933496 222.314,33.2325854 223.899333,33.2325854 L223.899333,32.2918537 C223.899333,31.1945691 223.237285,30.5499675 222.174423,30.5499675 C221.529821,30.5499675 220.885691,30.8112033 220.310878,31.3336748 L219.875642,30.8630732 C220.658878,29.9751545 221.722211,29.4173171 222.958602,29.4173171 C224.352488,29.4173171 225.362065,30.1666016 225.362065,31.8910407 L225.362065,35.5667317 L225.554455,36.8908293 L226.721528,37.1166992 L226.721528,37.6570894 L223.864439,37.9706667 L224.178488,36.0543089 C223.533886,37.2393008 222.697366,38.0225366 221.512846,38.0225366 C220.36322,38.0225366 219.492276,37.2393008 219.492276,35.9147317 L219.492276,35.9147317 Z" id="Fill-56"></path>
                <path d="M228.189447,36.1415447 L228.189447,30.6023089 L226.830927,30.6023089 L226.830927,29.9751545 L228.189447,29.696 L228.189447,27.692878 L229.687545,27.4141951 L229.687545,29.8704715 L231.812797,29.8704715 L231.812797,30.6023089 L229.687545,30.6023089 L229.687545,35.5667317 C229.687545,36.455122 230.001122,36.855935 230.645724,36.855935 C230.924878,36.855935 231.395008,36.7686992 231.795821,36.5074634 L232.126374,37.0648293 C231.255431,37.7617724 230.681089,38.0225366 229.896911,38.0225366 C229.042943,38.0225366 228.189447,37.5873008 228.189447,36.1415447" id="Fill-57"></path>
                <polyline id="Fill-58" points="236.152423 37.1166992 237.563285 36.8380163 237.737285 35.0786829 237.737285 28.8250569 237.563285 27.0657236 236.152423 26.7870407 236.152423 26.2645691 239.914878 26.2645691 240.802797 28.8250569 243.433545 35.6709431 246.13361 28.8080813 246.952683 26.2645691 250.715138 26.2645691 250.715138 26.7870407 249.321252 27.0657236 249.129805 28.8250569 249.129805 35.0786829 249.321252 36.8380163 250.715138 37.1166992 250.715138 37.6570894 245.906797 37.6570894 245.906797 37.1166992 247.300683 36.8380163 247.49213 35.0786829 247.49213 27.4490894 244.496407 35.0786829 243.608016 37.6570894 242.475366 37.6570894 241.534634 35.0786829 238.521463 27.4490894 238.521463 35.0786829 238.712911 36.8380163 240.106797 37.1166992 240.106797 37.6570894 236.152423 37.6570894 236.152423 37.1166992"></polyline>
                <path d="M257.447854,33.7201626 C257.447854,31.4034634 256.699041,30.2189431 255.323073,30.2189431 C253.929187,30.2189431 253.162455,31.3162276 253.162455,33.7376098 C253.162455,36.1066504 253.91174,37.2911707 255.270732,37.2911707 C256.663675,37.2911707 257.447854,36.1415447 257.447854,33.7201626 Z M251.472911,33.8597398 C251.472911,31.351122 252.831431,29.4871057 255.409837,29.4871057 C257.639772,29.4871057 259.119951,30.9852033 259.119951,33.7027154 C259.119951,36.350439 257.534618,38.0404553 255.217919,38.0404553 C252.988455,38.0404553 251.472911,36.455122 251.472911,33.8597398 L251.472911,33.8597398 Z" id="Fill-59"></path>
                <path d="M259.910732,37.1166992 L261.130618,36.8908293 L261.322065,35.5667317 L261.322065,31.9782764 L261.130618,30.6372033 L259.736732,30.4103902 L259.736732,29.8704715 L262.803187,29.5568943 L262.610797,31.1247805 C263.325187,30.0270244 264.231496,29.5045528 265.416016,29.5045528 C266.913642,29.5045528 267.88974,30.497626 267.88974,32.222065 L267.88974,35.5667317 L268.06374,36.8908293 L269.30013,37.1166992 L269.30013,37.6570894 L265.20665,37.6570894 L265.20665,37.1166992 L266.199252,36.8908293 L266.374195,35.5667317 L266.374195,32.6403252 C266.374195,31.473252 265.816829,30.6890732 264.719073,30.6890732 C264.056553,30.6890732 263.568976,30.8809919 262.803187,31.7340163 L262.803187,35.5667317 L262.994163,36.8908293 L263.987707,37.1166992 L263.987707,37.6570894 L259.910732,37.6570894 L259.910732,37.1166992" id="Fill-60"></path>
                <path d="M270.812846,36.1415447 L270.812846,30.6023089 L269.454325,30.6023089 L269.454325,29.9751545 L270.812846,29.696 L270.812846,27.692878 L272.310943,27.4141951 L272.310943,29.8704715 L274.436667,29.8704715 L274.436667,30.6023089 L272.310943,30.6023089 L272.310943,35.5667317 C272.310943,36.455122 272.62452,36.855935 273.269122,36.855935 C273.548276,36.855935 274.018407,36.7686992 274.41922,36.5074634 L274.750244,37.0648293 C273.878829,37.7617724 273.304488,38.0225366 272.520309,38.0225366 C271.666813,38.0225366 270.812846,37.5873008 270.812846,36.1415447" id="Fill-61"></path>
                <path d="M279.138911,32.4658537 L280.323431,32.2918537 C280.323431,30.9158862 279.679301,30.2014959 278.721122,30.2014959 C277.745024,30.2014959 277.066,30.9328618 276.874081,32.4658537 L279.138911,32.4658537 Z M275.341561,33.8418211 C275.341561,31.1945691 276.682634,29.5045528 278.859756,29.5045528 C280.688878,29.5045528 281.960634,30.6890732 281.890846,33.1627967 L276.856634,33.1627967 C276.856634,33.1627967 276.839659,33.4065854 276.839659,33.5461626 C276.839659,35.5143902 277.797366,36.9078049 279.643935,36.9078049 C280.201301,36.9078049 280.828455,36.7686992 281.438634,36.3155447 L281.786634,36.7861463 C280.794033,37.6919837 280.044748,38.0225366 278.789967,38.0225366 C276.717057,38.0225366 275.341561,36.5249106 275.341561,33.8418211 L275.341561,33.8418211 Z" id="Fill-62"></path>
                <path d="M293.272992,32.4658537 L294.457512,32.2918537 C294.457512,30.9158862 293.812911,30.2014959 292.855203,30.2014959 C291.879106,30.2014959 291.200081,30.9328618 291.008163,32.4658537 L293.272992,32.4658537 Z M289.475171,33.8418211 C289.475171,31.1945691 290.816715,29.5045528 292.993837,29.5045528 C294.822959,29.5045528 296.094715,30.6890732 296.024927,33.1627967 L290.990715,33.1627967 C290.990715,33.1627967 290.973268,33.4065854 290.973268,33.5461626 C290.973268,35.5143902 291.931447,36.9078049 293.778016,36.9078049 C294.335382,36.9078049 294.962537,36.7686992 295.572244,36.3155447 L295.920715,36.7861463 C294.928114,37.6919837 294.178358,38.0225366 292.924049,38.0225366 C290.851138,38.0225366 289.475171,36.5249106 289.475171,33.8418211 L289.475171,33.8418211 Z" id="Fill-63"></path>
                <polyline id="Fill-64" points="297.360813 41.7854634 297.360813 41.1932033 299.102699 40.9145203 299.851512 39.6951057 300.600797 37.9357724 298.161967 31.9782764 297.447577 30.6192846 296.66387 30.4103902 296.66387 29.8704715 300.478667 29.8704715 300.478667 30.4103902 299.363935 30.6192846 299.781724 31.9782764 301.34961 36.0019675 302.812813 31.9782764 303.196179 30.6192846 302.098423 30.4103902 302.098423 29.8704715 305.234667 29.8704715 305.234667 30.4103902 304.346276 30.6192846 303.683756 31.9782764 299.886878 42.0118049 297.360813 41.7854634"></polyline>
            </g>
        </g>
    </g>
</svg>