<?xml version="1.0" encoding="UTF-8" standalone="no"?>
<svg width="52px" height="58px" viewBox="0 0 52 58" version="1.1" xmlns="http://www.w3.org/2000/svg" xmlns:xlink="http://www.w3.org/1999/xlink">
    <!-- Generator: Sketch 46.2 (44496) - http://www.bohemiancoding.com/sketch -->
    <title>miis-shield</title>
    <desc>Created with Sketch.</desc>
    <defs>
        <polygon id="path-1" points="51.7759273 0.304262295 0 0.304262295 0 29.1521074 0 57.9999525 51.7759273 57.9999525 51.7759273 0.304262295"></polygon>
    </defs>
    <g id="Page-2" stroke="none" stroke-width="1" fill="none" fill-rule="evenodd">
        <g id="Desktop-HD-Copy-8" transform="translate(-54.000000, -23.000000)">
            <g id="miis-logo" transform="translate(54.000000, 23.000000)">
                <g id="miis-shield">
                    <path d="M5.04434641,13.5089221 L7.16693754,13.5089221 C7.1943348,14.2272637 7.27838403,14.9112438 7.41258417,15.5487894 L5.59693522,15.5487894 C5.29928024,14.9200663 5.10564198,14.2337645 5.04434641,13.5089221 L5.04434641,13.5089221 Z M5.59693522,10.4512106 L7.41258417,10.4512106 C7.27838403,11.0882919 7.1943348,11.772272 7.16693754,12.4906136 L5.04434641,12.4906136 C5.10564198,11.7657711 5.29881588,11.0799337 5.59693522,10.4512106 L5.59693522,10.4512106 Z M8.58509403,7.53187396 C8.2224286,8.05658375 7.91734386,8.70063018 7.6814488,9.43290216 L6.20989088,9.43290216 C6.82284653,8.6119403 7.63779893,7.95210614 8.58509403,7.53187396 L8.58509403,7.53187396 Z M10.4908289,7.14553897 L10.4908289,9.43290216 L8.74994195,9.43290216 C9.18922684,8.2358209 9.82772231,7.42461028 10.4908289,7.14553897 L10.4908289,7.14553897 Z M10.4908289,12.4906136 L8.18481542,12.4906136 C8.21453448,11.7499834 8.30740655,11.0664677 8.44950081,10.4512106 L10.4908289,10.4512106 L10.4908289,12.4906136 Z M10.4908289,15.5487894 L8.44950081,15.5487894 C8.30740655,14.9335323 8.21453448,14.2500166 8.18481542,13.5089221 L10.4908289,13.5089221 L10.4908289,15.5487894 Z M10.4908289,18.8539967 C9.82772231,18.5753897 9.18922684,17.7641791 8.74994195,16.5670978 L10.4908289,16.5670978 L10.4908289,18.8539967 Z M6.21035524,16.5670978 L7.68191316,16.5670978 C7.91734386,17.2993698 8.2224286,17.9434163 8.58555839,18.4676617 C7.63826329,18.0478939 6.82331089,17.3880597 6.21035524,16.5670978 L6.21035524,16.5670978 Z M11.5091711,16.5670978 L13.2495937,16.5670978 C12.8107732,17.7637148 12.1722777,18.574461 11.5091711,18.8539967 L11.5091711,16.5670978 Z M11.5091711,13.5089221 L13.8151846,13.5089221 C13.7854655,14.2500166 13.6925935,14.9335323 13.5504992,15.5487894 L11.5091711,15.5487894 L11.5091711,13.5089221 Z M11.5091711,10.4512106 L13.5504992,10.4512106 C13.6930578,11.0664677 13.7854655,11.7499834 13.8151846,12.4906136 L11.5091711,12.4906136 L11.5091711,10.4512106 Z M11.5091711,7.14600332 C12.1722777,7.42507463 12.8107732,8.23628524 13.250058,9.43290216 L11.5091711,9.43290216 L11.5091711,7.14600332 Z M15.7905735,9.43290216 L14.3185512,9.43290216 C14.0826561,8.70016584 13.777107,8.0561194 13.4139772,7.53140962 C14.3617367,7.95117745 15.1771535,8.61147595 15.7905735,9.43290216 L15.7905735,9.43290216 Z M16.4035291,10.4512106 C16.7016485,11.0799337 16.894358,11.7657711 16.9556536,12.4906136 L14.8330625,12.4906136 C14.8056652,11.772272 14.721616,11.0882919 14.5874158,10.4512106 L16.4035291,10.4512106 Z M16.4035291,15.5487894 L14.5874158,15.5487894 C14.721616,14.9112438 14.8056652,14.2272637 14.8330625,13.5089221 L16.9556536,13.5089221 C16.894358,14.2337645 16.7011841,14.9200663 16.4035291,15.5487894 L16.4035291,15.5487894 Z M13.4139772,18.4685904 C13.777107,17.9438806 14.0821918,17.2993698 14.3180868,16.5670978 L15.7901091,16.5670978 C15.1771535,17.388524 14.3617367,18.0483582 13.4139772,18.4685904 L13.4139772,18.4685904 Z M11.0002322,20 C14.8599954,20 18,16.8596352 18,12.9995357 C18,9.1399005 14.8599954,6 11.0002322,6 C7.140469,6 4,9.1399005 4,12.9995357 C4,16.8596352 7.140469,20 11.0002322,20 L11.0002322,20 Z" id="Fill-1" fill="#FFFFFF"></path>
                    <polygon id="Fill-3" fill="#FFFFFF" points="46 16.9053035 46 9 44.9076529 9 44.9076529 16.2814204 39.003024 19.7373796 33.0923471 16.2809562 33.0923471 9 32 9 32 16.9053035 39.003024 21"></polygon>
                    <path d="M38,17 L38,9.51231434 C36.7655838,7.04831403 34.0175593,7.00023365 34.0175593,7.00023365 C33.9780509,6.95167723 34.0175593,14.4874433 34.0175593,14.4874433 C34.0175593,14.4874433 36.7655838,14.5359997 38,17" id="Fill-5" fill="#FFFFFF"></path>
                    <path d="M43.9820472,14.4875629 C43.9820472,14.4875629 44.022441,6.95167951 43.9820472,7.00023362 C43.9820472,7.00023362 41.2343999,7.04831171 40,9.51219474 L40,17 C41.2343999,14.535641 43.9820472,14.4875629 43.9820472,14.4875629" id="Fill-7" fill="#FFFFFF"></path>
                    <path d="M20.1412413,23.5624422 L20.1412413,23.0380804 L21.7166619,23.0380804 C21.9856478,20.9707466 23.8210246,19.3656353 26.0384944,19.3656353 C28.255489,19.3656353 30.0908659,20.9707466 30.3593765,23.0380804 L31.8715902,23.0380804 L31.8715902,23.5624422 C31.8715902,25.3238584 33.3719228,26.7568911 35.2153788,26.7568911 L35.7352913,26.7568911 L35.7400437,28.4332239 L38.7825302,28.4337019 L38.7825302,28.4427839 C39.3357095,28.4958414 39.8318601,28.8490807 40.0172037,29.3868264 C40.2182302,29.9699818 39.8860374,30.5990249 39.2758293,30.7926134 C38.7872826,30.9465282 38.2611919,30.6936681 38.0996103,30.2271438 C38.0055128,29.954208 38.0953331,29.6659762 38.3034883,29.4824257 L34.7006939,29.4819477 L34.6959415,27.7755011 C32.698983,27.5465409 31.1093052,26.0150409 30.8626556,24.0868041 L29.3509172,24.0868041 L29.3509172,23.5624422 C29.3509172,21.8263599 27.8648417,20.413881 26.0384944,20.413881 C24.2116719,20.413881 22.7255964,21.8263599 22.7255964,23.5624422 L22.7255964,24.0868041 L21.1501758,24.0868041 C20.903051,26.0236449 19.3043437,27.5623148 17.2964547,27.791753 L17.2969299,29.4542239 L13.5577417,29.4580479 C13.766372,29.6310825 13.8680734,29.9064083 13.792035,30.1783882 C13.6584925,30.6530385 13.1490353,30.9341003 12.6519342,30.8069533 C12.0307956,30.6477805 11.6615341,30.0378573 11.8273928,29.444186 C12.0027564,28.8194449 12.5972816,28.4141041 13.2450337,28.420318 L13.2450337,28.4102801 L16.2542534,28.4064561 L16.2537782,26.773143 L16.7751164,26.773143 C18.6309286,26.773143 20.1412413,25.3329403 20.1412413,23.5624422 M28.7155213,28.7539594 L28.7155213,30.199898 L27.2760194,30.199898 C27.1833476,30.8107772 26.663435,31.2806475 26.0299401,31.2806475 C25.3964452,31.2806475 24.8765326,30.8107772 24.7838608,30.199898 L23.3457846,30.199898 L23.3457846,28.7544374 C22.7322498,28.6664861 22.259386,28.1411682 22.259386,27.4996973 C22.259386,26.8582263 22.7322498,26.3329084 23.3457846,26.2449571 L23.3457846,24.7994965 L24.7824351,24.7994965 C24.8684536,24.1814474 25.3912176,23.7039291 26.0299401,23.7039291 C26.6686627,23.7039291 27.1914267,24.1814474 27.2779203,24.7994965 L28.7155213,24.7994965 L28.7155213,26.2449571 C29.3271552,26.3348204 29.7985933,26.8596603 29.7985933,27.4996973 C29.7985933,28.1397342 29.3271552,28.6640961 28.7155213,28.7539594 M18.7601939,23.5117746 C18.7601939,24.6436697 17.6262713,25.4352315 16.2285904,25.4352315 L14.9577987,25.4352315 L14.9592244,27.1703579 L10.750499,27.1665339 L10.7514495,31.7768076 L6,31.7768076 L6,33 L46,33 L46,31.7768076 L43.1157685,31.7768076 L43.1157685,31.7748956 L41.1577797,31.7748956 L41.152552,27.1340301 L37.0635871,27.1378541 L37.0588347,25.4352315 L35.7005988,25.4352315 C34.3019675,25.4352315 33.1685201,24.6436697 33.1685201,23.5117746 C33.1685201,23.465409 33.1699458,21.7054269 33.1699458,21.7054269 L31.2932231,21.7087728 C30.4815132,19.649087 28.3372303,18 26.0185344,18 C23.7036403,18 21.4980515,19.6443071 20.6839654,21.6992129 L18.7573425,21.6992129 C18.7573425,21.6992129 18.7601939,23.4553711 18.7601939,23.5117746" id="Fill-9" fill="#FFFFFF"></path>
                    <path d="M7,33.5343891 L7.04799737,33.5343891 C7.83563426,33.7669683 7.88411161,34.6171946 7.88411161,34.6171946 L7.88411161,35 L8.91701507,35 L8.91701507,34.399095 C8.91701507,34.399095 8.96597239,33.5900452 9.75216935,33.3687783 L9.80160665,33.3687783 C10.5892435,33.5900452 10.6377209,34.399095 10.6377209,34.399095 L10.6377209,35 L11.8381352,35 L11.8381352,34.399095 C11.8381352,34.399095 11.8885324,33.5900452 12.6747294,33.3687783 L12.7251266,33.3687783 C13.5118036,33.5900452 13.5602809,34.399095 13.5602809,34.399095 L13.5602809,35 L14.7947733,35 L14.7947733,34.399095 C14.7947733,34.399095 14.8432507,33.5900452 15.6304076,33.3687783 L15.6808048,33.3687783 C16.4674818,33.5900452 16.5154792,34.399095 16.5154792,34.399095 L16.5154792,35 L17.7178133,35 L17.7178133,34.399095 C17.7178133,34.399095 17.7667707,33.5900452 18.5539276,33.3687783 L18.6028849,33.3687783 C19.3905218,33.5900452 19.4394791,34.399095 19.4394791,34.399095 L19.4394791,35 L20.6907706,35 L20.6907706,34.399095 C20.6907706,34.399095 20.739248,33.5900452 21.5264049,33.3687783 L21.5763221,33.3687783 C22.3629991,33.5900452 22.4119564,34.399095 22.4119564,34.399095 L22.4119564,35 L23.6128507,35 L23.6128507,34.399095 C23.6128507,34.399095 23.662288,33.5900452 24.4489649,33.3687783 L24.4979222,33.3687783 C25.2860391,33.5900452 25.3345164,34.399095 25.3345164,34.399095 L25.3345164,35 L26.5690089,35 L26.5690089,34.399095 C26.5690089,34.399095 26.6184461,33.5900452 27.4051231,33.3687783 L27.4540804,33.3687783 C28.2412373,33.5900452 28.2897147,34.399095 28.2897147,34.399095 L28.2897147,35 L29.4915689,35 L29.4915689,34.399095 C29.4915689,34.399095 29.5410062,33.5900452 30.3281631,33.3687783 L30.3776004,33.3687783 C31.1637974,33.5900452 31.2132346,34.399095 31.2132346,34.399095 L31.2132346,35 L32.430448,35 L32.430448,34.399095 C32.430448,34.399095 32.4803653,33.5900452 33.2670422,33.3687783 L33.3164795,33.3687783 C34.1036364,33.5900452 34.1535537,34.399095 34.1535537,34.399095 L34.1535537,35 L35.4029253,35 L35.4029253,34.399095 C35.4029253,34.399095 35.4523626,33.5900452 36.2395195,33.3687783 L36.2884768,33.3687783 C37.0751538,33.5900452 37.1241111,34.399095 37.1241111,34.399095 L37.1241111,35 L38.3264453,35 L38.3264453,34.399095 C38.3264453,34.399095 38.3754026,33.5900452 39.1625595,33.3687783 L39.2115168,33.3687783 C39.9986738,33.5900452 40.0481111,34.399095 40.0481111,34.399095 L40.0481111,35 L41.2811636,35 L41.2811636,34.399095 C41.2811636,34.399095 41.3310808,33.5900452 42.1172778,33.3687783 L42.1671951,33.3687783 C42.953872,33.5900452 43.0033093,34.399095 43.0033093,34.399095 L43.0033093,35 L44.0352528,35 L44.0352528,34.6171946 C44.0352528,34.6171946 44.0842101,33.7669683 44.871367,33.5343891 L44.9212843,33.5343891 C44.9491228,33.5425339 44.9740814,33.5533937 45,33.5628959 L45,33 L7,33 L7,33.5343891 Z" id="Fill-11" fill="#FFFFFF"></path>
                    <g id="Group-15">
                        <mask id="mask-2" fill="white">
                            <use xlink:href="#path-1"></use>
                        </mask>
                        <g id="Clip-14"></g>
                        <path d="M50.2272727,26.1688869 C50.2272727,26.1688869 50.2249091,27.5661164 49.712,29.8295426 L49.7134182,29.8295426 C48.9806909,33.065182 47.2004,38.076477 42.8749455,43.3411656 L42.8806182,36.3350508 L8.74214545,36.3350508 L8.74214545,36.6473951 L8.74214545,43.1105918 C4.54952727,37.9310016 2.79901818,33.0181164 2.07007273,29.8295426 L2.07149091,29.8295426 C1.55385455,27.5661164 1.54818182,26.1688869 1.54818182,26.1688869 L1.54818182,1.81078852 L50.2272727,1.81078852 L50.2272727,26.1688869 Z M36.1943636,49.8152967 C33.3693455,52.0288049 29.9784727,54.1757557 25.9012,56.138723 C21.7672,54.1477066 18.3361455,51.9670016 15.4865455,49.7187885 C15.4870182,49.5362311 15.4870182,49.4368705 15.4874909,49.4363951 C15.4874909,43.6863131 20.1230545,39.0239689 25.8411636,39.0239689 C31.5588,39.0239689 36.1943636,43.6863131 36.1943636,49.4363951 C36.1943636,49.4349689 36.1943636,49.5704607 36.1943636,49.8152967 L36.1943636,49.8152967 Z M0,0.304214754 L0,26.7541164 C0.000472727273,26.7983295 0.0633454545,31.5234279 3.30483636,37.718018 C6.27876364,43.4015426 12.6104727,51.5144115 25.9026182,57.9999525 C39.2056364,51.5120344 45.5293091,43.399641 48.4937818,37.7170672 C51.7258182,31.5234279 51.7759273,26.8002311 51.7759273,26.7531656 L51.7759273,0.304214754 L0,0.304214754 Z" id="Fill-13" fill="#FFFFFF" mask="url(#mask-2)"></path>
                    </g>
                    <path d="M22.2490104,45 L21.6201697,45 L20,45.8529599 L20.2171536,46.2106938 C20.3138549,46.1865054 20.6124411,46.0897518 20.8301602,46.0099724 C21.0478794,45.9318905 21.2978322,45.8109484 21.3781338,45.774878 L21.3781338,48.4619139 L20.4427898,48.4619139 L20.4427898,49 L23,49 L23,48.4619139 L22.2490104,48.4619139 L22.2490104,45 Z" id="Fill-16" fill="#FFFFFF"></path>
                    <path d="M25.15811,46.7411628 C24.9382099,46.9123044 24.7432985,46.9833881 24.4970468,46.9833881 C24.056338,46.9833881 23.784189,46.7025304 23.784189,46.2563261 C23.784189,45.7823064 24.0695139,45.4740197 24.4970468,45.4740197 C24.9382099,45.4740197 25.2226261,45.7996909 25.2226261,46.3223875 C25.2226261,46.4823257 25.2094502,46.581611 25.15811,46.7411628 M24.5229441,45 C23.6542481,45 23,45.5400811 23,46.2671431 C23,46.9509368 23.5833712,47.4577941 24.35393,47.4577941 C24.5806452,47.4577941 24.7887324,47.4137531 25.0022717,47.308673 C24.9572921,47.4021634 24.8986824,47.5014487 24.8464334,47.5729187 C24.568378,47.9584702 24.0826897,48.2841414 23.5765561,48.4823257 C23.3889141,48.5592042 23.2530668,48.5978366 23.052249,48.6306741 L23.4275329,49 C24.0045434,48.8953062 24.5942753,48.5978366 25.0218083,48.2567124 C25.6569741,47.7494688 26,47.1158972 26,46.4270813 C26,45.6505698 25.5011358,45 24.5229441,45" id="Fill-18" fill="#FFFFFF"></path>
                    <path d="M27.4324843,46.4509924 C27.2765178,46.4509924 27.2163294,46.4570992 27.014829,46.4798982 L27.1346825,45.5398473 L28.6493371,45.5398473 L28.7759944,45 L26.3731682,45 L26.1339846,47.0958779 C26.4993022,46.9912468 26.8285066,46.9448346 27.1566643,46.9448346 C27.724529,46.9448346 28.104501,47.1768957 28.104501,47.6243257 C28.104501,48.1637659 27.4848221,48.559084 26.6416609,48.559084 C26.4030007,48.559084 26.2533147,48.5411705 26,48.477659 L26.1716678,48.9535878 C26.4030007,48.9943003 26.4993022,49 26.7316818,49 C27.1938241,49 27.6564899,48.9185751 28.0144801,48.7736387 C28.6116539,48.5354707 29,48.0766412 29,47.5656997 C29,46.8691094 28.2981507,46.4509924 27.4324843,46.4509924" id="Fill-20" fill="#FFFFFF"></path>
                    <path d="M30.4327577,46.4509924 C30.2762951,46.4509924 30.2166405,46.4570992 30.0151753,46.4798982 L30.1350078,45.5398473 L31.6493982,45.5398473 L31.7760335,45 L29.3736264,45 L29.1344846,47.0958779 C29.4997384,46.9912468 29.8288854,46.9448346 30.1569859,46.9448346 C30.7247514,46.9448346 31.104134,47.1768957 31.104134,47.6243257 C31.104134,48.1637659 30.4845631,48.559084 29.6415489,48.559084 C29.4034537,48.559084 29.2537938,48.5411705 29,48.477659 L29.1716379,48.9535878 C29.4034537,48.9943003 29.4997384,49 29.7315542,49 C30.1941392,49 30.6567242,48.9185751 31.014652,48.7736387 C31.6117216,48.5354707 32,48.0766412 32,47.5656997 C32,46.8691094 31.2982732,46.4509924 30.4327577,46.4509924" id="Fill-22" fill="#FFFFFF"></path>
                </g>
            </g>
        </g>
    </g>
</svg>