<?xml version="1.0" encoding="UTF-8" standalone="no"?>
<svg width="21px" height="21px" viewBox="0 0 21 21" version="1.1" xmlns="http://www.w3.org/2000/svg" xmlns:xlink="http://www.w3.org/1999/xlink">
    <!-- Generator: Sketch 43.2 (39069) - http://www.bohemiancoding.com/sketch -->
    <title>social-instagram</title>
    <desc>Created with Sketch.</desc>
    <defs></defs>
    <g id="Page-1" stroke="none" stroke-width="1" fill="none" fill-rule="evenodd">
        <g id="social-instagram" fill-rule="nonzero" fill="#010101">
            <path d="M10,2.8 C12.7,2.8 13,2.8 14,2.9 C15,2.9 15.5,3.1 15.9,3.2 C16.4,3.4 16.7,3.6 17,4 C17.3,4.3 17.6,4.7 17.7,5.1 C17.9,5.5 18.1,6 18.1,7 C18.1,8.1 18.2,8.4 18.2,11 C18.2,13.6 18.2,14 18.1,15 C18.1,16 17.9,16.5 17.8,16.9 C17.6,17.4 17.4,17.7 17.1,18 C16.8,18.3 16.4,18.6 16,18.7 C15.6,18.8 15.1,19 14.1,19 C13,19 12.7,19.1 10.1,19.1 C7.5,19.1 7.1,19.1 6.1,19 C5.1,19 4.6,18.8 4.2,18.7 C3.6,18.6 3.3,18.4 3,18 C2.7,17.7 2.4,17.3 2.3,16.9 C2.1,16.5 1.9,16 1.9,15 C1.9,13.9 1.8,13.6 1.8,11 C1.8,8.4 1.8,8 1.9,7 C1.9,6 2.1,5.5 2.2,5.1 C2.4,4.6 2.6,4.3 3,4 C3.3,3.7 3.7,3.4 4.1,3.3 C4.5,3.1 5,2.9 6,2.9 C7,2.8 7.3,2.8 10,2.8 L10,2.8 Z M10,1 C7.3,1 6.9,1 5.9,1.1 C4.8,1.1 4.1,1.3 3.5,1.6 C2.8,1.8 2.2,2.1 1.7,2.7 C1.1,3.2 0.8,3.8 0.5,4.4 C0.3,5.1 0.1,5.8 0.1,6.9 C0,7.9 0,8.3 0,11 C0,13.7 0,14.1 0.1,15.1 C0.1,16.2 0.3,16.9 0.6,17.5 C0.9,18.2 1.2,18.7 1.8,19.3 C2.4,19.9 2.9,20.2 3.6,20.5 C4.2,20.7 5,20.9 6,21 L10,21 C12.7,21 13.1,21 14.1,20.9 C15.2,20.9 15.9,20.7 16.5,20.4 C17.2,20.1 17.7,19.8 18.3,19.2 C18.9,18.6 19.2,18.1 19.5,17.4 C19.7,16.8 19.9,16 20,15 C20,13.9 20.1,13.6 20.1,10.9 C20.1,8.2 20.1,7.8 20,6.8 C20,5.7 19.8,5 19.5,4.4 C19.2,3.7 18.9,3.2 18.3,2.6 C17.7,2 17.2,1.7 16.5,1.4 C15.9,1.2 15.1,1 14.1,0.9 C13.1,1 12.7,1 10,1 L10,1 Z" id="Shape"></path>
            <path d="M10,5.9 C7.2,5.9 4.9,8.2 4.9,11 C4.9,13.8 7.2,16.1 10,16.1 C12.8,16.1 15.1,13.8 15.1,11 C15.1,8.2 12.8,5.9 10,5.9 Z M10,14.3 C8.2,14.3 6.7,12.8 6.7,11 C6.7,9.2 8.2,7.7 10,7.7 C11.8,7.7 13.3,9.2 13.3,11 C13.3,12.8 11.8,14.3 10,14.3 Z" id="Shape"></path>
            <circle id="Oval" cx="15.3" cy="5.7" r="1.2"></circle>
        </g>
    </g>
</svg>