<?xml version="1.0" encoding="UTF-8" standalone="no"?>
<svg width="20px" height="20px" viewBox="0 0 20 20" version="1.1" xmlns="http://www.w3.org/2000/svg" xmlns:xlink="http://www.w3.org/1999/xlink">
    <!-- Generator: Sketch 43.2 (39069) - http://www.bohemiancoding.com/sketch -->
    <title>social-facebook</title>
    <desc>Created with Sketch.</desc>
    <defs></defs>
    <g id="Page-1" stroke="none" stroke-width="1" fill="none" fill-rule="evenodd">
        <g id="social-facebook">
            <path d="M18.9,0 L1.1,0 C0.5,0 0,0.5 0,1.1 L0,18.9 C0,19.5 0.5,20 1.1,20 L10.7,20 L10.7,12.3 L8.1,12.3 L8.1,9.3 L10.7,9.3 L10.7,7 C10.7,4.4 12.3,3 14.6,3 C15.7,3 16.7,3.1 16.9,3.1 L16.9,5.8 L15.3,5.8 C14,5.8 13.8,6.4 13.8,7.3 L13.8,9.2 L16.8,9.2 L16.4,12.2 L13.8,12.2 L13.8,20 L18.9,20 C19.5,20 20,19.5 20,18.9 L20,1.1 C20,0.5 19.5,0 18.9,0 Z" id="Shape"></path>
        </g>
    </g>
</svg>