<svg viewBox="0 0 18 22" xmlns="http://www.w3.org/2000/svg"><g id="Page-1" stroke="none" stroke-width="1" fill-rule="evenodd"><g id="icon-compass"><path d="M9.4 3.3v-.4c.6-.2 1.1-.7 1.1-1.4C10.5.7 9.9.1 9.1.1c-.8 0-1.4.6-1.4 1.4 0 .7.5 1.2 1.1 1.4v.4c-5 .2-8.8 4.2-8.8 9 0 5 4 9 9 9s9-4 9-9c0-4.8-3.9-8.8-8.6-9zM8.3 1.5c0-.4.3-.7.7-.7.4 0 .7.3.7.7 0 .4-.3.7-.7.7-.4 0-.7-.3-.7-.7zM4.6 17.2h-.2c-.1 0-.2 0-.3-.1-.1-.1-.1-.2 0-.4L7 10.9l3.4 3.4-5.8 2.9zm9.3-9.3L11 13.8l-3.4-3.4 5.9-2.9c.1-.1.3 0 .4.1 0 0 .1.1 0 .3z" id="Shape"/></g></g></svg>