<svg width="32" height="32" xmlns="http://www.w3.org/2000/svg"><g id="social-icons" stroke="none" stroke-width="1" fill="none" fill-rule="evenodd"><g id="icon-linkedin" fill="#000"><path d="M27.267 27.267h-4.744v-7.426c0-1.772-.032-4.05-2.465-4.05-2.47 0-2.849 1.93-2.849 3.923v7.553h-4.744v-15.27h4.554v2.087h.065c.633-1.201 2.18-2.466 4.49-2.466 4.807 0 5.693 3.162 5.693 7.275v8.374zM7.114 9.911a2.751 2.751 0 0 1-2.748-2.753c0-1.52 1.23-2.754 2.748-2.754a2.753 2.753 0 0 1 0 5.507zM4.742 27.267H9.49v-15.27H4.742v15.27zM29.632 0H2.36C1.059 0 0 1.033 0 2.308V29.69C0 30.965 1.059 32 2.36 32h27.271c1.306 0 2.367-1.035 2.367-2.31V2.308C31.998 1.033 30.937 0 29.63 0z" id="Fill-1"/></g></g></svg>