<svg viewBox="0 0 32 32" xmlns="http://www.w3.org/2000/svg"><title>icon-facebook</title><g id="social-icons" fill="none" fill-rule="evenodd"><g id="icon-facebook" fill="#000"><path d="M30.234 0H1.766C.791 0 0 .79 0 1.766v28.468C0 31.209.79 32 1.766 32h15.326V19.608h-4.17v-4.83h4.17v-3.561c0-4.133 2.525-6.384 6.212-6.384 1.766 0 3.284.132 3.726.19v4.32l-2.557.001c-2.005 0-2.394.953-2.394 2.351v3.083h4.783l-.623 4.83h-4.16V32h8.155c.975 0 1.766-.79 1.766-1.766V1.766C32 .791 31.21 0 30.234 0" id="Fill-1"/></g></g></svg>