<svg xmlns="http://www.w3.org/2000/svg" viewBox="0 0 32 32"><g id="social-icons" stroke="none" stroke-width="1" fill="none" fill-rule="evenodd"><g id="icon-vimeo" fill="#000"><path d="M18.346 9.518c3.656-2.207 5.61.893 3.74 4.38-1.87 3.488-3.571 5.78-4.464 5.78-.893 0-1.584-2.343-2.594-6.436C13.966 9.03 13.966 1.415 9.586 2.29 5.442 3.1 0 9.603 0 9.603l1.297 1.701s2.679-2.123 3.572-1.061c.893 1.061 4.313 13.814 5.441 16.173.994 2.055 3.74 4.785 6.74 2.83 3.014-1.936 13.004-10.479 14.79-20.553C33.627-1.365 19.812.74 18.346 9.518" id="Fill-1"/></g></g></svg>