<svg xmlns="http://www.w3.org/2000/svg" viewBox="0 0 32 32"><g id="social-icons" stroke="none" stroke-width="1" fill="none" fill-rule="evenodd"><g id="icon-twitter" fill="#000"><path d="M31.106 2.525A12.51 12.51 0 0126.93 4.24C25.74 2.857 24.032 2 22.148 2c-3.626 0-6.56 3.168-6.56 7.07 0 .56.054 1.102.16 1.61-5.456-.297-10.291-3.115-13.526-7.385a7.425 7.425 0 00-.889 3.553c0 2.45 1.156 4.62 2.915 5.88a6.233 6.233 0 01-2.968-.876v.088c0 3.43 2.257 6.283 5.261 6.93a6.312 6.312 0 01-2.968.122c.835 2.8 3.27 4.848 6.132 4.9-2.24 1.908-5.066 3.028-8.14 3.028-.534 0-1.067-.035-1.565-.088C2.897 28.828 6.346 30 10.06 30c12.07 0 18.664-10.762 18.664-20.108l-.017-.91c1.297-.997 2.4-2.24 3.288-3.674-1.19.577-2.453.945-3.768 1.12 1.35-.875 2.382-2.258 2.88-3.903" id="Page-1"/></g></g></svg>