<svg xmlns="http://www.w3.org/2000/svg" viewBox="0 0 29 20"><g id="Page-1" stroke="none" stroke-width="1" fill-rule="evenodd"><g id="social-youtube"><path d="M28.2 4.3s-.3-2-1.1-2.8C26 .4 24.8.4 24.3.3 20.2 0 14.2 0 14.2 0s-6 0-9.9.3c-.6.1-1.8.1-2.9 1.2C.6 2.4.3 4.3.3 4.3S0 6.6 0 8.9v2.2c0 2.3.3 4.6.3 4.6s.3 2 1.1 2.8c1.1 1.1 2.5 1.1 3.1 1.2 2.3.2 9.7.3 9.7.3s6 0 10-.3c.6-.1 1.8-.1 2.8-1.2.9-.9 1.1-2.8 1.1-2.8s.3-2.3.3-4.6V8.9c0-2.3-.2-4.6-.2-4.6zm-16.9 9.4v-8l7.7 4-7.7 4z" id="Shape"/></g></g></svg>