<svg viewBox="0 0 21 21" xmlns="http://www.w3.org/2000/svg"><g id="Page-1" stroke="none" stroke-width="1" fill-rule="evenodd"><g id="icon-calendar"><path d="M18.6 1.7h-.8c0-.9-.7-1.6-1.6-1.6-.9 0-1.6.7-1.6 1.6H6.5C6.5.8 5.8.1 4.9.1 4 .1 3.2.8 3.2 1.7h-.8C1.1 1.7 0 2.8 0 4.1v13.7c0 1.3 1.1 2.4 2.4 2.4h16.2c1.3 0 2.4-1.1 2.4-2.4V4.1c0-1.3-1.1-2.4-2.4-2.4zM2.8 4.5c0-.5.2-.9.4-1.2 0 .9.7 1.6 1.6 1.6.9 0 1.6-.7 1.6-1.6.3.3.4.7.4 1.2 0 1.1-.9 2-2 2-1.1.1-2-.8-2-2zm8.1 11.9H5V15l2.6-2.2c1-.7 1.4-1.2 1.4-1.8 0-.7-.4-1-1.1-1-.6 0-1 .3-1.6 1.1l-1.2-1c.8-1.1 1.5-1.6 3-1.6 1.7 0 2.7 1 2.7 2.5 0 1.3-.7 2-2.1 3.1l-1.3 1h3.5v1.3zm4.3 0h-1.7v-6.2l-1.4.3-.4-1.4 2.3-.6h1.2v7.9zm1-9.8c-1.1 0-2-.9-2-2 0-.5.2-.9.4-1.2 0 .9.7 1.6 1.6 1.6.9 0 1.6-.7 1.6-1.6.3.3.4.7.4 1.2 0 1.1-.9 2-2 2z" id="Shape"/></g></g></svg>