<svg xmlns="http://www.w3.org/2000/svg" viewBox="0 0 32 32"><g id="social-icons" stroke="none" stroke-width="1" fill="none" fill-rule="evenodd"><g id="icon-instagram" fill="#000"><g id="Group"><path d="M24.54 5.54a1.92 1.92 0 100 3.838 1.92 1.92 0 000-3.839" id="Fill-1"/><path d="M29.024 22.465c-.07 1.56-.331 2.407-.55 2.972a4.967 4.967 0 01-1.197 1.84c-.56.56-1.093.905-1.84 1.196-.565.22-1.412.48-2.972.55-1.686.078-2.193.094-6.465.094s-4.778-.016-6.466-.093c-1.56-.07-2.406-.331-2.971-.55a4.96 4.96 0 01-1.838-1.197 4.947 4.947 0 01-1.197-1.84c-.22-.565-.48-1.412-.552-2.972-.077-1.688-.093-2.193-.093-6.465s.016-4.778.093-6.466c.072-1.56.333-2.406.552-2.971a4.954 4.954 0 011.197-1.838 4.94 4.94 0 011.838-1.197c.565-.22 1.411-.48 2.971-.552 1.688-.077 2.194-.093 6.466-.093s4.777.016 6.465.093c1.56.072 2.407.333 2.972.552.747.29 1.28.637 1.84 1.197s.905 1.092 1.196 1.838c.22.565.48 1.411.55 2.971.078 1.688.094 2.194.094 6.466s-.016 4.777-.093 6.465m2.88-13.062c-.079-1.702-.349-2.866-.744-3.883a7.809 7.809 0 00-1.845-2.834A7.861 7.861 0 0026.481.84C25.462.445 24.3.174 22.597.096 20.89.019 20.345 0 16 0c-4.346 0-4.89.019-6.597.096C7.701.174 6.537.445 5.52.84a7.834 7.834 0 00-2.834 1.846A7.834 7.834 0 00.84 5.52C.445 6.537.174 7.7.096 9.403.019 11.11 0 11.654 0 16c0 4.345.019 4.891.096 6.597.078 1.704.349 2.865.744 3.884a7.861 7.861 0 001.846 2.834A7.809 7.809 0 005.52 31.16c1.017.395 2.18.665 3.883.744C11.11 31.982 11.654 32 16 32c4.345 0 4.891-.018 6.597-.096 1.702-.079 2.865-.349 3.884-.744a7.835 7.835 0 002.834-1.845 7.835 7.835 0 001.845-2.834c.395-1.019.665-2.18.744-3.884C31.982 20.89 32 20.345 32 16c0-4.346-.018-4.89-.096-6.597" id="Fill-3"/><path d="M16 21.333a5.334 5.334 0 11.002-10.667A5.334 5.334 0 0116 21.333m0-13.55a8.217 8.217 0 000 16.434 8.217 8.217 0 000-16.434" id="Fill-6"/></g></g></g></svg>