<svg xmlns="http://www.w3.org/2000/svg" viewBox="0 0 306 58"><title>miis-logo</title><g fill="#FFF" fill-rule="evenodd"><path d="M6.39 13.3h2.15c.03.72.12 1.42.25 2.06H6.95c-.3-.64-.5-1.33-.56-2.07zm.56-3.11h1.84c-.13.64-.22 1.34-.25 2.07H6.4c.06-.74.26-1.44.56-2.07zm3.03-2.97a7.37 7.37 0 0 0-.91 1.93h-1.5a6.1 6.1 0 0 1 2.41-1.93zm1.94-.4v2.33h-1.77c.45-1.21 1.1-2.04 1.77-2.32zm0 5.44H9.58c.03-.75.12-1.45.27-2.07h2.07v2.07zm0 3.1H9.85c-.15-.62-.24-1.32-.27-2.07h2.34v2.07zm0 3.36c-.67-.28-1.32-1.1-1.77-2.32h1.77v2.32zM7.57 16.4h1.5c.24.74.55 1.4.91 1.93a6.1 6.1 0 0 1-2.4-1.93zm5.38 0h1.77c-.45 1.21-1.1 2.04-1.77 2.32V16.4zm0-3.1h2.35c-.04.74-.13 1.44-.27 2.06h-2.08V13.3zm0-3.11h2.08c.14.62.23 1.32.27 2.07h-2.35v-2.07zm0-3.36c.68.28 1.32 1.1 1.77 2.32h-1.77V6.83zm4.35 2.32h-1.5a7.37 7.37 0 0 0-.91-1.93 6.1 6.1 0 0 1 2.41 1.93zm.62 1.04c.3.63.5 1.33.56 2.07h-2.15c-.03-.73-.11-1.43-.25-2.07h1.84zm0 5.17h-1.84c.14-.64.22-1.34.25-2.07h2.15a6.03 6.03 0 0 1-.56 2.07zm-3.03 2.97c.37-.53.68-1.19.92-1.93h1.49a6.1 6.1 0 0 1-2.41 1.93zm-2.45 1.55a7.12 7.12 0 1 0-.02-14.23 7.12 7.12 0 0 0 .02 14.23zm34.39-3.79V8.06h-1.1v7.4l-6 3.5-5.98-3.5v-7.4h-1.1v8.03l7.09 4.16 7.1-4.16"/><path d="M39.14 17.26V9.84c-1.32-2.44-4.28-2.48-4.28-2.48-.04-.05 0 7.41 0 7.41s2.96.05 4.28 2.49m5.42-2.42s.05-7.47 0-7.42c0 0-2.98.05-4.32 2.49v7.41c1.34-2.44 4.32-2.48 4.32-2.48M20.38 23v-.5h1.56a4.27 4.27 0 0 1 4.29-3.63c2.2 0 4.02 1.58 4.29 3.62h1.5v.52a3.24 3.24 0 0 0 3.32 3.15h.51v1.65h3.02v.01c.55.06 1.05.4 1.23.93.2.58-.13 1.2-.74 1.4-.48.14-1-.1-1.16-.57-.1-.27 0-.55.2-.73h-3.58v-1.68a4.28 4.28 0 0 1-3.8-3.64h-1.5V23a3.2 3.2 0 0 0-3.29-3.1 3.2 3.2 0 0 0-3.29 3.1v.52h-1.56a4.3 4.3 0 0 1-3.82 3.65v1.64h-3.71c.2.18.3.45.23.72a.93.93 0 0 1-1.13.62 1.1 1.1 0 0 1-.82-1.35c.17-.61.76-1.01 1.4-1v-.02h3v-1.61h.5A3.26 3.26 0 0 0 20.39 23zm8.5 5.13v1.43h-1.42a1.25 1.25 0 0 1-2.47 0h-1.43v-1.43a1.25 1.25 0 0 1 0-2.47v-1.43h1.42a1.25 1.25 0 0 1 2.48 0h1.43v1.43a1.25 1.25 0 0 1 0 2.47zm-9.87-5.17c0 1.12-1.13 1.9-2.51 1.9h-1.26v1.7h-4.18v4.55H6.35v1.21h39.69v-1.2h-4.81v-4.59h-4.06v-1.67h-1.35c-1.4 0-2.52-.78-2.52-1.9v-1.78h-1.86a5.86 5.86 0 0 0-5.23-3.66 5.95 5.95 0 0 0-5.3 3.65h-1.9v1.79zM7.53 33.85h.04c.78.24.82 1.13.82 1.13v.4h1.02v-.63s.05-.84.82-1.07h.05c.77.23.82 1.07.82 1.07v.63h1.18v-.63s.05-.84.82-1.07h.05c.77.23.82 1.07.82 1.07v.63h1.21v-.63s.05-.84.82-1.07h.05c.78.23.82 1.07.82 1.07v.63h1.18v-.63s.05-.84.83-1.07h.04c.78.23.83 1.07.83 1.07v.63h1.23v-.63s.04-.84.82-1.07h.05c.77.23.82 1.07.82 1.07v.63h1.18v-.63s.05-.84.82-1.07h.05c.77.23.82 1.07.82 1.07v.63h1.21v-.63s.05-.84.82-1.07h.05c.77.23.82 1.07.82 1.07v.63h1.18v-.63s.05-.84.82-1.07h.05c.77.23.82 1.07.82 1.07v.63h1.2v-.63s.05-.84.82-1.07h.05c.77.23.82 1.07.82 1.07v.63h1.23v-.63s.05-.84.82-1.07h.05c.77.23.82 1.07.82 1.07v.63h1.18v-.63s.05-.84.82-1.07h.05c.77.23.82 1.07.82 1.07v.63h1.21v-.63s.05-.84.83-1.07h.05c.77.23.82 1.07.82 1.07v.63h1.01v-.4s.05-.89.82-1.13h.05l.08.03v-.59H7.53v.56"/><path d="M50.5 25.98s0 1.4-.52 3.64c-.73 3.2-2.5 8.18-6.82 13.4l.01-6.95H9.12v6.72a32.6 32.6 0 0 1-6.66-13.17c-.51-2.25-.52-3.64-.52-3.64V1.82H50.5v24.16zm-14 23.46a55.85 55.85 0 0 1-10.27 6.27 55.77 55.77 0 0 1-10.39-6.37v-.28a10.33 10.33 0 1 1 20.66.38zM.4.34v26.23c0 .04.06 4.73 3.3 10.87 2.96 5.64 9.28 13.68 22.53 20.12 13.27-6.44 19.58-14.48 22.54-20.12 3.22-6.14 3.27-10.83 3.27-10.88V.33H.4z"/><path d="M21.68 44.7h-.52l-1.35.94.18.4.51-.23c.18-.08.39-.22.46-.26v2.99h-.78v.6h2.13v-.6h-.63v-3.85m3.37 2.05c-.23.2-.43.3-.68.3-.46 0-.74-.35-.74-.9 0-.57.3-.95.74-.95.45 0 .75.4.75 1.04 0 .19-.02.31-.07.5zm-.66-2.13c-.9 0-1.58.66-1.58 1.55a1.4 1.4 0 0 0 2.08 1.27c-.05.11-.1.23-.16.32a3.09 3.09 0 0 1-1.86 1.3l.38.44c.6-.12 1.22-.49 1.66-.9a3.03 3.03 0 0 0 1.02-2.24c0-.94-.52-1.74-1.54-1.74zm3.29 1.79c-.14 0-.19 0-.37.03l.1-1.09h1.37l.11-.62h-2.16l-.22 2.43c.33-.12.63-.18.93-.18.5 0 .85.27.85.79 0 .62-.56 1.08-1.32 1.08-.21 0-.35-.02-.58-.1l.16.56a2.56 2.56 0 0 0 1.66-.2c.54-.29.89-.82.89-1.4 0-.82-.64-1.3-1.42-1.3m3.23 0c-.14 0-.2 0-.38.03l.11-1.09h1.37l.11-.62h-2.16l-.22 2.43c.33-.12.63-.18.92-.18.51 0 .85.27.85.79 0 .62-.55 1.08-1.31 1.08-.22 0-.35-.02-.58-.1l.15.56c.21.05.3.05.5.05.43 0 .84-.1 1.16-.26.54-.28.9-.8.9-1.4 0-.8-.64-1.29-1.42-1.29M98.3 29.74c-.99 0-1.77.55-2.5 1.78v-.25l.02-.27.07-.58.1-.85-3.07.31v.54l1.4.23.19 1.33v3.59l-.2 1.32-1.21.23v.54h4.47v-.54l-1.4-.23-.18-1.32v-3.36c.5-.63 1.18-.85 1.7-.85.37 0 .73.12 1.03.26l.43-1.76c-.36-.1-.54-.12-.85-.12m189.86 0c-.99 0-1.77.55-2.5 1.78v-.25l.02-.27a242.59 242.59 0 0 1 .17-1.43l-3.07.31v.54l1.4.23.19 1.33v3.59l-.2 1.32-1.21.23v.54h4.47v-.54l-1.4-.23-.18-1.32v-3.36c.5-.63 1.18-.85 1.7-.85.37 0 .73.12 1.03.26l.43-1.76c-.36-.1-.54-.12-.85-.12M64.5 18.03l1.4-.28.18-1.76V9.74l-.18-1.76-1.4-.28v-.53h3.76l.88 2.57 2.64 6.84 2.7-6.86.81-2.55h3.77v.53l-1.4.28-.19 1.76v6.25l.2 1.76 1.39.28v.54h-4.81v-.54l1.4-.28.18-1.76V8.36l-3 7.63-.88 2.58h-1.13l-.94-2.58-3.02-7.63v7.63l.2 1.76 1.39.28v.54h-3.96v-.54M81.3 7.33c0-.6.49-1.1 1.1-1.1.59 0 1.1.5 1.1 1.12 0 .56-.46 1.08-1.1 1.08-.6 0-1.1-.44-1.1-1.1zm-.9 10.7l1.21-.23.18-1.32v-3.6l-.18-1.33-1.4-.23v-.54l3.25-.31-.18 2.42v3.59l.18 1.32 1.22.23v.54h-4.29v-.54zm10.49-1.38V11.5c-.5-.2-.87-.3-1.41-.3-1.64 0-2.55 1.35-2.55 3.5 0 1.9.7 3.04 2.06 3.04.6 0 1.25-.28 1.9-1.08zm-5.53-1.6c0-2.72 1.71-4.64 4.19-4.64.48 0 .87.06 1.34.16V8.53l-.2-1.34-1.39-.22v-.54l3.26-.32-.2 2.42v7.95l.2 1.32 1.13.23v.54l-2.8.36.26-1.65c-.8 1.08-1.62 1.65-2.77 1.65-1.76 0-3.02-1.51-3.02-3.88zm14.48 1.6V11.5c-.49-.2-.87-.3-1.4-.3-1.65 0-2.55 1.35-2.55 3.5 0 1.9.7 3.04 2.05 3.04.61 0 1.26-.28 1.9-1.08zm-5.52-1.6c0-2.72 1.7-4.64 4.18-4.64.49 0 .87.06 1.34.16V8.53l-.19-1.34-1.4-.22v-.54l3.27-.32-.2 2.42v7.95l.2 1.32 1.13.23v.54l-2.8.36.25-1.65c-.8 1.08-1.62 1.65-2.77 1.65-1.76 0-3.01-1.51-3.01-3.88zm9.43 2.98l1.22-.23.19-1.32V8.53l-.2-1.34-1.39-.22v-.54l3.24-.32-.17 2.42v7.95l.19 1.32 1.2.23v.54h-4.28v-.54m8.7-4.65l1.19-.18c0-1.37-.65-2.09-1.6-2.09-.98 0-1.66.73-1.85 2.27h2.26zm-3.8 1.37c0-2.65 1.35-4.34 3.53-4.34 1.82 0 3.1 1.19 3.03 3.66h-5.04l-.02.39c0 1.96.96 3.36 2.8 3.36.57 0 1.2-.14 1.8-.6l.35.48c-1 .9-1.74 1.23-3 1.23-2.07 0-3.44-1.5-3.44-4.18zm13.71-.14c0-1.8-.77-3.01-1.94-3.01-.71 0-1.4.3-2.02 1.03v3.85l.17 1.51c.42.14.72.21 1.17.21 1.8 0 2.62-1.6 2.62-3.59zm-5.46 3.96V8.53l-.17-1.34-1.4-.22v-.54l3.24-.32-.17 2.42v3.28a3.32 3.32 0 0 1 2.65-1.4c1.67 0 2.84 1.43 2.84 3.65 0 2.7-1.62 4.87-4.76 4.87-.73 0-1.23 0-2.23-.36zm9-2.35v-3.33l-.18-1.34-1.36-.23v-.54l3.22-.31-.17 2.42v2.92c0 1.2.55 1.94 1.65 1.94.75 0 1.43-.45 1.92-1.05v-3.8l-.18-1.34-1.35-.23v-.54l3.22-.31-.2 2.42v3.59l.2 1.32 1.25.23v.54l-2.94.31.19-1.57c-.82 1.13-1.55 1.62-2.79 1.62-1.53 0-2.47-.97-2.47-2.71m16.65 6.47v-.6l1.74-.28.75-1.21.75-1.76-2.44-5.96-.72-1.36-.78-.21v-.54h3.81v.54l-1.11.2.42 1.37 1.56 4.02 1.47-4.02.38-1.36-1.1-.21v-.54h3.14v.54l-.89.2-.66 1.37-3.8 10.03-2.52-.22m-2.33-12.05c-.99 0-1.77.55-2.5 1.78v-.26l.02-.27.07-.58.1-.85-3.07.32v.54l1.4.22.19 1.34v3.59l-.2 1.32-1.21.22v.54h4.47v-.54l-1.4-.22-.18-1.32v-3.36c.5-.63 1.18-.85 1.7-.85.37 0 .73.12 1.03.26l.43-1.76c-.36-.1-.54-.12-.85-.12m14.49 7.38l1.4-.28.18-1.76V9.74l-.17-1.76-1.41-.28v-.53h4.8v.53l-1.4.28-.18 1.76v6.25l.17 1.76 1.41.28v.54h-4.8v-.54m5.91 0l1.22-.23.2-1.32v-3.6l-.2-1.33-1.4-.23v-.54l3.07-.31-.19 1.56c.72-1.1 1.62-1.62 2.8-1.62 1.5 0 2.48 1 2.48 2.72v3.35l.17 1.32 1.24.23v.54h-4.1v-.54l1-.23.17-1.32v-2.93c0-1.17-.55-1.95-1.65-1.95-.66 0-1.15.2-1.92 1.04v3.84l.2 1.32.99.23v.54h-4.08v-.54m10.53.43l-.13-2.04h.76l.3 1.35c.54.24.96.38 1.62.38.94 0 1.53-.47 1.53-1.27 0-1.01-.96-1.3-1.86-1.64-1.1-.45-2.39-.84-2.39-2.4 0-1.33 1.08-2.53 2.93-2.53.78 0 1.55.16 2.31.5l.18 2.04h-.77l-.38-1.37a3.6 3.6 0 0 0-1.55-.35c-.93 0-1.45.38-1.45 1.17 0 .95.98 1.25 1.83 1.58 1.24.47 2.4.85 2.4 2.47 0 1.47-1.18 2.62-2.94 2.62-.57 0-1.55-.18-2.39-.5m7.57-1.42v-5.54h-1.36v-.62l1.36-.28v-2l1.5-.29v2.46h2.12v.73h-2.13v4.97c0 .89.32 1.29.96 1.29.28 0 .75-.1 1.15-.35l.33.55c-.87.7-1.44.96-2.23.96-.85 0-1.7-.43-1.7-1.88m5.75-9.72c0-.6.5-1.1 1.1-1.1.6 0 1.1.5 1.1 1.12 0 .56-.45 1.08-1.1 1.08-.6 0-1.1-.44-1.1-1.1zm-.9 10.7l1.22-.23.17-1.32v-3.6l-.17-1.33-1.4-.23v-.54l3.24-.31-.17 2.42v3.59l.17 1.32 1.22.23v.54h-4.28v-.54zm5.82-.98v-5.54h-1.36v-.62l1.36-.28v-2l1.5-.29v2.46h2.13v.73h-2.13v4.97c0 .89.31 1.29.96 1.29.28 0 .75-.1 1.15-.35l.33.55c-.87.7-1.45.96-2.23.96-.85 0-1.7-.43-1.7-1.88m6.13-.83v-3.33l-.19-1.34-1.36-.23v-.54l3.22-.31-.17 2.42v2.92c0 1.2.56 1.94 1.66 1.94.74 0 1.42-.45 1.91-1.05v-3.8l-.17-1.34-1.36-.23v-.54l3.22-.31-.19 2.42v3.59l.2 1.32 1.25.23v.54l-2.95.31.2-1.57c-.83 1.13-1.56 1.62-2.8 1.62-1.53 0-2.47-.97-2.47-2.71m9.57.82v-5.54h-1.36v-.62l1.36-.28v-2l1.5-.29v2.46h2.13v.73h-2.13v4.97c0 .89.32 1.29.96 1.29.28 0 .75-.1 1.15-.35l.33.55c-.87.7-1.44.96-2.23.96-.85 0-1.7-.43-1.7-1.88m8.32-3.67l1.18-.18c0-1.37-.64-2.09-1.6-2.09-.97 0-1.65.73-1.85 2.27h2.27zm-3.8 1.37c0-2.65 1.34-4.34 3.52-4.34 1.83 0 3.1 1.19 3.03 3.66h-5.03l-.02.39c0 1.96.96 3.36 2.8 3.36.56 0 1.19-.14 1.8-.6l.35.48c-1 .9-1.74 1.23-3 1.23-2.07 0-3.45-1.5-3.45-4.18zm15.76 2.05c.57-.86.9-2.03.9-3.39 0-1.22-.26-1.98-1.05-1.98-.59 0-1.08.27-1.58.97-.63.84-1 2.35-1 3.62 0 1.17.35 1.87 1.07 1.87.62 0 1.18-.37 1.65-1.08zm-4.2-.43c0-2.09.7-3.8 2.33-5.08a4.25 4.25 0 0 1 2.33-.93c1.19 0 1.88.9 1.88 2.68 0 1.6-.5 3.16-1.53 4.22-.96 1.05-2.09 1.66-3.19 1.66-1.11 0-1.83-.86-1.83-2.55z"/><path d="M224.81 22.71l.33-1.5c.54.21 1.13.37 1.64.37.45 0 .8-.17 1.06-.56.24-.36.44-.87.58-1.55l1.6-7.94h-1.55v-.75h1.7l.06-.23c.36-1.65.76-2.6 1.64-3.41a3.7 3.7 0 0 1 2.36-1.03c.44 0 .79.05 1.4.18l-.35 1.6a5.35 5.35 0 0 0-1.97-.52c-.33 0-.7.1-1.04.48-.39.42-.63 1.26-.72 2.93h1.81v.75h-1.93L230 18.76a5.37 5.37 0 0 1-1.65 3 3.72 3.72 0 0 1-3.54.95M64.48 37.12l1.41-.28.18-1.76v-6.25l-.18-1.76-1.4-.28v-.53h4.8v.53l-1.4.28-.18 1.76v6.25l.17 1.76 1.41.28v.54h-4.8v-.54m5.91 0l1.22-.23.19-1.32v-3.6l-.2-1.33-1.39-.23v-.54l3.07-.31-.2 1.56c.72-1.1 1.63-1.62 2.81-1.62 1.5 0 2.48 1 2.48 2.72v3.35l.17 1.32 1.24.23v.54h-4.1v-.54l1-.23.17-1.32v-2.93c0-1.17-.56-1.95-1.65-1.95-.67 0-1.15.2-1.92 1.04v3.84l.2 1.32.98.23v.54H70.4v-.54m10.73-.98V30.6h-1.36v-.62l1.36-.28v-2l1.5-.29v2.46h2.12v.73h-2.13v4.97c0 .89.32 1.29.96 1.29.28 0 .75-.1 1.15-.35l.33.55c-.87.7-1.44.96-2.23.96-.85 0-1.7-.43-1.7-1.88m8.32-3.67l1.19-.18c0-1.37-.65-2.09-1.6-2.09-.98 0-1.66.73-1.85 2.27h2.26zm-3.8 1.37c0-2.65 1.35-4.34 3.52-4.34 1.83 0 3.1 1.19 3.03 3.66h-5.03l-.02.39c0 1.96.96 3.36 2.8 3.36.56 0 1.2-.14 1.8-.6l.35.48c-1 .9-1.74 1.23-3 1.23-2.07 0-3.45-1.5-3.45-4.18zm14.4 3.28l1.22-.23.2-1.32v-3.6l-.2-1.33-1.4-.23v-.54l3.07-.31-.19 1.56c.72-1.1 1.62-1.62 2.8-1.62 1.5 0 2.48 1 2.48 2.72v3.35l.18 1.32 1.23.23v.54h-4.1v-.54l1-.23.18-1.32v-2.93c0-1.17-.56-1.95-1.66-1.95-.66 0-1.15.2-1.92 1.04v3.84l.2 1.32.99.23v.54h-4.08v-.54m14.57-1.54V33.9a4.3 4.3 0 0 0-2.23.44c-.47.26-.71.68-.71 1.22 0 .68.47 1.24 1.15 1.24.57 0 1.27-.44 1.8-1.2zm-4.4.33c0-.76.33-1.4 1.02-1.91.68-.5 1.8-.77 3.38-.77v-.94c0-1.1-.66-1.74-1.72-1.74-.65 0-1.29.26-1.86.78l-.44-.47a4.07 4.07 0 0 1 3.08-1.44c1.4 0 2.4.75 2.4 2.47v3.68l.2 1.32 1.17.23v.54l-2.86.31.31-1.92c-.64 1.19-1.48 1.97-2.66 1.97-1.15 0-2.02-.78-2.02-2.1zm8.69.23V30.6h-1.35v-.62l1.35-.28v-2l1.5-.29v2.46h2.13v.73h-2.13v4.97c0 .89.32 1.29.96 1.29.28 0 .75-.1 1.15-.35l.33.55c-.87.7-1.44.96-2.23.96-.85 0-1.7-.43-1.7-1.88m5.75-9.72c0-.6.49-1.1 1.1-1.1.6 0 1.1.5 1.1 1.12 0 .56-.46 1.08-1.1 1.08-.6 0-1.1-.44-1.1-1.1zm-.9 10.7l1.22-.23.17-1.32v-3.6l-.17-1.33-1.4-.23v-.54l3.24-.31-.17 2.42v3.59l.17 1.32 1.22.23v.54h-4.28v-.54zm10.75-3.4c0-2.32-.75-3.5-2.13-3.5-1.39 0-2.16 1.1-2.16 3.52 0 2.37.75 3.55 2.11 3.55 1.4 0 2.18-1.15 2.18-3.57zm-5.98.14c0-2.5 1.36-4.37 3.94-4.37 2.23 0 3.71 1.5 3.71 4.21 0 2.65-1.58 4.34-3.9 4.34-2.23 0-3.75-1.58-3.75-4.18zm8.26 3.26l1.23-.23.19-1.32v-3.6l-.2-1.33-1.39-.23v-.54l3.07-.31-.2 1.56c.72-1.1 1.63-1.62 2.81-1.62 1.5 0 2.48 1 2.48 2.72v3.35l.17 1.32 1.24.23v.54h-4.1v-.54l1-.23.17-1.32v-2.93c0-1.17-.56-1.95-1.65-1.95-.67 0-1.15.2-1.92 1.04v3.84l.2 1.32.98.23v.54h-4.07v-.54m14.57-1.54V33.9a4.3 4.3 0 0 0-2.23.44c-.47.26-.72.68-.72 1.22 0 .68.47 1.24 1.15 1.24.58 0 1.28-.44 1.8-1.2zm-4.4.33c0-.76.32-1.4 1.02-1.91.68-.5 1.8-.77 3.38-.77v-.94c0-1.1-.66-1.74-1.73-1.74-.64 0-1.29.26-1.86.78l-.44-.47a4.07 4.07 0 0 1 3.09-1.44c1.4 0 2.4.75 2.4 2.47v3.68l.2 1.32 1.16.23v.54l-2.86.31.32-1.92c-.65 1.19-1.48 1.97-2.67 1.97-1.15 0-2.02-.78-2.02-2.1zm8.15 1.21l1.21-.23.2-1.32v-7.95l-.2-1.34-1.39-.22v-.54l3.24-.32-.17 2.42v7.95l.19 1.32 1.2.23v.54h-4.28v-.54m8.85.28l-.18-2.65h.89l.35 1.83c.6.28 1.13.5 1.84.5 1.59 0 2.74-.76 2.74-2.07 0-1.46-1.4-2-2.74-2.5-1.65-.64-3.11-1.3-3.11-3.3 0-1.76 1.34-3.36 3.93-3.36.9 0 1.99.24 2.93.59l.2 2.63h-.88l-.38-1.86a4.16 4.16 0 0 0-1.9-.53c-1.73 0-2.58.96-2.58 1.95 0 1.41 1.22 1.82 2.44 2.3 1.78.72 3.45 1.47 3.45 3.6 0 2.08-1.67 3.44-4.18 3.44-.86 0-1.59-.09-2.82-.57m9.09-1.26V30.6h-1.36v-.62l1.36-.28v-2l1.5-.29v2.46h2.12v.73h-2.12v4.97c0 .89.31 1.29.96 1.29.28 0 .75-.1 1.15-.35l.33.55c-.87.7-1.45.96-2.23.96-.85 0-1.7-.43-1.7-1.88m6.08-.84v-3.32l-.2-1.34-1.35-.23v-.54l3.22-.31-.17 2.42v2.92c0 1.2.55 1.94 1.65 1.94.75 0 1.43-.45 1.92-1.05v-3.81l-.18-1.34-1.35-.23v-.54l3.22-.31-.2 2.42v3.59l.2 1.32 1.25.23v.54l-2.94.31.19-1.57c-.82 1.13-1.55 1.62-2.79 1.62-1.53 0-2.47-.97-2.47-2.71m14.01.43v-5.16c-.5-.2-.87-.3-1.41-.3-1.64 0-2.55 1.35-2.55 3.5 0 1.9.7 3.04 2.06 3.04.6 0 1.25-.28 1.9-1.08zm-5.53-1.6c0-2.72 1.71-4.64 4.19-4.64.48 0 .87.06 1.34.16v-2.04l-.2-1.34-1.39-.22v-.54l3.26-.32-.2 2.42v7.95l.2 1.32 1.13.23v.54l-2.8.36.26-1.65c-.8 1.08-1.62 1.65-2.77 1.65-1.76 0-3.02-1.51-3.02-3.88zm10.16-7.72c0-.6.49-1.1 1.1-1.1.6 0 1.1.5 1.1 1.12 0 .56-.46 1.08-1.1 1.08-.6 0-1.1-.44-1.1-1.1zm-.9 10.7l1.22-.23.17-1.32v-3.6l-.17-1.33-1.4-.23v-.54l3.24-.31-.17 2.42v3.59l.17 1.32 1.22.23v.54h-4.28v-.54zm8.62-4.65l1.18-.18c0-1.37-.64-2.09-1.6-2.09-.98 0-1.66.73-1.85 2.27h2.27zm-3.8 1.37c0-2.65 1.34-4.34 3.52-4.34 1.83 0 3.1 1.19 3.03 3.66h-5.04l-.01.39c0 1.96.96 3.36 2.8 3.36.56 0 1.19-.14 1.8-.6l.34.48c-.99.9-1.74 1.23-3 1.23-2.07 0-3.44-1.5-3.44-4.18zm7.89 3.71l-.14-2.04h.77l.3 1.35c.54.24.95.38 1.62.38.94 0 1.53-.47 1.53-1.27 0-1.01-.96-1.3-1.86-1.64-1.1-.45-2.4-.84-2.4-2.4 0-1.33 1.09-2.53 2.94-2.53.78 0 1.55.16 2.31.5l.18 2.04h-.77l-.38-1.37a3.6 3.6 0 0 0-1.55-.35c-.93 0-1.45.38-1.45 1.17 0 .95.98 1.25 1.83 1.58 1.24.47 2.4.85 2.4 2.47 0 1.47-1.18 2.62-2.94 2.62-.57 0-1.55-.18-2.39-.5m14.29-1.98V33.9a4.3 4.3 0 0 0-2.23.44c-.47.26-.71.68-.71 1.22 0 .68.47 1.24 1.15 1.24.57 0 1.27-.44 1.79-1.2zm-4.4.33c0-.76.32-1.4 1.02-1.91.68-.5 1.8-.77 3.38-.77v-.94c0-1.1-.66-1.74-1.73-1.74-.64 0-1.28.26-1.86.78l-.43-.47a4.07 4.07 0 0 1 3.08-1.44c1.4 0 2.4.75 2.4 2.47v3.68l.2 1.32 1.16.23v.54l-2.86.31.32-1.92c-.65 1.19-1.48 1.97-2.67 1.97-1.15 0-2.02-.78-2.02-2.1zm8.69.23V30.6h-1.36v-.62l1.36-.28v-2l1.5-.29v2.46h2.12v.73h-2.12v4.97c0 .89.31 1.29.96 1.29.27 0 .75-.1 1.15-.35l.33.55c-.87.7-1.45.96-2.23.96-.86 0-1.71-.43-1.71-1.88m7.96.98l1.41-.28.18-1.76v-6.25l-.18-1.76-1.4-.28v-.53h3.75l.9 2.57 2.62 6.84 2.7-6.86.82-2.55h3.77v.53l-1.4.28-.19 1.76v6.25l.2 1.76 1.39.28v.54h-4.81v-.54l1.4-.28.18-1.76v-7.63l-3 7.63-.88 2.58h-1.13l-.95-2.58-3-7.63v7.63l.18 1.76 1.4.28v.54h-3.96v-.54m21.3-3.4c0-2.32-.75-3.5-2.13-3.5-1.4 0-2.16 1.1-2.16 3.52 0 2.37.75 3.55 2.11 3.55 1.4 0 2.18-1.15 2.18-3.57zm-5.98.14c0-2.5 1.36-4.37 3.94-4.37 2.23 0 3.71 1.5 3.71 4.21 0 2.65-1.59 4.34-3.9 4.34-2.23 0-3.75-1.58-3.75-4.18zm8.44 3.26l1.22-.23.2-1.32v-3.6l-.2-1.33-1.4-.23v-.54l3.07-.31-.19 1.56c.72-1.1 1.62-1.62 2.8-1.62 1.5 0 2.48 1 2.48 2.72v3.35l.17 1.32 1.24.23v.54h-4.1v-.54l1-.23.17-1.32v-2.93c0-1.17-.55-1.95-1.65-1.95-.66 0-1.15.2-1.92 1.04v3.84l.2 1.32.99.23v.54h-4.08v-.54m10.9-.98V30.6h-1.36v-.62l1.36-.28v-2l1.5-.29v2.46h2.13v.73h-2.13v4.97c0 .89.31 1.29.96 1.29.28 0 .75-.1 1.15-.35l.33.55c-.87.7-1.45.96-2.23.96-.85 0-1.7-.43-1.7-1.88m8.32-3.67l1.18-.18c0-1.37-.64-2.09-1.6-2.09-.97 0-1.65.73-1.85 2.27h2.27zm-3.8 1.37c0-2.65 1.34-4.34 3.52-4.34 1.83 0 3.1 1.19 3.03 3.66h-5.03l-.02.39c0 1.96.96 3.36 2.8 3.36.56 0 1.19-.14 1.8-.6l.35.48c-1 .9-1.75 1.23-3 1.23-2.07 0-3.45-1.5-3.45-4.18zm17.93-1.37l1.19-.18c0-1.37-.65-2.09-1.6-2.09-.98 0-1.66.73-1.85 2.27h2.26zm-3.8 1.37c0-2.65 1.35-4.34 3.52-4.34 1.83 0 3.1 1.19 3.03 3.66H291l-.02.39c0 1.96.96 3.36 2.8 3.36.57 0 1.2-.14 1.8-.6l.35.48c-1 .9-1.74 1.23-3 1.23-2.07 0-3.44-1.5-3.44-4.18zm7.89 7.95v-.6l1.74-.28.75-1.21.75-1.76-2.44-5.96-.71-1.36-.79-.21v-.54h3.82v.54l-1.12.2.42 1.37 1.57 4.02 1.46-4.02.39-1.36-1.1-.21v-.54h3.13v.54l-.88.2-.67 1.37-3.8 10.03-2.52-.22"/></g></svg>