<svg xmlns="http://www.w3.org/2000/svg" viewBox="0 0 52 58"><g fill="#FFF" fill-rule="evenodd"><path d="M6.39 13.3h2.15c.03.72.12 1.42.25 2.06H6.95c-.3-.64-.5-1.33-.56-2.07zm.56-3.11h1.84c-.13.64-.22 1.34-.25 2.07H6.4c.06-.74.26-1.44.56-2.07zm3.03-2.97a7.37 7.37 0 00-.91 1.93h-1.5a6.1 6.1 0 012.41-1.93zm1.94-.4v2.33h-1.77c.45-1.21 1.1-2.04 1.77-2.32zm0 5.44H9.58c.03-.75.12-1.45.27-2.07h2.07v2.07zm0 3.1H9.85c-.15-.62-.24-1.32-.27-2.07h2.34v2.07zm0 3.36c-.67-.28-1.32-1.1-1.77-2.32h1.77v2.32zM7.57 16.4h1.5c.24.74.55 1.4.91 1.93a6.1 6.1 0 01-2.4-1.93zm5.38 0h1.77c-.45 1.21-1.1 2.04-1.77 2.32V16.4zm0-3.1h2.35c-.04.74-.13 1.44-.27 2.06h-2.08V13.3zm0-3.11h2.08c.14.62.23 1.32.27 2.07h-2.35v-2.07zm0-3.36c.68.28 1.32 1.1 1.77 2.32h-1.77V6.83zm4.35 2.32h-1.5a7.37 7.37 0 00-.91-1.93 6.1 6.1 0 012.41 1.93zm.62 1.04c.3.63.5 1.33.56 2.07h-2.15c-.03-.73-.11-1.43-.25-2.07h1.84zm0 5.17h-1.84c.14-.64.22-1.34.25-2.07h2.15a6.03 6.03 0 01-.56 2.07zm-3.03 2.97c.37-.53.68-1.19.92-1.93h1.49a6.1 6.1 0 01-2.41 1.93zm-2.45 1.55a7.12 7.12 0 10-.02-14.23 7.12 7.12 0 00.02 14.23zm34.39-3.79V8.06h-1.1v7.4l-6 3.5-5.98-3.5v-7.4h-1.1v8.03l7.09 4.16 7.1-4.16"/><path d="M39.14 17.26V9.84c-1.32-2.44-4.28-2.48-4.28-2.48-.04-.05 0 7.41 0 7.41s2.96.05 4.28 2.49m5.42-2.42s.05-7.47 0-7.42c0 0-2.98.05-4.32 2.49v7.41c1.34-2.44 4.32-2.48 4.32-2.48M20.38 23v-.5h1.56a4.27 4.27 0 014.29-3.63c2.2 0 4.02 1.58 4.29 3.62h1.5v.52a3.24 3.24 0 003.32 3.15h.51v1.65h3.02v.01c.55.06 1.05.4 1.23.93.2.58-.13 1.2-.74 1.4-.48.14-1-.1-1.16-.57-.1-.27 0-.55.2-.73h-3.58v-1.68a4.28 4.28 0 01-3.8-3.64h-1.5V23a3.2 3.2 0 00-3.29-3.1 3.2 3.2 0 00-3.29 3.1v.52h-1.56a4.3 4.3 0 01-3.82 3.65v1.64h-3.71c.2.18.3.45.23.72a.93.93 0 01-1.13.62 1.1 1.1 0 01-.82-1.35c.17-.61.76-1.01 1.4-1v-.02h3v-1.61h.5A3.26 3.26 0 0020.39 23zm8.5 5.13v1.43h-1.42a1.25 1.25 0 01-2.47 0h-1.43v-1.43a1.25 1.25 0 010-2.47v-1.43h1.42a1.25 1.25 0 012.48 0h1.43v1.43a1.25 1.25 0 010 2.47zm-9.87-5.17c0 1.12-1.13 1.9-2.51 1.9h-1.26v1.7h-4.18v4.55H6.35v1.21h39.69v-1.2h-4.81v-4.59h-4.06v-1.67h-1.35c-1.4 0-2.52-.78-2.52-1.9v-1.78h-1.86a5.86 5.86 0 00-5.23-3.66 5.95 5.95 0 00-5.3 3.65h-1.9v1.79zM7.53 33.85h.04c.78.24.82 1.13.82 1.13v.4h1.02v-.63s.05-.84.82-1.07h.05c.77.23.82 1.07.82 1.07v.63h1.18v-.63s.05-.84.82-1.07h.05c.77.23.82 1.07.82 1.07v.63h1.21v-.63s.05-.84.82-1.07h.05c.78.23.82 1.07.82 1.07v.63h1.18v-.63s.05-.84.83-1.07h.04c.78.23.83 1.07.83 1.07v.63h1.23v-.63s.04-.84.82-1.07h.05c.77.23.82 1.07.82 1.07v.63h1.18v-.63s.05-.84.82-1.07h.05c.77.23.82 1.07.82 1.07v.63h1.21v-.63s.05-.84.82-1.07h.05c.77.23.82 1.07.82 1.07v.63h1.18v-.63s.05-.84.82-1.07h.05c.77.23.82 1.07.82 1.07v.63h1.2v-.63s.05-.84.82-1.07h.05c.77.23.82 1.07.82 1.07v.63h1.23v-.63s.05-.84.82-1.07h.05c.77.23.82 1.07.82 1.07v.63h1.18v-.63s.05-.84.82-1.07h.05c.77.23.82 1.07.82 1.07v.63h1.21v-.63s.05-.84.83-1.07h.05c.77.23.82 1.07.82 1.07v.63h1.01v-.4s.05-.89.82-1.13h.05l.08.03v-.59H7.53v.56"/><path d="M50.5 25.98s0 1.4-.52 3.64c-.73 3.2-2.5 8.18-6.82 13.4l.01-6.95H9.12v6.72a32.6 32.6 0 01-6.66-13.17c-.51-2.25-.52-3.64-.52-3.64V1.82H50.5v24.16zm-14 23.46a55.85 55.85 0 01-10.27 6.27 55.77 55.77 0 01-10.39-6.37v-.28a10.33 10.33 0 1120.66.38zM.4.34v26.23c0 .04.06 4.73 3.3 10.87 2.96 5.64 9.28 13.68 22.53 20.12 13.27-6.44 19.58-14.48 22.54-20.12 3.22-6.14 3.27-10.83 3.27-10.88V.33H.4z"/><path d="M21.68 44.7h-.52l-1.35.94.18.4.51-.23c.18-.08.39-.22.46-.26v2.99h-.78v.6h2.13v-.6h-.63v-3.85m3.37 2.05c-.23.2-.43.3-.68.3-.46 0-.74-.35-.74-.9 0-.57.3-.95.74-.95.45 0 .75.4.75 1.04 0 .19-.02.31-.07.5zm-.66-2.13c-.9 0-1.58.66-1.58 1.55a1.4 1.4 0 002.08 1.27c-.05.11-.1.23-.16.32a3.09 3.09 0 01-1.86 1.3l.38.44c.6-.12 1.22-.49 1.66-.9a3.03 3.03 0 001.02-2.24c0-.94-.52-1.74-1.54-1.74zm3.29 1.79c-.14 0-.19 0-.37.03l.1-1.09h1.37l.11-.62h-2.16l-.22 2.43c.33-.12.63-.18.93-.18.5 0 .85.27.85.79 0 .62-.56 1.08-1.32 1.08-.21 0-.35-.02-.58-.1l.16.56a2.56 2.56 0 001.66-.2c.54-.29.89-.82.89-1.4 0-.82-.64-1.3-1.42-1.3m3.23 0c-.14 0-.2 0-.38.03l.11-1.09h1.37l.11-.62h-2.16l-.22 2.43c.33-.12.63-.18.92-.18.51 0 .85.27.85.79 0 .62-.55 1.08-1.31 1.08-.22 0-.35-.02-.58-.1l.15.56c.21.05.3.05.5.05.43 0 .84-.1 1.16-.26.54-.28.9-.8.9-1.4 0-.8-.64-1.29-1.42-1.29"/></g></svg>