<?xml version="1.0" encoding="UTF-8" standalone="no"?>
<svg width="14px" height="10px" viewBox="0 0 14 10" version="1.1" xmlns="http://www.w3.org/2000/svg" xmlns:xlink="http://www.w3.org/1999/xlink">
    <!-- Generator: Sketch 43.2 (39069) - http://www.bohemiancoding.com/sketch -->
    <title>icon-quotemark</title>
    <desc>Created with Sketch.</desc>
    <defs></defs>
    <g id="Page-1" stroke="none" stroke-width="1" fill="none" fill-rule="evenodd">
        <g id="icon-quotemark" fill-rule="nonzero" fill="#113A5F">
            <path d="M0,6.6 C0,3.9 1.5,1.8 5.4,0 L6,1.2 C3.2,2.6 2,3.9 1.8,5.5 L2,5.6 C2.3,5.4 2.6,5.3 2.9,5.3 C3.9,5.3 4.7,6.1 4.7,7.3 C4.7,8.5 3.8,9.5 2.6,9.5 C0.9,9.5 0,8.3 0,6.6 Z M7,6.6 C7,3.9 8.5,1.8 12.5,0 L13.1,1.2 C10.2,2.6 9.1,3.9 8.9,5.5 L9,5.6 C9.3,5.4 9.6,5.3 9.9,5.3 C10.9,5.3 11.7,6.1 11.7,7.3 C11.7,8.5 10.8,9.5 9.5,9.5 C8,9.5 7,8.3 7,6.6 Z" id="Shape"></path>
        </g>
    </g>
</svg>