<svg xmlns="http://www.w3.org/2000/svg" width="27" height="20" viewBox="0 0 27 20">
  <metadata><?xpacket begin="﻿" id="W5M0MpCehiHzreSzNTczkc9d"?>
<x:xmpmeta xmlns:x="adobe:ns:meta/" x:xmptk="Adobe XMP Core 5.6-c138 79.159824, 2016/09/14-01:09:01        ">
   <rdf:RDF xmlns:rdf="http://www.w3.org/1999/02/22-rdf-syntax-ns#">
      <rdf:Description rdf:about=""/>
   </rdf:RDF>
</x:xmpmeta>
                                                                                                    
                                                                                                    
                                                                                                    
                                                                                                    
                                                                                                    
                                                                                                    
                                                                                                    
                                                                                                    
                                                                                                    
                                                                                                    
                                                                                                    
                                                                                                    
                                                                                                    
                                                                                                    
                                                                                                    
                                                                                                    
                                                                                                    
                                                                                                    
                                                                                                    
                                                                                                    
                           
<?xpacket end="w"?></metadata>
<defs>
    <style>
      .cls-1 {
        fill: #fff;
        fill-rule: evenodd;
      }
    </style>
  </defs>
  <path id="_200_icon-youtube-nomal-retina.svg_copy" data-name="200% icon-youtube-nomal-retina.svg copy" class="cls-1" d="M2379.75,6153.67a6.446,6.446,0,0,1-1.06,2.83,3.866,3.866,0,0,1-2.71,1.21c-3.77.29-9.48,0.29-9.48,0.29s-7.03-.08-9.19-0.29a4.628,4.628,0,0,1-3-1.21,6.446,6.446,0,0,1-1.06-2.83s-0.25-2.29-.25-4.59v-2.16c0-2.29.25-4.59,0.25-4.59a6.487,6.487,0,0,1,1.06-2.83,3.958,3.958,0,0,1,2.71-1.21c3.81-.29,9.48-0.29,9.48-0.29h0s5.67,0,9.48.29a3.894,3.894,0,0,1,2.71,1.21,6.487,6.487,0,0,1,1.06,2.83s0.25,2.3.25,4.59v2.16A36.741,36.741,0,0,1,2379.75,6153.67Zm-16.04-9.96v7.96l7.27-4Z" transform="translate(-2353 -6138)"/>
</svg>
