<svg xmlns="http://www.w3.org/2000/svg" width="20" height="20" viewBox="0 0 20 20">
  <metadata><?xpacket begin="﻿" id="W5M0MpCehiHzreSzNTczkc9d"?>
<x:xmpmeta xmlns:x="adobe:ns:meta/" x:xmptk="Adobe XMP Core 5.6-c138 79.159824, 2016/09/14-01:09:01        ">
   <rdf:RDF xmlns:rdf="http://www.w3.org/1999/02/22-rdf-syntax-ns#">
      <rdf:Description rdf:about=""/>
   </rdf:RDF>
</x:xmpmeta>
                                                                                                    
                                                                                                    
                                                                                                    
                                                                                                    
                                                                                                    
                                                                                                    
                                                                                                    
                                                                                                    
                                                                                                    
                                                                                                    
                                                                                                    
                                                                                                    
                                                                                                    
                                                                                                    
                                                                                                    
                                                                                                    
                                                                                                    
                                                                                                    
                                                                                                    
                                                                                                    
                           
<?xpacket end="w"?></metadata>
<defs>
    <style>
      .cls-1 {
        fill: #fff;
        fill-rule: evenodd;
      }
    </style>
  </defs>
  <path id="_200_icon-linkedin-normal-retina.svg_copy" data-name="200% icon-linkedin-normal-retina.svg copy" class="cls-1" d="M2219.51,6138h-17.04a1.46,1.46,0,0,0-1.47,1.44v17.12a1.46,1.46,0,0,0,1.47,1.44h17.04a1.462,1.462,0,0,0,1.48-1.44v-17.12A1.462,1.462,0,0,0,2219.51,6138Zm-12.58,17.04h-2.97v-9.54h2.97v9.54Zm-1.48-10.85a1.72,1.72,0,1,1,1.72-1.72A1.714,1.714,0,0,1,2205.45,6144.19Zm12.59,10.85h-2.97v-4.64c0-1.1-.02-2.53-1.54-2.53-1.54,0-1.78,1.21-1.78,2.45v4.72h-2.96v-9.54h2.84v1.3h0.04a3.131,3.131,0,0,1,2.81-1.54c3,0,3.56,1.98,3.56,4.55v5.23Z" transform="translate(-2201 -6138)"/>
</svg>
